# MagicaVoxel @ Ephtracy

# group
o 

# material
mtllib karmackih_VR_table.mtl
usemtl palette

# normals
vn -1 0 0
vn 1 0 0
vn 0 0 1
vn 0 0 -1
vn 0 -1 0
vn 0 1 0

# texcoords
vt 0.189453 0.5
vt 0.255859 0.5
vt 0.271484 0.5
vt 0.279297 0.5

# verts
v -1.4 1.1 0.7
v -1.4 1.1 -1.2
v -1.4 1.3 0.7
v -1.4 1.3 -1.2
v -1.3 0 0.5
v -1.3 0 0.4
v -1.3 0 0.2
v -1.3 0 -0.7
v -1.3 0 -1
v -1.3 0.3 0.4
v -1.3 0.3 0.2
v -1.3 0.4 0.5
v -1.3 0.4 0.4
v -1.3 0.6 0.5
v -1.3 0.6 0.4
v -1.3 0.7 -0.7
v -1.3 0.7 -0.8
v -1.3 1.1 0.5
v -1.3 1.1 0.2
v -1.3 1.1 -0.7
v -1.3 1.1 -0.8
v -1.3 1.1 -1
v 1 0 0.5
v 1 0 0.2
v 1 0 -0.7
v 1 0 -0.8
v 1 0 -0.9
v 1 0 -1
v 1 0.1 0.3
v 1 0.1 0.2
v 1 0.3 0.3
v 1 0.3 0.2
v 1 0.3 -0.8
v 1 0.3 -0.9
v 1 0.5 0.5
v 1 0.5 0.4
v 1 0.5 -0.8
v 1 0.5 -1
v 1 0.8 -0.8
v 1 0.8 -1
v 1 0.9 0.5
v 1 0.9 0.4
v 1 1.1 0.5
v 1 1.1 0.2
v 1 1.1 -0.7
v 1 1.1 -1
v -0.9 0 0.5
v -0.9 0 0.4
v -0.9 0 0.2
v -0.9 0 -0.7
v -0.9 0 -0.8
v -0.9 0 -1
v -0.9 0.3 0.3
v -0.9 0.3 0.2
v -0.9 0.3 -0.7
v -0.9 0.3 -0.8
v -0.9 0.4 0.5
v -0.9 0.4 0.4
v -0.9 0.7 -0.9
v -0.9 0.7 -1
v -0.9 0.8 0.3
v -0.9 0.8 0.2
v -0.9 1 -0.9
v -0.9 1 -1
v -0.9 1.1 0.5
v -0.9 1.1 0.2
v -0.9 1.1 -0.7
v -0.9 1.1 -1
v 1.4 0 0.5
v 1.4 0 0.4
v 1.4 0 0.2
v 1.4 0 -0.7
v 1.4 0 -1
v 1.4 0.2 -0.9
v 1.4 0.2 -1
v 1.4 0.3 0.5
v 1.4 0.3 0.4
v 1.4 0.5 0.4
v 1.4 0.5 0.3
v 1.4 0.5 -0.9
v 1.4 0.5 -1
v 1.4 1 0.4
v 1.4 1 0.3
v 1.4 1.1 0.5
v 1.4 1.1 0.2
v 1.4 1.1 -0.7
v 1.4 1.1 -1
v 1.5 1.1 0.7
v 1.5 1.1 -1.2
v 1.5 1.3 0.7
v 1.5 1.3 -1.2
v -1.4 1.1 0.7
v -1.4 1.3 0.7
v 1.5 1.1 0.7
v 1.5 1.3 0.7
v -1.3 0 0.5
v -1.3 0.4 0.5
v -1.3 0.6 0.5
v -1.3 1.1 0.5
v -1.2 0.4 0.5
v -1.2 0.6 0.5
v -1 0 0.5
v -1 0.4 0.5
v -0.9 0 0.5
v -0.9 0.4 0.5
v -0.9 1.1 0.5
v 1 0 0.5
v 1 0.5 0.5
v 1 0.9 0.5
v 1 1.1 0.5
v 1.1 0.5 0.5
v 1.1 0.9 0.5
v 1.3 0 0.5
v 1.3 0.3 0.5
v 1.4 0 0.5
v 1.4 0.3 0.5
v 1.4 1.1 0.5
v -1.3 0 -0.7
v -1.3 0.7 -0.7
v -1.3 1.1 -0.7
v -1.2 0.7 -0.7
v -1.2 1.1 -0.7
v -1.1 0.1 -0.7
v -1.1 0.5 -0.7
v -1 0 -0.7
v -1 0.1 -0.7
v -1 0.3 -0.7
v -1 0.5 -0.7
v -0.9 0 -0.7
v -0.9 0.3 -0.7
v -0.9 1.1 -0.7
v 1 0 -0.7
v 1 1.1 -0.7
v 1.4 0 -0.7
v 1.4 1.1 -0.7
v -1.3 0 0.2
v -1.3 0.3 0.2
v -1.3 1.1 0.2
v -1.2 0 0.2
v -1.2 0.3 0.2
v -1 0.3 0.2
v -1 0.8 0.2
v -0.9 0 0.2
v -0.9 0.3 0.2
v -0.9 0.8 0.2
v -0.9 1.1 0.2
v 1 0 0.2
v 1 0.1 0.2
v 1 0.3 0.2
v 1 1.1 0.2
v 1.1 0.1 0.2
v 1.1 0.3 0.2
v 1.1 0.4 0.2
v 1.1 0.8 0.2
v 1.2 0.4 0.2
v 1.2 0.8 0.2
v 1.4 0 0.2
v 1.4 1.1 0.2
v -1.3 0 -1
v -1.3 1.1 -1
v -1 0.7 -1
v -1 1 -1
v -0.9 0 -1
v -0.9 0.7 -1
v -0.9 1 -1
v -0.9 1.1 -1
v 1 0 -1
v 1 0.5 -1
v 1 0.8 -1
v 1 1.1 -1
v 1.1 0.5 -1
v 1.1 0.8 -1
v 1.3 0.2 -1
v 1.3 0.5 -1
v 1.4 0 -1
v 1.4 0.2 -1
v 1.4 0.5 -1
v 1.4 1.1 -1
v -1.4 1.1 -1.2
v -1.4 1.3 -1.2
v 1.5 1.1 -1.2
v 1.5 1.3 -1.2
v -1.3 0 0.5
v -1 0 0.5
v -0.9 0 0.5
v 1 0 0.5
v 1.3 0 0.5
v 1.4 0 0.5
v -1.3 0 0.4
v -1.2 0 0.4
v -1 0 0.4
v -0.9 0 0.4
v 1.3 0 0.4
v 1.4 0 0.4
v -1.3 0 0.2
v -1.2 0 0.2
v -0.9 0 0.2
v 1 0 0.2
v 1.4 0 0.2
v -1.3 0 -0.7
v -1 0 -0.7
v -0.9 0 -0.7
v 1 0 -0.7
v 1.4 0 -0.7
v -1 0 -0.8
v -0.9 0 -0.8
v 1 0 -0.8
v 1.1 0 -0.8
v 1 0 -0.9
v 1.1 0 -0.9
v -1.3 0 -1
v -0.9 0 -1
v 1 0 -1
v 1.4 0 -1
v -1.4 1.1 0.7
v 1.5 1.1 0.7
v -1.3 1.1 0.5
v -0.9 1.1 0.5
v 1 1.1 0.5
v 1.4 1.1 0.5
v -1.3 1.1 0.2
v -0.9 1.1 0.2
v 1 1.1 0.2
v 1.4 1.1 0.2
v -1.3 1.1 -0.7
v -1.2 1.1 -0.7
v -0.9 1.1 -0.7
v 1 1.1 -0.7
v 1.4 1.1 -0.7
v -1.3 1.1 -0.8
v -1.3 1.1 -1
v -0.9 1.1 -1
v 1 1.1 -1
v 1.4 1.1 -1
v -1.4 1.1 -1.2
v 1.5 1.1 -1.2
v -1.4 1.3 0.7
v 1.5 1.3 0.7
v -1.3 1.3 0.6
v -1.2 1.3 0.6
v -1 1.3 0.6
v -0.9 1.3 0.6
v -0.8 1.3 0.6
v -0.7 1.3 0.6
v -0.6 1.3 0.6
v -0.5 1.3 0.6
v -0.3 1.3 0.6
v -0.2 1.3 0.6
v 0 1.3 0.6
v 0.1 1.3 0.6
v 0.3 1.3 0.6
v 0.4 1.3 0.6
v 0.6 1.3 0.6
v 0.7 1.3 0.6
v 0.8 1.3 0.6
v 0.9 1.3 0.6
v 1 1.3 0.6
v 1.1 1.3 0.6
v 1.3 1.3 0.6
v 1.4 1.3 0.6
v 0.3 1.3 0.5
v 0.4 1.3 0.5
v 0.8 1.3 0.5
v 0.9 1.3 0.5
v 1 1.3 0.5
v 1.1 1.3 0.5
v 1.3 1.3 0.5
v 1.4 1.3 0.5
v 0 1.3 0.2
v 0.1 1.3 0.2
v 0.8 1.3 0.2
v 0.9 1.3 0.2
v 0.6 1.3 0.1
v 0.7 1.3 0.1
v -0.8 1.3 -5.96046e-08
v -0.7 1.3 -5.96046e-08
v -0.3 1.3 -0.1
v -0.2 1.3 -0.1
v -0.6 1.3 -0.2
v -0.5 1.3 -0.2
v 0.8 1.3 -0.2
v 0.9 1.3 -0.2
v -0.8 1.3 -0.3
v -0.7 1.3 -0.3
v -1 1.3 -0.4
v -0.9 1.3 -0.4
v -0.6 1.3 -0.4
v -0.5 1.3 -0.4
v -1 1.3 -0.5
v -0.9 1.3 -0.5
v -0.3 1.3 -0.5
v -0.2 1.3 -0.5
v 0.3 1.3 -0.5
v 0.4 1.3 -0.5
v 0.8 1.3 -0.7
v 0.9 1.3 -0.7
v -0.8 1.3 -0.9
v -0.7 1.3 -0.9
v 1 1.3 -0.9
v 1.1 1.3 -0.9
v -0.3 1.3 -1
v -0.2 1.3 -1
v 1.3 1.3 -1
v 1.4 1.3 -1
v -1.3 1.3 -1.1
v -1.2 1.3 -1.1
v -1 1.3 -1.1
v -0.9 1.3 -1.1
v -0.8 1.3 -1.1
v -0.7 1.3 -1.1
v -0.6 1.3 -1.1
v -0.5 1.3 -1.1
v -0.3 1.3 -1.1
v -0.2 1.3 -1.1
v 0 1.3 -1.1
v 0.1 1.3 -1.1
v 0.3 1.3 -1.1
v 0.4 1.3 -1.1
v 0.6 1.3 -1.1
v 0.7 1.3 -1.1
v 0.8 1.3 -1.1
v 0.9 1.3 -1.1
v 1 1.3 -1.1
v 1.1 1.3 -1.1
v 1.3 1.3 -1.1
v 1.4 1.3 -1.1
v -1.4 1.3 -1.2
v 1.5 1.3 -1.2

# faces
f 3/3/1 2/3/1 1/3/1
f 4/3/1 2/3/1 3/3/1
f 10/1/1 6/1/1 5/1/1
f 10/2/1 7/2/1 6/2/1
f 11/2/1 7/2/1 10/2/1
f 12/1/1 10/1/1 5/1/1
f 12/1/1 11/1/1 10/1/1
f 13/1/1 11/1/1 12/1/1
f 14/2/1 13/2/1 12/2/1
f 15/1/1 11/1/1 13/1/1
f 15/2/1 13/2/1 14/2/1
f 16/1/1 9/1/1 8/1/1
f 17/1/1 9/1/1 16/1/1
f 18/1/1 15/1/1 14/1/1
f 19/1/1 11/1/1 15/1/1
f 19/1/1 15/1/1 18/1/1
f 20/2/1 17/2/1 16/2/1
f 21/1/1 9/1/1 17/1/1
f 21/2/1 17/2/1 20/2/1
f 22/1/1 9/1/1 21/1/1
f 29/1/1 24/1/1 23/1/1
f 30/1/1 24/1/1 29/1/1
f 31/1/1 29/1/1 23/1/1
f 31/2/1 30/2/1 29/2/1
f 32/2/1 30/2/1 31/2/1
f 33/1/1 26/1/1 25/1/1
f 33/2/1 27/2/1 26/2/1
f 34/1/1 28/1/1 27/1/1
f 34/2/1 27/2/1 33/2/1
f 35/1/1 32/1/1 31/1/1
f 35/1/1 31/1/1 23/1/1
f 36/1/1 32/1/1 35/1/1
f 37/1/1 33/1/1 25/1/1
f 37/1/1 34/1/1 33/1/1
f 38/1/1 28/1/1 34/1/1
f 38/1/1 34/1/1 37/1/1
f 39/1/1 37/1/1 25/1/1
f 39/2/1 38/2/1 37/2/1
f 40/2/1 38/2/1 39/2/1
f 41/2/1 36/2/1 35/2/1
f 42/1/1 32/1/1 36/1/1
f 42/2/1 36/2/1 41/2/1
f 43/1/1 42/1/1 41/1/1
f 44/1/1 32/1/1 42/1/1
f 44/1/1 42/1/1 43/1/1
f 45/1/1 39/1/1 25/1/1
f 45/1/1 40/1/1 39/1/1
f 46/1/1 40/1/1 45/1/1
f 48/1/2 49/1/2 53/1/2
f 53/1/2 49/1/2 54/1/2
f 50/2/2 51/2/2 55/2/2
f 51/1/2 52/1/2 56/1/2
f 55/2/2 51/2/2 56/2/2
f 47/2/2 48/2/2 57/2/2
f 48/1/2 53/1/2 58/1/2
f 57/2/2 48/2/2 58/2/2
f 56/1/2 52/1/2 59/1/2
f 55/1/2 56/1/2 59/1/2
f 59/1/2 52/1/2 60/1/2
f 58/1/2 53/1/2 61/1/2
f 53/2/2 54/2/2 61/2/2
f 57/1/2 58/1/2 61/1/2
f 61/2/2 54/2/2 62/2/2
f 59/2/2 60/2/2 63/2/2
f 55/1/2 59/1/2 63/1/2
f 63/2/2 60/2/2 64/2/2
f 61/1/2 62/1/2 65/1/2
f 57/1/2 61/1/2 65/1/2
f 65/1/2 62/1/2 66/1/2
f 63/1/2 64/1/2 67/1/2
f 55/1/2 63/1/2 67/1/2
f 67/1/2 64/1/2 68/1/2
f 72/1/2 73/1/2 74/1/2
f 74/1/2 73/1/2 75/1/2
f 69/2/2 70/2/2 76/2/2
f 70/1/2 71/1/2 77/1/2
f 76/2/2 70/2/2 77/2/2
f 76/1/2 77/1/2 78/1/2
f 77/1/2 71/1/2 78/1/2
f 78/1/2 71/1/2 79/1/2
f 72/1/2 74/1/2 80/1/2
f 74/2/2 75/2/2 80/2/2
f 80/2/2 75/2/2 81/2/2
f 78/2/2 79/2/2 82/2/2
f 76/1/2 78/1/2 82/1/2
f 79/1/2 71/1/2 83/1/2
f 82/2/2 79/2/2 83/2/2
f 76/1/2 82/1/2 84/1/2
f 82/1/2 83/1/2 84/1/2
f 83/1/2 71/1/2 85/1/2
f 84/1/2 83/1/2 85/1/2
f 80/1/2 81/1/2 86/1/2
f 72/1/2 80/1/2 86/1/2
f 86/1/2 81/1/2 87/1/2
f 88/3/2 89/3/2 90/3/2
f 90/3/2 89/3/2 91/3/2
f 94/3/3 93/3/3 92/3/3
f 95/3/3 93/3/3 94/3/3
f 100/1/3 97/1/3 96/1/3
f 100/2/3 98/2/3 97/2/3
f 101/1/3 99/1/3 98/1/3
f 101/2/3 98/2/3 100/2/3
f 102/1/3 100/1/3 96/1/3
f 102/1/3 101/1/3 100/1/3
f 103/1/3 101/1/3 102/1/3
f 104/2/3 103/2/3 102/2/3
f 105/1/3 101/1/3 103/1/3
f 105/2/3 103/2/3 104/2/3
f 106/1/3 99/1/3 101/1/3
f 106/1/3 101/1/3 105/1/3
f 111/1/3 108/1/3 107/1/3
f 111/2/3 109/2/3 108/2/3
f 112/1/3 110/1/3 109/1/3
f 112/2/3 109/2/3 111/2/3
f 113/1/3 111/1/3 107/1/3
f 113/1/3 112/1/3 111/1/3
f 114/1/3 112/1/3 113/1/3
f 115/2/3 114/2/3 113/2/3
f 116/1/3 112/1/3 114/1/3
f 116/2/3 114/2/3 115/2/3
f 117/1/3 110/1/3 112/1/3
f 117/1/3 112/1/3 116/1/3
f 121/1/3 119/1/3 118/1/3
f 121/2/3 120/2/3 119/2/3
f 122/2/3 120/2/3 121/2/3
f 123/1/3 121/1/3 118/1/3
f 123/1/3 122/1/3 121/1/3
f 124/1/3 122/1/3 123/1/3
f 125/1/3 123/1/3 118/1/3
f 126/2/3 124/2/3 123/2/3
f 126/1/3 123/1/3 125/1/3
f 127/2/3 124/2/3 126/2/3
f 128/1/3 122/1/3 124/1/3
f 128/2/3 124/2/3 127/2/3
f 129/2/3 127/2/3 126/2/3
f 129/2/3 126/2/3 125/2/3
f 130/1/3 128/1/3 127/1/3
f 130/2/3 127/2/3 129/2/3
f 131/1/3 122/1/3 128/1/3
f 131/1/3 128/1/3 130/1/3
f 134/1/3 133/1/3 132/1/3
f 135/1/3 133/1/3 134/1/3
f 136/2/4 137/2/4 139/2/4
f 137/1/4 138/1/4 140/1/4
f 139/2/4 137/2/4 140/2/4
f 139/1/4 140/1/4 141/1/4
f 140/1/4 138/1/4 141/1/4
f 141/1/4 138/1/4 142/1/4
f 139/1/4 141/1/4 143/1/4
f 141/2/4 142/2/4 144/2/4
f 143/1/4 141/1/4 144/1/4
f 142/1/4 138/1/4 145/1/4
f 144/2/4 142/2/4 145/2/4
f 145/1/4 138/1/4 146/1/4
f 147/1/4 148/1/4 151/1/4
f 148/2/4 149/2/4 151/2/4
f 149/1/4 150/1/4 152/1/4
f 151/2/4 149/2/4 152/2/4
f 152/1/4 150/1/4 153/1/4
f 153/1/4 150/1/4 154/1/4
f 151/1/4 152/1/4 155/1/4
f 152/1/4 153/1/4 155/1/4
f 153/2/4 154/2/4 155/2/4
f 154/1/4 150/1/4 156/1/4
f 155/2/4 154/2/4 156/2/4
f 147/1/4 151/1/4 157/1/4
f 151/1/4 155/1/4 157/1/4
f 155/1/4 156/1/4 157/1/4
f 156/1/4 150/1/4 158/1/4
f 157/1/4 156/1/4 158/1/4
f 159/1/4 160/1/4 161/1/4
f 161/1/4 160/1/4 162/1/4
f 159/1/4 161/1/4 163/1/4
f 161/2/4 162/2/4 164/2/4
f 163/1/4 161/1/4 164/1/4
f 162/1/4 160/1/4 165/1/4
f 164/2/4 162/2/4 165/2/4
f 165/1/4 160/1/4 166/1/4
f 167/1/4 168/1/4 171/1/4
f 168/2/4 169/2/4 171/2/4
f 169/1/4 170/1/4 172/1/4
f 171/2/4 169/2/4 172/2/4
f 167/1/4 171/1/4 173/1/4
f 171/1/4 172/1/4 173/1/4
f 173/1/4 172/1/4 174/1/4
f 167/1/4 173/1/4 175/1/4
f 173/2/4 174/2/4 176/2/4
f 175/1/4 173/1/4 176/1/4
f 174/1/4 172/1/4 177/1/4
f 176/2/4 174/2/4 177/2/4
f 172/1/4 170/1/4 178/1/4
f 177/1/4 172/1/4 178/1/4
f 179/3/4 180/3/4 181/3/4
f 181/3/4 180/3/4 182/3/4
f 189/1/5 184/1/5 183/1/5
f 190/1/5 184/1/5 189/1/5
f 191/2/5 185/2/5 184/2/5
f 191/1/5 184/1/5 190/1/5
f 192/2/5 185/2/5 191/2/5
f 193/2/5 188/2/5 187/2/5
f 193/1/5 187/1/5 186/1/5
f 194/2/5 188/2/5 193/2/5
f 195/2/5 190/2/5 189/2/5
f 196/1/5 192/1/5 191/1/5
f 196/2/5 190/2/5 195/2/5
f 196/1/5 191/1/5 190/1/5
f 197/1/5 192/1/5 196/1/5
f 198/1/5 194/1/5 193/1/5
f 198/1/5 193/1/5 186/1/5
f 199/1/5 194/1/5 198/1/5
f 205/1/5 201/1/5 200/1/5
f 205/2/5 202/2/5 201/2/5
f 206/2/5 202/2/5 205/2/5
f 207/1/5 204/1/5 203/1/5
f 208/1/5 204/1/5 207/1/5
f 209/2/5 208/2/5 207/2/5
f 210/1/5 204/1/5 208/1/5
f 210/2/5 208/2/5 209/2/5
f 211/1/5 206/1/5 205/1/5
f 211/1/5 205/1/5 200/1/5
f 212/1/5 206/1/5 211/1/5
f 213/1/5 210/1/5 209/1/5
f 214/1/5 204/1/5 210/1/5
f 214/1/5 210/1/5 213/1/5
f 217/3/5 216/3/5 215/3/5
f 218/3/5 216/3/5 217/3/5
f 219/3/5 216/3/5 218/3/5
f 220/3/5 216/3/5 219/3/5
f 221/3/5 217/3/5 215/3/5
f 222/3/5 219/3/5 218/3/5
f 223/3/5 219/3/5 222/3/5
f 224/3/5 216/3/5 220/3/5
f 225/3/5 223/3/5 222/3/5
f 225/3/5 224/3/5 223/3/5
f 225/3/5 221/3/5 215/3/5
f 225/3/5 222/3/5 221/3/5
f 226/3/5 224/3/5 225/3/5
f 227/3/5 224/3/5 226/3/5
f 228/3/5 224/3/5 227/3/5
f 229/3/5 216/3/5 224/3/5
f 229/3/5 224/3/5 228/3/5
f 230/3/5 225/3/5 215/3/5
f 231/3/5 230/3/5 215/3/5
f 232/3/5 228/3/5 227/3/5
f 233/3/5 228/3/5 232/3/5
f 234/3/5 216/3/5 229/3/5
f 235/3/5 231/3/5 215/3/5
f 235/3/5 234/3/5 233/3/5
f 235/3/5 233/3/5 232/3/5
f 235/3/5 232/3/5 231/3/5
f 236/3/5 216/3/5 234/3/5
f 236/3/5 234/3/5 235/3/5
f 237/3/6 238/3/6 239/3/6
f 239/3/6 238/3/6 240/3/6
f 240/3/6 238/3/6 241/3/6
f 241/3/6 238/3/6 242/3/6
f 242/3/6 238/3/6 243/3/6
f 243/3/6 238/3/6 244/3/6
f 244/3/6 238/3/6 245/3/6
f 245/3/6 238/3/6 246/3/6
f 246/3/6 238/3/6 247/3/6
f 247/3/6 238/3/6 248/3/6
f 248/3/6 238/3/6 249/3/6
f 249/3/6 238/3/6 250/3/6
f 250/3/6 238/3/6 251/3/6
f 251/3/6 238/3/6 252/3/6
f 252/3/6 238/3/6 253/3/6
f 253/3/6 238/3/6 254/3/6
f 254/3/6 238/3/6 255/3/6
f 255/3/6 238/3/6 256/3/6
f 256/3/6 238/3/6 257/3/6
f 257/3/6 238/3/6 258/3/6
f 258/3/6 238/3/6 259/3/6
f 259/3/6 238/3/6 260/3/6
f 250/3/6 251/3/6 261/3/6
f 251/2/6 252/2/6 261/2/6
f 252/3/6 253/3/6 262/3/6
f 261/2/6 252/2/6 262/2/6
f 254/3/6 255/3/6 263/3/6
f 255/2/6 256/2/6 263/2/6
f 256/3/6 257/3/6 264/3/6
f 263/2/6 256/2/6 264/2/6
f 257/2/6 258/2/6 265/2/6
f 264/3/6 257/3/6 265/3/6
f 258/3/6 259/3/6 266/3/6
f 265/2/6 258/2/6 266/2/6
f 259/2/6 260/2/6 267/2/6
f 266/3/6 259/3/6 267/3/6
f 260/3/6 238/3/6 268/3/6
f 267/2/6 260/2/6 268/2/6
f 248/3/6 249/3/6 269/3/6
f 249/2/6 250/2/6 269/2/6
f 250/3/6 261/3/6 270/3/6
f 269/2/6 250/2/6 270/2/6
f 254/3/6 263/3/6 271/3/6
f 263/4/6 264/4/6 271/4/6
f 264/3/6 265/3/6 272/3/6
f 271/4/6 264/4/6 272/4/6
f 253/2/6 254/2/6 273/2/6
f 262/3/6 253/3/6 273/3/6
f 254/3/6 271/3/6 274/3/6
f 273/2/6 254/2/6 274/2/6
f 242/3/6 243/3/6 275/3/6
f 243/4/6 244/4/6 275/4/6
f 244/3/6 245/3/6 276/3/6
f 275/4/6 244/4/6 276/4/6
f 246/3/6 247/3/6 277/3/6
f 247/4/6 248/4/6 277/4/6
f 248/3/6 269/3/6 278/3/6
f 277/4/6 248/4/6 278/4/6
f 245/4/6 246/4/6 279/4/6
f 276/3/6 245/3/6 279/3/6
f 246/3/6 277/3/6 280/3/6
f 279/4/6 246/4/6 280/4/6
f 274/3/6 271/3/6 281/3/6
f 271/2/6 272/2/6 281/2/6
f 272/3/6 265/3/6 282/3/6
f 281/2/6 272/2/6 282/2/6
f 242/3/6 275/3/6 283/3/6
f 275/2/6 276/2/6 283/2/6
f 276/3/6 279/3/6 284/3/6
f 283/2/6 276/2/6 284/2/6
f 240/3/6 241/3/6 285/3/6
f 241/4/6 242/4/6 285/4/6
f 242/3/6 283/3/6 286/3/6
f 285/4/6 242/4/6 286/4/6
f 284/3/6 279/3/6 287/3/6
f 279/2/6 280/2/6 287/2/6
f 280/3/6 277/3/6 288/3/6
f 287/2/6 280/2/6 288/2/6
f 240/3/6 285/3/6 289/3/6
f 285/2/6 286/2/6 289/2/6
f 286/3/6 283/3/6 290/3/6
f 289/2/6 286/2/6 290/2/6
f 277/2/6 278/2/6 291/2/6
f 288/3/6 277/3/6 291/3/6
f 278/3/6 269/3/6 292/3/6
f 291/2/6 278/2/6 292/2/6
f 261/4/6 262/4/6 293/4/6
f 270/3/6 261/3/6 293/3/6
f 262/3/6 273/3/6 294/3/6
f 293/4/6 262/4/6 294/4/6
f 281/4/6 282/4/6 295/4/6
f 274/3/6 281/3/6 295/3/6
f 282/3/6 265/3/6 296/3/6
f 295/4/6 282/4/6 296/4/6
f 283/4/6 284/4/6 297/4/6
f 290/3/6 283/3/6 297/3/6
f 284/3/6 287/3/6 298/3/6
f 297/4/6 284/4/6 298/4/6
f 296/3/6 265/3/6 299/3/6
f 265/4/6 266/4/6 299/4/6
f 266/3/6 267/3/6 300/3/6
f 299/4/6 266/4/6 300/4/6
f 288/3/6 291/3/6 301/3/6
f 291/4/6 292/4/6 301/4/6
f 292/3/6 269/3/6 302/3/6
f 301/4/6 292/4/6 302/4/6
f 300/3/6 267/3/6 303/3/6
f 267/4/6 268/4/6 303/4/6
f 268/3/6 238/3/6 304/3/6
f 303/4/6 268/4/6 304/4/6
f 237/3/6 239/3/6 305/3/6
f 239/4/6 240/4/6 305/4/6
f 240/3/6 289/3/6 306/3/6
f 305/4/6 240/4/6 306/4/6
f 289/4/6 290/4/6 307/4/6
f 306/3/6 289/3/6 307/3/6
f 290/3/6 297/3/6 308/3/6
f 307/4/6 290/4/6 308/4/6
f 297/2/6 298/2/6 309/2/6
f 308/3/6 297/3/6 309/3/6
f 298/3/6 287/3/6 310/3/6
f 309/2/6 298/2/6 310/2/6
f 287/4/6 288/4/6 311/4/6
f 310/3/6 287/3/6 311/3/6
f 288/3/6 301/3/6 312/3/6
f 311/4/6 288/4/6 312/4/6
f 301/2/6 302/2/6 313/2/6
f 312/3/6 301/3/6 313/3/6
f 302/3/6 269/3/6 314/3/6
f 313/2/6 302/2/6 314/2/6
f 269/4/6 270/4/6 315/4/6
f 314/3/6 269/3/6 315/3/6
f 270/3/6 293/3/6 316/3/6
f 315/4/6 270/4/6 316/4/6
f 293/2/6 294/2/6 317/2/6
f 316/3/6 293/3/6 317/3/6
f 294/3/6 273/3/6 318/3/6
f 317/2/6 294/2/6 318/2/6
f 273/4/6 274/4/6 319/4/6
f 318/3/6 273/3/6 319/3/6
f 274/3/6 295/3/6 320/3/6
f 319/4/6 274/4/6 320/4/6
f 295/2/6 296/2/6 321/2/6
f 320/3/6 295/3/6 321/3/6
f 296/3/6 299/3/6 322/3/6
f 321/2/6 296/2/6 322/2/6
f 299/2/6 300/2/6 323/2/6
f 322/3/6 299/3/6 323/3/6
f 300/3/6 303/3/6 324/3/6
f 323/2/6 300/2/6 324/2/6
f 303/2/6 304/2/6 325/2/6
f 324/3/6 303/3/6 325/3/6
f 304/3/6 238/3/6 326/3/6
f 325/2/6 304/2/6 326/2/6
f 324/3/6 325/3/6 327/3/6
f 323/3/6 324/3/6 327/3/6
f 325/3/6 326/3/6 327/3/6
f 314/3/6 315/3/6 327/3/6
f 313/3/6 314/3/6 327/3/6
f 321/3/6 322/3/6 327/3/6
f 310/3/6 311/3/6 327/3/6
f 309/3/6 310/3/6 327/3/6
f 315/3/6 316/3/6 327/3/6
f 305/3/6 306/3/6 327/3/6
f 307/3/6 308/3/6 327/3/6
f 320/3/6 321/3/6 327/3/6
f 311/3/6 312/3/6 327/3/6
f 322/3/6 323/3/6 327/3/6
f 316/3/6 317/3/6 327/3/6
f 319/3/6 320/3/6 327/3/6
f 312/3/6 313/3/6 327/3/6
f 318/3/6 319/3/6 327/3/6
f 317/3/6 318/3/6 327/3/6
f 306/3/6 307/3/6 327/3/6
f 308/3/6 309/3/6 327/3/6
f 237/3/6 305/3/6 327/3/6
f 326/3/6 238/3/6 328/3/6
f 327/3/6 326/3/6 328/3/6
