# MagicaVoxel @ Ephtracy

# group
o 

# material
mtllib karmackih_VR_red_grib.mtl
usemtl palette

# normals
vn -1 0 0
vn 1 0 0
vn 0 0 1
vn 0 0 -1
vn 0 -1 0
vn 0 1 0

# texcoords
vt 0.00195312 0.5
vt 0.841797 0.5
vt 0.958984 0.5

# verts
v -0.7 0.6 -0.4
v -0.7 0.6 -0.6
v -0.7 0.6 -0.7
v -0.7 0.6 -0.8
v -0.7 0.7 -0.4
v -0.7 0.7 -0.6
v -0.7 0.7 -0.7
v -0.7 0.7 -0.8
v -0.6 0 -0.5
v -0.6 0 -0.6
v -0.6 0 -0.7
v -0.6 0.1 -0.5
v -0.6 0.1 -0.6
v -0.6 0.1 -0.7
v -0.6 0.6 -0.3
v -0.6 0.6 -0.4
v -0.6 0.6 -0.8
v -0.6 0.6 -0.9
v -0.6 0.7 -0.3
v -0.6 0.7 -0.4
v -0.6 0.7 -0.5
v -0.6 0.7 -0.6
v -0.6 0.7 -0.7
v -0.6 0.7 -0.8
v -0.6 0.7 -0.9
v -0.6 0.8 -0.4
v -0.6 0.8 -0.5
v -0.6 0.8 -0.6
v -0.6 0.8 -0.8
v -0.5 0 -0.4
v -0.5 0 -0.5
v -0.5 0 -0.7
v -0.5 0 -0.8
v -0.5 0.1 -0.4
v -0.5 0.1 -0.5
v -0.5 0.1 -0.6
v -0.5 0.1 -0.7
v -0.5 0.1 -0.8
v -0.5 0.2 -0.6
v -0.5 0.2 -0.7
v -0.5 0.4 -0.5
v -0.5 0.4 -0.6
v -0.5 0.6 -0.5
v -0.5 0.6 -0.6
v -0.5 0.6 -0.7
v -0.3 0 -0.4
v -0.3 0 -0.5
v -0.3 0 -0.7
v -0.3 0 -0.8
v -0.3 0.1 -0.4
v -0.3 0.1 -0.5
v -0.3 0.1 -0.6
v -0.3 0.1 -0.7
v -0.3 0.1 -0.8
v -0.3 0.2 -0.5
v -0.3 0.2 -0.7
v -0.3 0.3 -0.6
v -0.3 0.3 -0.7
v -0.3 0.5 -0.5
v -0.3 0.5 -0.6
v -0.3 0.6 -0.5
v -0.3 0.6 -0.7
v -0.2 0 -0.5
v -0.2 0 -0.6
v -0.2 0 -0.7
v -0.2 0.1 -0.5
v -0.2 0.1 -0.6
v -0.2 0.1 -0.7
v -0.2 0.6 -0.3
v -0.2 0.6 -0.4
v -0.2 0.6 -0.8
v -0.2 0.6 -0.9
v -0.2 0.7 -0.3
v -0.2 0.7 -0.4
v -0.2 0.7 -0.5
v -0.2 0.7 -0.6
v -0.2 0.7 -0.7
v -0.2 0.7 -0.8
v -0.2 0.7 -0.9
v -0.2 0.8 -0.4
v -0.2 0.8 -0.5
v -0.2 0.8 -0.8
v -0.1 0.6 -0.4
v -0.1 0.6 -0.6
v -0.1 0.6 -0.7
v -0.1 0.6 -0.8
v -0.1 0.7 -0.4
v -0.1 0.7 -0.6
v -0.1 0.7 -0.7
v -0.1 0.7 -0.8
v -0.6 0.6 -0.3
v -0.6 0.7 -0.3
v -0.5 0.6 -0.3
v -0.5 0.7 -0.3
v -0.4 0.6 -0.3
v -0.4 0.7 -0.3
v -0.2 0.6 -0.3
v -0.2 0.7 -0.3
v -0.7 0.6 -0.4
v -0.7 0.7 -0.4
v -0.6 0.6 -0.4
v -0.6 0.7 -0.4
v -0.6 0.8 -0.4
v -0.5 0 -0.4
v -0.5 0.1 -0.4
v -0.5 0.7 -0.4
v -0.4 0 -0.4
v -0.4 0.1 -0.4
v -0.4 0.7 -0.4
v -0.3 0 -0.4
v -0.3 0.1 -0.4
v -0.3 0.7 -0.4
v -0.3 0.8 -0.4
v -0.2 0.6 -0.4
v -0.2 0.7 -0.4
v -0.2 0.8 -0.4
v -0.1 0.6 -0.4
v -0.1 0.7 -0.4
v -0.6 0 -0.5
v -0.6 0.1 -0.5
v -0.5 0 -0.5
v -0.5 0.1 -0.5
v -0.5 0.4 -0.5
v -0.5 0.6 -0.5
v -0.4 0.1 -0.5
v -0.4 0.2 -0.5
v -0.4 0.4 -0.5
v -0.4 0.5 -0.5
v -0.3 0 -0.5
v -0.3 0.1 -0.5
v -0.3 0.2 -0.5
v -0.3 0.5 -0.5
v -0.3 0.6 -0.5
v -0.2 0 -0.5
v -0.2 0.1 -0.5
v -0.6 0 -0.7
v -0.6 0.1 -0.7
v -0.5 0 -0.7
v -0.5 0.1 -0.7
v -0.5 0.2 -0.7
v -0.5 0.6 -0.7
v -0.4 0.1 -0.7
v -0.4 0.3 -0.7
v -0.4 0.6 -0.7
v -0.3 0 -0.7
v -0.3 0.1 -0.7
v -0.3 0.2 -0.7
v -0.3 0.3 -0.7
v -0.3 0.6 -0.7
v -0.2 0 -0.7
v -0.2 0.1 -0.7
v -0.7 0.6 -0.8
v -0.7 0.7 -0.8
v -0.6 0.6 -0.8
v -0.6 0.7 -0.8
v -0.6 0.8 -0.8
v -0.5 0 -0.8
v -0.5 0.1 -0.8
v -0.5 0.7 -0.8
v -0.4 0 -0.8
v -0.4 0.1 -0.8
v -0.4 0.7 -0.8
v -0.4 0.8 -0.8
v -0.3 0 -0.8
v -0.3 0.1 -0.8
v -0.3 0.7 -0.8
v -0.3 0.8 -0.8
v -0.2 0.6 -0.8
v -0.2 0.7 -0.8
v -0.2 0.8 -0.8
v -0.1 0.6 -0.8
v -0.1 0.7 -0.8
v -0.6 0.6 -0.9
v -0.6 0.7 -0.9
v -0.5 0.6 -0.9
v -0.5 0.7 -0.9
v -0.2 0.6 -0.9
v -0.2 0.7 -0.9
v -0.5 0 -0.4
v -0.4 0 -0.4
v -0.3 0 -0.4
v -0.6 0 -0.5
v -0.5 0 -0.5
v -0.4 0 -0.5
v -0.3 0 -0.5
v -0.2 0 -0.5
v -0.6 0 -0.6
v -0.5 0 -0.6
v -0.3 0 -0.6
v -0.2 0 -0.6
v -0.6 0 -0.7
v -0.5 0 -0.7
v -0.4 0 -0.7
v -0.3 0 -0.7
v -0.2 0 -0.7
v -0.5 0 -0.8
v -0.4 0 -0.8
v -0.3 0 -0.8
v -0.6 0.6 -0.3
v -0.5 0.6 -0.3
v -0.4 0.6 -0.3
v -0.2 0.6 -0.3
v -0.7 0.6 -0.4
v -0.6 0.6 -0.4
v -0.5 0.6 -0.4
v -0.4 0.6 -0.4
v -0.2 0.6 -0.4
v -0.1 0.6 -0.4
v -0.5 0.6 -0.5
v -0.3 0.6 -0.5
v -0.7 0.6 -0.6
v -0.6 0.6 -0.6
v -0.5 0.6 -0.6
v -0.2 0.6 -0.6
v -0.1 0.6 -0.6
v -0.7 0.6 -0.7
v -0.6 0.6 -0.7
v -0.5 0.6 -0.7
v -0.4 0.6 -0.7
v -0.3 0.6 -0.7
v -0.2 0.6 -0.7
v -0.1 0.6 -0.7
v -0.7 0.6 -0.8
v -0.6 0.6 -0.8
v -0.5 0.6 -0.8
v -0.2 0.6 -0.8
v -0.1 0.6 -0.8
v -0.6 0.6 -0.9
v -0.5 0.6 -0.9
v -0.2 0.6 -0.9
v -0.5 0.1 -0.4
v -0.4 0.1 -0.4
v -0.3 0.1 -0.4
v -0.6 0.1 -0.5
v -0.5 0.1 -0.5
v -0.4 0.1 -0.5
v -0.3 0.1 -0.5
v -0.2 0.1 -0.5
v -0.6 0.1 -0.6
v -0.5 0.1 -0.6
v -0.3 0.1 -0.6
v -0.2 0.1 -0.6
v -0.6 0.1 -0.7
v -0.5 0.1 -0.7
v -0.4 0.1 -0.7
v -0.3 0.1 -0.7
v -0.2 0.1 -0.7
v -0.5 0.1 -0.8
v -0.4 0.1 -0.8
v -0.3 0.1 -0.8
v -0.6 0.7 -0.3
v -0.5 0.7 -0.3
v -0.4 0.7 -0.3
v -0.2 0.7 -0.3
v -0.7 0.7 -0.4
v -0.6 0.7 -0.4
v -0.5 0.7 -0.4
v -0.4 0.7 -0.4
v -0.3 0.7 -0.4
v -0.2 0.7 -0.4
v -0.1 0.7 -0.4
v -0.6 0.7 -0.5
v -0.2 0.7 -0.5
v -0.7 0.7 -0.6
v -0.6 0.7 -0.6
v -0.2 0.7 -0.6
v -0.1 0.7 -0.6
v -0.7 0.7 -0.7
v -0.6 0.7 -0.7
v -0.2 0.7 -0.7
v -0.1 0.7 -0.7
v -0.7 0.7 -0.8
v -0.6 0.7 -0.8
v -0.5 0.7 -0.8
v -0.4 0.7 -0.8
v -0.3 0.7 -0.8
v -0.2 0.7 -0.8
v -0.1 0.7 -0.8
v -0.6 0.7 -0.9
v -0.5 0.7 -0.9
v -0.2 0.7 -0.9
v -0.6 0.8 -0.4
v -0.3 0.8 -0.4
v -0.2 0.8 -0.4
v -0.6 0.8 -0.5
v -0.5 0.8 -0.5
v -0.3 0.8 -0.5
v -0.2 0.8 -0.5
v -0.6 0.8 -0.6
v -0.5 0.8 -0.6
v -0.4 0.8 -0.7
v -0.3 0.8 -0.7
v -0.6 0.8 -0.8
v -0.4 0.8 -0.8
v -0.3 0.8 -0.8
v -0.2 0.8 -0.8

# faces
f 5/2/1 2/2/1 1/2/1
f 6/3/1 3/3/1 2/3/1
f 6/2/1 2/2/1 5/2/1
f 7/2/1 4/2/1 3/2/1
f 7/3/1 3/3/1 6/3/1
f 8/2/1 4/2/1 7/2/1
f 12/3/1 10/3/1 9/3/1
f 13/1/1 11/1/1 10/1/1
f 13/3/1 10/3/1 12/3/1
f 14/1/1 11/1/1 13/1/1
f 19/2/1 16/2/1 15/2/1
f 20/2/1 16/2/1 19/2/1
f 24/3/1 18/3/1 17/3/1
f 25/3/1 18/3/1 24/3/1
f 26/2/1 21/2/1 20/2/1
f 27/3/1 22/3/1 21/3/1
f 27/2/1 21/2/1 26/2/1
f 28/2/1 23/2/1 22/2/1
f 28/3/1 22/3/1 27/3/1
f 28/2/1 24/2/1 23/2/1
f 29/2/1 24/2/1 28/2/1
f 34/1/1 31/1/1 30/1/1
f 35/1/1 31/1/1 34/1/1
f 37/1/1 33/1/1 32/1/1
f 38/1/1 33/1/1 37/1/1
f 39/3/1 36/3/1 35/3/1
f 39/1/1 37/1/1 36/1/1
f 40/1/1 37/1/1 39/1/1
f 41/3/1 39/3/1 35/3/1
f 41/3/1 40/3/1 39/3/1
f 42/3/1 40/3/1 41/3/1
f 43/1/1 42/1/1 41/1/1
f 44/3/1 40/3/1 42/3/1
f 44/1/1 42/1/1 43/1/1
f 45/3/1 40/3/1 44/3/1
f 46/3/2 47/3/2 50/3/2
f 50/3/2 47/3/2 51/3/2
f 48/3/2 49/3/2 53/3/2
f 53/3/2 49/3/2 54/3/2
f 51/1/2 52/1/2 55/1/2
f 52/1/2 53/1/2 55/1/2
f 55/1/2 53/1/2 56/1/2
f 55/3/2 56/3/2 57/3/2
f 57/3/2 56/3/2 58/3/2
f 55/3/2 57/3/2 59/3/2
f 57/1/2 58/1/2 60/1/2
f 59/3/2 57/3/2 60/3/2
f 59/1/2 60/1/2 61/1/2
f 60/1/2 58/1/2 62/1/2
f 61/1/2 60/1/2 62/1/2
f 63/1/2 64/1/2 66/1/2
f 64/3/2 65/3/2 67/3/2
f 66/1/2 64/1/2 67/1/2
f 67/3/2 65/3/2 68/3/2
f 69/2/2 70/2/2 73/2/2
f 73/2/2 70/2/2 74/2/2
f 71/2/2 72/2/2 78/2/2
f 78/2/2 72/2/2 79/2/2
f 74/3/2 75/3/2 80/3/2
f 76/2/2 77/2/2 81/2/2
f 80/3/2 75/3/2 81/3/2
f 77/2/2 78/2/2 81/2/2
f 75/2/2 76/2/2 81/2/2
f 81/2/2 78/2/2 82/2/2
f 83/2/2 84/2/2 87/2/2
f 84/3/2 85/3/2 88/3/2
f 87/2/2 84/2/2 88/2/2
f 85/2/2 86/2/2 89/2/2
f 88/3/2 85/3/2 89/3/2
f 89/2/2 86/2/2 90/2/2
f 93/2/3 92/2/3 91/2/3
f 94/2/3 92/2/3 93/2/3
f 95/3/3 94/3/3 93/3/3
f 96/3/3 94/3/3 95/3/3
f 97/2/3 96/2/3 95/2/3
f 98/2/3 96/2/3 97/2/3
f 101/2/3 100/2/3 99/2/3
f 102/2/3 100/2/3 101/2/3
f 106/2/3 103/2/3 102/2/3
f 107/1/3 105/1/3 104/1/3
f 108/1/3 105/1/3 107/1/3
f 109/2/3 103/2/3 106/2/3
f 110/3/3 108/3/3 107/3/3
f 111/3/3 108/3/3 110/3/3
f 112/2/3 103/2/3 109/2/3
f 113/2/3 103/2/3 112/2/3
f 115/3/3 113/3/3 112/3/3
f 116/3/3 113/3/3 115/3/3
f 117/2/3 115/2/3 114/2/3
f 118/2/3 115/2/3 117/2/3
f 121/3/3 120/3/3 119/3/3
f 122/3/3 120/3/3 121/3/3
f 125/3/3 123/3/3 122/3/3
f 126/3/3 123/3/3 125/3/3
f 127/1/3 124/1/3 123/1/3
f 127/3/3 123/3/3 126/3/3
f 128/1/3 124/1/3 127/1/3
f 130/1/3 126/1/3 125/1/3
f 131/3/3 127/3/3 126/3/3
f 131/3/3 128/3/3 127/3/3
f 131/1/3 126/1/3 130/1/3
f 132/1/3 124/1/3 128/1/3
f 132/3/3 128/3/3 131/3/3
f 133/1/3 124/1/3 132/1/3
f 134/1/3 130/1/3 129/1/3
f 135/1/3 130/1/3 134/1/3
f 136/1/4 137/1/4 138/1/4
f 138/1/4 137/1/4 139/1/4
f 139/1/4 140/1/4 142/1/4
f 140/3/4 141/3/4 143/3/4
f 143/3/4 141/3/4 144/3/4
f 142/1/4 140/1/4 146/1/4
f 140/3/4 143/3/4 147/3/4
f 146/1/4 140/1/4 147/1/4
f 143/1/4 144/1/4 148/1/4
f 147/3/4 143/3/4 148/3/4
f 148/1/4 144/1/4 149/1/4
f 145/3/4 146/3/4 150/3/4
f 150/3/4 146/3/4 151/3/4
f 152/2/4 153/2/4 154/2/4
f 154/2/4 153/2/4 155/2/4
f 155/2/4 156/2/4 159/2/4
f 157/1/4 158/1/4 160/1/4
f 160/1/4 158/1/4 161/1/4
f 159/2/4 156/2/4 162/2/4
f 162/2/4 156/2/4 163/2/4
f 160/3/4 161/3/4 164/3/4
f 164/3/4 161/3/4 165/3/4
f 162/3/4 163/3/4 166/3/4
f 166/3/4 163/3/4 167/3/4
f 166/2/4 167/2/4 169/2/4
f 169/2/4 167/2/4 170/2/4
f 168/2/4 169/2/4 171/2/4
f 171/2/4 169/2/4 172/2/4
f 173/3/4 174/3/4 175/3/4
f 175/3/4 174/3/4 176/3/4
f 175/2/4 176/2/4 177/2/4
f 177/2/4 176/2/4 178/2/4
f 183/1/5 180/1/5 179/1/5
f 184/3/5 181/3/5 180/3/5
f 184/1/5 180/1/5 183/1/5
f 185/3/5 181/3/5 184/3/5
f 187/3/5 183/3/5 182/3/5
f 188/1/5 186/1/5 185/1/5
f 188/3/5 183/3/5 187/3/5
f 188/1/5 184/1/5 183/1/5
f 188/1/5 185/1/5 184/1/5
f 189/1/5 186/1/5 188/1/5
f 190/1/5 186/1/5 189/1/5
f 191/1/5 188/1/5 187/1/5
f 191/1/5 189/1/5 188/1/5
f 192/1/5 189/1/5 191/1/5
f 193/1/5 189/1/5 192/1/5
f 194/3/5 190/3/5 189/3/5
f 194/1/5 189/1/5 193/1/5
f 195/3/5 190/3/5 194/3/5
f 196/1/5 193/1/5 192/1/5
f 197/3/5 194/3/5 193/3/5
f 197/1/5 193/1/5 196/1/5
f 198/3/5 194/3/5 197/3/5
f 204/2/5 200/2/5 199/2/5
f 205/3/5 201/3/5 200/3/5
f 205/2/5 200/2/5 204/2/5
f 206/2/5 202/2/5 201/2/5
f 206/3/5 201/3/5 205/3/5
f 207/2/5 202/2/5 206/2/5
f 209/2/5 205/2/5 204/2/5
f 209/2/5 208/2/5 207/2/5
f 209/2/5 207/2/5 206/2/5
f 209/2/5 206/2/5 205/2/5
f 209/2/5 204/2/5 203/2/5
f 210/2/5 208/2/5 209/2/5
f 211/2/5 209/2/5 203/2/5
f 212/2/5 209/2/5 211/2/5
f 213/2/5 209/2/5 212/2/5
f 214/2/5 208/2/5 210/2/5
f 215/2/5 208/2/5 214/2/5
f 216/3/5 212/3/5 211/3/5
f 217/2/5 213/2/5 212/2/5
f 217/3/5 212/3/5 216/3/5
f 218/2/5 213/2/5 217/2/5
f 220/2/5 214/2/5 210/2/5
f 221/3/5 215/3/5 214/3/5
f 221/2/5 214/2/5 220/2/5
f 222/3/5 215/3/5 221/3/5
f 223/2/5 219/2/5 218/2/5
f 223/2/5 220/2/5 219/2/5
f 223/2/5 222/2/5 221/2/5
f 223/2/5 221/2/5 220/2/5
f 223/2/5 217/2/5 216/2/5
f 223/2/5 218/2/5 217/2/5
f 224/2/5 222/2/5 223/2/5
f 225/2/5 222/2/5 224/2/5
f 226/2/5 222/2/5 225/2/5
f 227/2/5 222/2/5 226/2/5
f 228/3/5 225/3/5 224/3/5
f 229/2/5 226/2/5 225/2/5
f 229/3/5 225/3/5 228/3/5
f 230/2/5 226/2/5 229/2/5
f 231/1/6 232/1/6 235/1/6
f 232/3/6 233/3/6 236/3/6
f 235/1/6 232/1/6 236/1/6
f 236/3/6 233/3/6 237/3/6
f 234/3/6 235/3/6 239/3/6
f 239/3/6 235/3/6 240/3/6
f 237/1/6 238/1/6 241/1/6
f 241/1/6 238/1/6 242/1/6
f 239/1/6 240/1/6 243/1/6
f 243/1/6 240/1/6 244/1/6
f 241/3/6 242/3/6 246/3/6
f 246/3/6 242/3/6 247/3/6
f 244/1/6 245/1/6 248/1/6
f 245/3/6 246/3/6 249/3/6
f 248/1/6 245/1/6 249/1/6
f 249/3/6 246/3/6 250/3/6
f 251/2/6 252/2/6 256/2/6
f 252/3/6 253/3/6 257/3/6
f 256/2/6 252/2/6 257/2/6
f 253/2/6 254/2/6 258/2/6
f 257/3/6 253/3/6 258/3/6
f 258/2/6 254/2/6 259/2/6
f 259/2/6 254/2/6 260/2/6
f 255/2/6 256/2/6 262/2/6
f 260/2/6 261/2/6 263/2/6
f 255/2/6 262/2/6 264/2/6
f 264/2/6 262/2/6 265/2/6
f 263/2/6 261/2/6 266/2/6
f 266/2/6 261/2/6 267/2/6
f 264/3/6 265/3/6 268/3/6
f 268/3/6 265/3/6 269/3/6
f 266/3/6 267/3/6 270/3/6
f 270/3/6 267/3/6 271/3/6
f 268/2/6 269/2/6 272/2/6
f 272/2/6 269/2/6 273/2/6
f 270/2/6 271/2/6 277/2/6
f 277/2/6 271/2/6 278/2/6
f 273/3/6 274/3/6 279/3/6
f 275/2/6 276/2/6 280/2/6
f 279/3/6 274/3/6 280/3/6
f 276/2/6 277/2/6 280/2/6
f 274/2/6 275/2/6 280/2/6
f 280/2/6 277/2/6 281/2/6
f 282/2/6 283/2/6 285/2/6
f 285/2/6 283/2/6 286/2/6
f 283/3/6 284/3/6 287/3/6
f 286/2/6 283/2/6 287/2/6
f 287/3/6 284/3/6 288/3/6
f 285/3/6 286/3/6 289/3/6
f 286/2/6 287/2/6 290/2/6
f 289/3/6 286/3/6 290/3/6
f 287/2/6 288/2/6 290/2/6
f 289/2/6 290/2/6 291/2/6
f 290/2/6 288/2/6 291/2/6
f 291/2/6 288/2/6 292/2/6
f 289/2/6 291/2/6 293/2/6
f 291/3/6 292/3/6 294/3/6
f 293/2/6 291/2/6 294/2/6
f 292/2/6 288/2/6 295/2/6
f 294/3/6 292/3/6 295/3/6
f 295/2/6 288/2/6 296/2/6
