# MagicaVoxel @ Ephtracy

# group
o 

# material
mtllib karmackih_VR_kotel.mtl
usemtl palette

# normals
vn -1 0 0
vn 1 0 0
vn 0 0 1
vn 0 0 -1
vn 0 -1 0
vn 0 1 0

# texcoords
vt 0.982422 0.5
vt 0.986328 0.5
vt 0.990234 0.5

# verts
v -1.5 0.2 1.4
v -1.5 0.2 -1.5
v -1.5 0.7 -1.3
v -1.5 0.7 -1.4
v -1.5 0.8 -0.8
v -1.5 0.8 -0.9
v -1.5 0.8 -1.2
v -1.5 0.8 -1.3
v -1.5 0.9 1.4
v -1.5 0.9 1.3
v -1.5 0.9 1
v -1.5 0.9 0.9
v -1.5 0.9 0.4
v -1.5 0.9 0.3
v -1.5 0.9 -0.6
v -1.5 0.9 -0.7
v -1.5 0.9 -1
v -1.5 0.9 -1.1
v -1.5 1 1.2
v -1.5 1 1.1
v -1.5 1 0.5
v -1.5 1 0.4
v -1.5 1 0.1
v -1.5 1 0
v -1.5 1 -0.1
v -1.5 1 -0.2
v -1.5 1 -0.9
v -1.5 1 -1
v -1.5 1 -1.4
v -1.5 1 -1.5
v -1.5 1.1 0.8
v -1.5 1.1 0.7
v -1.5 1.1 0.6
v -1.5 1.1 0.5
v -1.5 1.1 0.3
v -1.5 1.1 0.2
v -1.5 1.1 0
v -1.5 1.1 -0.1
v -1.5 1.1 -0.4
v -1.5 1.1 -0.5
v -1.5 1.1 -0.7
v -1.5 1.1 -0.8
v -1.5 1.1 -1.1
v -1.5 1.1 -1.2
v -1.5 1.2 1.3
v -1.5 1.2 1.2
v -1.5 1.2 1.1
v -1.5 1.2 1
v -1.5 1.2 0.9
v -1.5 1.2 0.8
v -1.5 1.2 0.2
v -1.5 1.2 0.1
v -1.5 1.2 -0.2
v -1.5 1.2 -0.3
v -1.5 1.2 -0.5
v -1.5 1.2 -0.6
v -1.5 1.3 0.7
v -1.5 1.3 0.6
v -1.5 1.3 -0.3
v -1.5 1.3 -0.4
v -1.5 2 1.4
v -1.5 2 -1.5
v -1.3 0 1.2
v -1.3 0 0.9
v -1.3 0 -1
v -1.3 0 -1.3
v -1.3 0.2 1.2
v -1.3 0.2 0.9
v -1.3 0.2 -1
v -1.3 0.2 -1.3
v 0.9 0 1.2
v 0.9 0 0.9
v 0.9 0 -1
v 0.9 0 -1.3
v 0.9 0.2 1.2
v 0.9 0.2 0.9
v 0.9 0.2 -1
v 0.9 0.2 -1.3
v 1.1 0.5 1.1
v 1.1 0.5 1
v 1.1 0.5 -1.2
v 1.1 1.9 1
v 1.1 1.9 -1.2
v 1.1 2 1.1
v 1.1 2 -1.2
v -1.2 0.5 1.1
v -1.2 0.5 -1.2
v -1.2 2 1.1
v -1.2 2 -1.2
v -1 0 1.2
v -1 0 0.9
v -1 0 -1
v -1 0 -1.3
v -1 0.2 1.2
v -1 0.2 0.9
v -1 0.2 -1
v -1 0.2 -1.3
v 1.2 0 1.2
v 1.2 0 0.9
v 1.2 0 -1
v 1.2 0 -1.3
v 1.2 0.2 1.2
v 1.2 0.2 0.9
v 1.2 0.2 -1
v 1.2 0.2 -1.3
v 1.4 0.2 1.4
v 1.4 0.2 -1.5
v 1.4 0.7 1.3
v 1.4 0.7 1.2
v 1.4 0.8 1.2
v 1.4 0.8 1.1
v 1.4 0.8 0.8
v 1.4 0.8 0.7
v 1.4 0.9 1.4
v 1.4 0.9 1.3
v 1.4 0.9 1
v 1.4 0.9 0.9
v 1.4 0.9 0.6
v 1.4 0.9 0.5
v 1.4 0.9 -0.4
v 1.4 0.9 -0.5
v 1.4 0.9 -1
v 1.4 0.9 -1.1
v 1.4 0.9 -1.4
v 1.4 0.9 -1.5
v 1.4 1 0.9
v 1.4 1 0.8
v 1.4 1 0.1
v 1.4 1 0
v 1.4 1 -0.1
v 1.4 1 -0.2
v 1.4 1 -0.5
v 1.4 1 -0.6
v 1.4 1 -1.2
v 1.4 1 -1.3
v 1.4 1.1 1.1
v 1.4 1.1 1
v 1.4 1.1 0.7
v 1.4 1.1 0.6
v 1.4 1.1 0.4
v 1.4 1.1 0.3
v 1.4 1.1 0
v 1.4 1.1 -0.1
v 1.4 1.1 -0.3
v 1.4 1.1 -0.4
v 1.4 1.1 -0.6
v 1.4 1.1 -0.7
v 1.4 1.1 -0.8
v 1.4 1.1 -0.9
v 1.4 1.2 0.5
v 1.4 1.2 0.4
v 1.4 1.2 0.2
v 1.4 1.2 0.1
v 1.4 1.2 -0.2
v 1.4 1.2 -0.3
v 1.4 1.2 -0.9
v 1.4 1.2 -1
v 1.4 1.2 -1.1
v 1.4 1.2 -1.2
v 1.4 1.2 -1.3
v 1.4 1.2 -1.4
v 1.4 1.3 0.3
v 1.4 1.3 0.2
v 1.4 1.3 -0.7
v 1.4 1.3 -0.8
v 1.4 2 1.4
v 1.4 2 -1.5
v -1.5 0.2 1.4
v -1.5 0.9 1.4
v -1.5 2 1.4
v -1.4 0.7 1.4
v -1.4 0.9 1.4
v -1.3 0.7 1.4
v -1.3 0.8 1.4
v -1.2 0.8 1.4
v -1.2 1.1 1.4
v -1.1 0.9 1.4
v -1.1 1.1 1.4
v -1 0.9 1.4
v -1 1 1.4
v -0.9 0.8 1.4
v -0.9 1 1.4
v -0.8 0.8 1.4
v -0.8 1.1 1.4
v -0.7 0.9 1.4
v -0.7 1.1 1.4
v -0.6 0.9 1.4
v -0.6 1.2 1.4
v -0.5 1.1 1.4
v -0.5 1.2 1.4
v -0.4 1.1 1.4
v -0.4 1.3 1.4
v -0.3 1.2 1.4
v -0.3 1.3 1.4
v -0.2 1 1.4
v -0.2 1.2 1.4
v -0.1 1 1.4
v -0.1 1.1 1.4
v 0 1 1.4
v 0 1.1 1.4
v 0.1 1 1.4
v 0.1 1.2 1.4
v 0.2 1.1 1.4
v 0.2 1.2 1.4
v 0.3 0.9 1.4
v 0.3 1.1 1.4
v 0.4 0.9 1.4
v 0.4 1 1.4
v 0.5 1 1.4
v 0.5 1.1 1.4
v 0.6 1.1 1.4
v 0.6 1.3 1.4
v 0.7 1.1 1.4
v 0.7 1.3 1.4
v 0.8 1.1 1.4
v 0.8 1.2 1.4
v 0.9 0.9 1.4
v 0.9 1.2 1.4
v 1 0.9 1.4
v 1 1.2 1.4
v 1.1 1 1.4
v 1.1 1.2 1.4
v 1.2 1 1.4
v 1.2 1.2 1.4
v 1.3 0.9 1.4
v 1.3 1.2 1.4
v 1.4 0.2 1.4
v 1.4 0.9 1.4
v 1.4 2 1.4
v -1.3 0 1.2
v -1.3 0.2 1.2
v -1 0 1.2
v -1 0.2 1.2
v 0.9 0 1.2
v 0.9 0.2 1.2
v 1.2 0 1.2
v 1.2 0.2 1.2
v -1.3 0 -1
v -1.3 0.2 -1
v -1 0 -1
v -1 0.2 -1
v 0.9 0 -1
v 0.9 0.2 -1
v 1.2 0 -1
v 1.2 0.2 -1
v -1.2 0.5 -1.2
v -1.2 2 -1.2
v 1.1 0.5 -1.2
v 1.1 1.9 -1.2
v 1.1 2 -1.2
v -1.2 0.5 1.1
v -1.2 2 1.1
v 1.1 0.5 1.1
v 1.1 2 1.1
v -1.3 0 0.9
v -1.3 0.2 0.9
v -1 0 0.9
v -1 0.2 0.9
v 0.9 0 0.9
v 0.9 0.2 0.9
v 1.2 0 0.9
v 1.2 0.2 0.9
v -1.3 0 -1.3
v -1.3 0.2 -1.3
v -1 0 -1.3
v -1 0.2 -1.3
v 0.9 0 -1.3
v 0.9 0.2 -1.3
v 1.2 0 -1.3
v 1.2 0.2 -1.3
v -1.5 0.2 -1.5
v -1.5 1 -1.5
v -1.5 2 -1.5
v -1.4 1 -1.5
v -1.4 1.2 -1.5
v -1.3 1 -1.5
v -1.3 1.2 -1.5
v -1.2 1 -1.5
v -1.2 1.2 -1.5
v -1.1 0.9 -1.5
v -1.1 1.2 -1.5
v -1 0.9 -1.5
v -1 1.2 -1.5
v -0.9 1.1 -1.5
v -0.9 1.2 -1.5
v -0.8 1.1 -1.5
v -0.8 1.3 -1.5
v -0.7 1.1 -1.5
v -0.7 1.3 -1.5
v -0.6 1 -1.5
v -0.6 1.1 -1.5
v -0.5 0.9 -1.5
v -0.5 1 -1.5
v -0.4 0.9 -1.5
v -0.4 1.1 -1.5
v -0.3 1.1 -1.5
v -0.3 1.2 -1.5
v -0.2 1 -1.5
v -0.2 1.2 -1.5
v -0.1 1 -1.5
v -0.1 1.1 -1.5
v 0 1 -1.5
v 0 1.1 -1.5
v 0.1 1 -1.5
v 0.1 1.2 -1.5
v 0.2 1.2 -1.5
v 0.2 1.3 -1.5
v 0.3 1.1 -1.5
v 0.3 1.3 -1.5
v 0.4 1.1 -1.5
v 0.4 1.2 -1.5
v 0.5 0.9 -1.5
v 0.5 1.2 -1.5
v 0.6 0.9 -1.5
v 0.6 1.1 -1.5
v 0.7 0.8 -1.5
v 0.7 1.1 -1.5
v 0.8 0.8 -1.5
v 0.8 1 -1.5
v 0.9 0.9 -1.5
v 0.9 1 -1.5
v 1 0.9 -1.5
v 1 1.1 -1.5
v 1.1 0.8 -1.5
v 1.1 1.1 -1.5
v 1.2 0.7 -1.5
v 1.2 0.8 -1.5
v 1.3 0.7 -1.5
v 1.3 0.9 -1.5
v 1.4 0.2 -1.5
v 1.4 0.9 -1.5
v 1.4 2 -1.5
v -1.3 0 1.2
v -1 0 1.2
v 0.9 0 1.2
v 1.2 0 1.2
v -1.3 0 0.9
v -1 0 0.9
v 0.9 0 0.9
v 1.2 0 0.9
v -1.3 0 -1
v -1 0 -1
v 0.9 0 -1
v 1.2 0 -1
v -1.3 0 -1.3
v -1 0 -1.3
v 0.9 0 -1.3
v 1.2 0 -1.3
v -1.5 0.2 1.4
v 1.4 0.2 1.4
v -1.4 0.2 1.3
v 1.3 0.2 1.3
v -1.3 0.2 1.2
v -1 0.2 1.2
v 0.9 0.2 1.2
v 1.2 0.2 1.2
v -1.3 0.2 0.9
v -1 0.2 0.9
v 0.9 0.2 0.9
v 1.2 0.2 0.9
v -1.3 0.2 -1
v -1 0.2 -1
v 0.9 0.2 -1
v 1.2 0.2 -1
v -1.3 0.2 -1.3
v -1 0.2 -1.3
v 0.9 0.2 -1.3
v 1.2 0.2 -1.3
v -1.4 0.2 -1.4
v 1.3 0.2 -1.4
v -1.5 0.2 -1.5
v 1.4 0.2 -1.5
v -1.2 0.5 1.1
v 1.1 0.5 1.1
v 1.1 0.5 1
v -1.2 0.5 -1.2
v 1.1 0.5 -1.2
v -1.5 2 1.4
v 1.4 2 1.4
v -1.3 2 1.2
v 1.2 2 1.2
v -1.2 2 1.1
v 1.1 2 1.1
v -1.2 2 -1.2
v 1.1 2 -1.2
v -1.3 2 -1.3
v 1.2 2 -1.3
v -1.5 2 -1.5
v 1.4 2 -1.5

# faces
f 3/3/1 2/3/1 1/3/1
f 4/3/1 2/3/1 3/3/1
f 5/3/1 3/3/1 1/3/1
f 6/3/1 3/3/1 5/3/1
f 7/3/1 3/3/1 6/3/1
f 8/2/1 4/2/1 3/2/1
f 8/3/1 3/3/1 7/3/1
f 9/3/1 5/3/1 1/3/1
f 10/3/1 5/3/1 9/3/1
f 11/3/1 5/3/1 10/3/1
f 12/3/1 5/3/1 11/3/1
f 13/3/1 5/3/1 12/3/1
f 14/3/1 5/3/1 13/3/1
f 15/3/1 5/3/1 14/3/1
f 16/3/1 5/3/1 15/3/1
f 17/3/1 7/3/1 6/3/1
f 18/3/1 7/3/1 17/3/1
f 19/3/1 11/3/1 10/3/1
f 20/3/1 11/3/1 19/3/1
f 21/3/1 13/3/1 12/3/1
f 22/2/1 14/2/1 13/2/1
f 22/3/1 13/3/1 21/3/1
f 23/3/1 15/3/1 14/3/1
f 24/3/1 15/3/1 23/3/1
f 25/3/1 15/3/1 24/3/1
f 26/3/1 15/3/1 25/3/1
f 27/2/1 6/2/1 5/2/1
f 27/3/1 17/3/1 6/3/1
f 28/2/1 18/2/1 17/2/1
f 28/3/1 17/3/1 27/3/1
f 29/3/1 2/3/1 4/3/1
f 29/2/1 4/2/1 8/2/1
f 29/2/1 8/2/1 7/2/1
f 30/3/1 2/3/1 29/3/1
f 31/3/1 21/3/1 12/3/1
f 32/3/1 21/3/1 31/3/1
f 33/3/1 21/3/1 32/3/1
f 34/2/1 22/2/1 21/2/1
f 34/3/1 21/3/1 33/3/1
f 35/2/1 14/2/1 22/2/1
f 35/2/1 22/2/1 34/2/1
f 35/3/1 23/3/1 14/3/1
f 36/3/1 23/3/1 35/3/1
f 37/3/1 25/3/1 24/3/1
f 37/2/1 24/2/1 23/2/1
f 38/2/1 26/2/1 25/2/1
f 38/3/1 25/3/1 37/3/1
f 39/3/1 15/3/1 26/3/1
f 40/3/1 15/3/1 39/3/1
f 41/3/1 5/3/1 16/3/1
f 41/2/1 16/2/1 15/2/1
f 42/2/1 28/2/1 27/2/1
f 42/3/1 5/3/1 41/3/1
f 42/2/1 27/2/1 5/2/1
f 43/2/1 18/2/1 28/2/1
f 43/2/1 28/2/1 42/2/1
f 43/3/1 7/3/1 18/3/1
f 44/2/1 29/2/1 7/2/1
f 44/3/1 7/3/1 43/3/1
f 44/2/1 30/2/1 29/2/1
f 45/2/1 10/2/1 9/2/1
f 45/3/1 19/3/1 10/3/1
f 46/2/1 20/2/1 19/2/1
f 46/3/1 19/3/1 45/3/1
f 47/3/1 11/3/1 20/3/1
f 47/2/1 20/2/1 46/2/1
f 48/2/1 12/2/1 11/2/1
f 48/3/1 11/3/1 47/3/1
f 49/3/1 31/3/1 12/3/1
f 49/2/1 12/2/1 48/2/1
f 50/2/1 32/2/1 31/2/1
f 50/3/1 31/3/1 49/3/1
f 51/3/1 23/3/1 36/3/1
f 51/2/1 34/2/1 33/2/1
f 51/2/1 36/2/1 35/2/1
f 51/2/1 35/2/1 34/2/1
f 52/2/1 38/2/1 37/2/1
f 52/3/1 23/3/1 51/3/1
f 52/2/1 37/2/1 23/2/1
f 53/2/1 26/2/1 38/2/1
f 53/2/1 38/2/1 52/2/1
f 53/3/1 39/3/1 26/3/1
f 54/3/1 39/3/1 53/3/1
f 55/3/1 15/3/1 40/3/1
f 55/2/1 40/2/1 39/2/1
f 56/2/1 42/2/1 41/2/1
f 56/3/1 15/3/1 55/3/1
f 56/2/1 41/2/1 15/2/1
f 56/2/1 43/2/1 42/2/1
f 56/2/1 44/2/1 43/2/1
f 57/2/1 32/2/1 50/2/1
f 57/2/1 47/2/1 46/2/1
f 57/2/1 46/2/1 45/2/1
f 57/2/1 50/2/1 49/2/1
f 57/3/1 33/3/1 32/3/1
f 57/2/1 48/2/1 47/2/1
f 57/2/1 49/2/1 48/2/1
f 58/2/1 53/2/1 52/2/1
f 58/3/1 33/3/1 57/3/1
f 58/2/1 52/2/1 51/2/1
f 58/2/1 54/2/1 53/2/1
f 58/2/1 51/2/1 33/2/1
f 59/3/1 39/3/1 54/3/1
f 59/2/1 54/2/1 58/2/1
f 60/2/1 55/2/1 39/2/1
f 60/3/1 39/3/1 59/3/1
f 60/2/1 56/2/1 55/2/1
f 61/2/1 59/2/1 58/2/1
f 61/2/1 58/2/1 57/2/1
f 61/2/1 60/2/1 59/2/1
f 61/2/1 45/2/1 9/2/1
f 61/2/1 57/2/1 45/2/1
f 62/2/1 56/2/1 60/2/1
f 62/2/1 60/2/1 61/2/1
f 62/2/1 30/2/1 44/2/1
f 62/2/1 44/2/1 56/2/1
f 67/1/1 64/1/1 63/1/1
f 68/1/1 64/1/1 67/1/1
f 69/1/1 66/1/1 65/1/1
f 70/1/1 66/1/1 69/1/1
f 75/1/1 72/1/1 71/1/1
f 76/1/1 72/1/1 75/1/1
f 77/1/1 74/1/1 73/1/1
f 78/1/1 74/1/1 77/1/1
f 82/1/1 80/1/1 79/1/1
f 82/2/1 81/2/1 80/2/1
f 83/2/1 81/2/1 82/2/1
f 84/1/1 82/1/1 79/1/1
f 84/1/1 83/1/1 82/1/1
f 85/1/1 83/1/1 84/1/1
f 86/1/2 87/1/2 88/1/2
f 88/1/2 87/1/2 89/1/2
f 90/1/2 91/1/2 94/1/2
f 94/1/2 91/1/2 95/1/2
f 92/1/2 93/1/2 96/1/2
f 96/1/2 93/1/2 97/1/2
f 98/1/2 99/1/2 102/1/2
f 102/1/2 99/1/2 103/1/2
f 100/1/2 101/1/2 104/1/2
f 104/1/2 101/1/2 105/1/2
f 106/3/2 107/3/2 108/3/2
f 108/3/2 107/3/2 109/3/2
f 108/2/2 109/2/2 110/2/2
f 109/3/2 107/3/2 110/3/2
f 110/3/2 107/3/2 111/3/2
f 111/3/2 107/3/2 112/3/2
f 112/3/2 107/3/2 113/3/2
f 106/3/2 108/3/2 114/3/2
f 108/2/2 110/2/2 115/2/2
f 114/3/2 108/3/2 115/3/2
f 110/2/2 111/2/2 115/2/2
f 111/3/2 112/3/2 116/3/2
f 116/3/2 112/3/2 117/3/2
f 113/3/2 107/3/2 118/3/2
f 118/3/2 107/3/2 119/3/2
f 119/3/2 107/3/2 120/3/2
f 120/3/2 107/3/2 121/3/2
f 121/3/2 107/3/2 122/3/2
f 122/3/2 107/3/2 123/3/2
f 123/3/2 107/3/2 124/3/2
f 124/3/2 107/3/2 125/3/2
f 117/3/2 112/3/2 126/3/2
f 116/2/2 117/2/2 126/2/2
f 112/2/2 113/2/2 127/2/2
f 126/3/2 112/3/2 127/3/2
f 119/3/2 120/3/2 128/3/2
f 128/3/2 120/3/2 129/3/2
f 129/3/2 120/3/2 130/3/2
f 130/3/2 120/3/2 131/3/2
f 120/2/2 121/2/2 132/2/2
f 121/3/2 122/3/2 132/3/2
f 132/3/2 122/3/2 133/3/2
f 123/3/2 124/3/2 134/3/2
f 134/3/2 124/3/2 135/3/2
f 115/2/2 111/2/2 136/2/2
f 114/2/2 115/2/2 136/2/2
f 111/3/2 116/3/2 136/3/2
f 116/2/2 126/2/2 137/2/2
f 136/3/2 116/3/2 137/3/2
f 126/2/2 127/2/2 137/2/2
f 113/3/2 118/3/2 138/3/2
f 137/2/2 127/2/2 138/2/2
f 127/2/2 113/2/2 138/2/2
f 118/2/2 119/2/2 139/2/2
f 138/3/2 118/3/2 139/3/2
f 119/3/2 128/3/2 140/3/2
f 140/3/2 128/3/2 141/3/2
f 128/2/2 129/2/2 142/2/2
f 129/3/2 130/3/2 142/3/2
f 130/2/2 131/2/2 143/2/2
f 142/3/2 130/3/2 143/3/2
f 131/3/2 120/3/2 144/3/2
f 120/2/2 132/2/2 145/2/2
f 144/3/2 120/3/2 145/3/2
f 132/2/2 133/2/2 145/2/2
f 133/3/2 122/3/2 146/3/2
f 145/2/2 133/2/2 146/2/2
f 146/3/2 122/3/2 147/3/2
f 147/3/2 122/3/2 148/3/2
f 148/3/2 122/3/2 149/3/2
f 136/2/2 137/2/2 150/2/2
f 137/2/2 138/2/2 150/2/2
f 139/2/2 119/2/2 150/2/2
f 138/2/2 139/2/2 150/2/2
f 119/3/2 140/3/2 150/3/2
f 140/2/2 141/2/2 151/2/2
f 150/3/2 140/3/2 151/3/2
f 141/3/2 128/3/2 152/3/2
f 128/2/2 142/2/2 153/2/2
f 152/3/2 128/3/2 153/3/2
f 142/2/2 143/2/2 153/2/2
f 131/3/2 144/3/2 154/3/2
f 153/2/2 143/2/2 154/2/2
f 143/2/2 131/2/2 154/2/2
f 145/2/2 146/2/2 155/2/2
f 154/3/2 144/3/2 155/3/2
f 144/2/2 145/2/2 155/2/2
f 146/2/2 147/2/2 155/2/2
f 149/3/2 122/3/2 156/3/2
f 148/2/2 149/2/2 156/2/2
f 122/2/2 123/2/2 157/2/2
f 156/3/2 122/3/2 157/3/2
f 123/3/2 134/3/2 158/3/2
f 157/2/2 123/2/2 158/2/2
f 134/2/2 135/2/2 159/2/2
f 158/3/2 134/3/2 159/3/2
f 135/3/2 124/3/2 160/3/2
f 159/2/2 135/2/2 160/2/2
f 124/2/2 125/2/2 161/2/2
f 160/3/2 124/3/2 161/3/2
f 141/3/2 152/3/2 162/3/2
f 150/2/2 151/2/2 162/2/2
f 151/2/2 141/2/2 162/2/2
f 154/2/2 155/2/2 163/2/2
f 162/3/2 152/3/2 163/3/2
f 152/2/2 153/2/2 163/2/2
f 153/2/2 154/2/2 163/2/2
f 155/2/2 147/2/2 164/2/2
f 163/2/2 155/2/2 164/2/2
f 147/3/2 148/3/2 164/3/2
f 158/2/2 159/2/2 165/2/2
f 164/3/2 148/3/2 165/3/2
f 157/2/2 158/2/2 165/2/2
f 148/2/2 156/2/2 165/2/2
f 156/2/2 157/2/2 165/2/2
f 160/2/2 161/2/2 165/2/2
f 159/2/2 160/2/2 165/2/2
f 114/2/2 136/2/2 166/2/2
f 163/2/2 164/2/2 166/2/2
f 164/2/2 165/2/2 166/2/2
f 162/2/2 163/2/2 166/2/2
f 150/2/2 162/2/2 166/2/2
f 136/2/2 150/2/2 166/2/2
f 165/2/2 161/2/2 167/2/2
f 166/2/2 165/2/2 167/2/2
f 161/2/2 125/2/2 167/2/2
f 171/3/3 169/3/3 168/3/3
f 172/2/3 170/2/3 169/2/3
f 172/3/3 169/3/3 171/3/3
f 173/3/3 171/3/3 168/3/3
f 173/2/3 172/2/3 171/2/3
f 174/2/3 172/2/3 173/2/3
f 175/3/3 174/3/3 173/3/3
f 175/2/3 172/2/3 174/2/3
f 176/2/3 170/2/3 172/2/3
f 176/2/3 172/2/3 175/2/3
f 177/3/3 176/3/3 175/3/3
f 178/2/3 170/2/3 176/2/3
f 178/3/3 176/3/3 177/3/3
f 179/3/3 177/3/3 175/3/3
f 179/2/3 178/2/3 177/2/3
f 180/2/3 178/2/3 179/2/3
f 181/3/3 175/3/3 173/3/3
f 181/3/3 179/3/3 175/3/3
f 181/3/3 180/3/3 179/3/3
f 182/2/3 178/2/3 180/2/3
f 182/3/3 180/3/3 181/3/3
f 183/3/3 181/3/3 173/3/3
f 183/2/3 182/2/3 181/2/3
f 184/2/3 178/2/3 182/2/3
f 184/2/3 182/2/3 183/2/3
f 184/2/3 170/2/3 178/2/3
f 185/3/3 184/3/3 183/3/3
f 186/2/3 170/2/3 184/2/3
f 186/3/3 184/3/3 185/3/3
f 187/3/3 185/3/3 183/3/3
f 187/2/3 186/2/3 185/2/3
f 188/2/3 170/2/3 186/2/3
f 188/2/3 186/2/3 187/2/3
f 189/3/3 188/3/3 187/3/3
f 190/2/3 170/2/3 188/2/3
f 190/3/3 188/3/3 189/3/3
f 191/3/3 189/3/3 187/3/3
f 191/2/3 190/2/3 189/2/3
f 192/2/3 170/2/3 190/2/3
f 192/2/3 190/2/3 191/2/3
f 193/3/3 192/3/3 191/3/3
f 194/2/3 170/2/3 192/2/3
f 194/3/3 192/3/3 193/3/3
f 195/3/3 191/3/3 187/3/3
f 195/3/3 193/3/3 191/3/3
f 196/2/3 194/2/3 193/2/3
f 196/3/3 193/3/3 195/3/3
f 197/3/3 195/3/3 187/3/3
f 197/2/3 196/2/3 195/2/3
f 198/2/3 196/2/3 197/2/3
f 199/3/3 197/3/3 187/3/3
f 199/3/3 198/3/3 197/3/3
f 200/2/3 196/2/3 198/2/3
f 200/3/3 198/3/3 199/3/3
f 201/3/3 199/3/3 187/3/3
f 201/2/3 200/2/3 199/2/3
f 202/2/3 194/2/3 196/2/3
f 202/2/3 200/2/3 201/2/3
f 202/2/3 196/2/3 200/2/3
f 203/3/3 202/3/3 201/3/3
f 204/2/3 194/2/3 202/2/3
f 204/3/3 202/3/3 203/3/3
f 205/3/3 187/3/3 183/3/3
f 205/3/3 201/3/3 187/3/3
f 205/3/3 203/3/3 201/3/3
f 206/2/3 204/2/3 203/2/3
f 206/3/3 203/3/3 205/3/3
f 207/3/3 205/3/3 183/3/3
f 207/2/3 206/2/3 205/2/3
f 208/2/3 206/2/3 207/2/3
f 209/3/3 208/3/3 207/3/3
f 209/2/3 206/2/3 208/2/3
f 210/2/3 204/2/3 206/2/3
f 210/2/3 206/2/3 209/2/3
f 211/3/3 210/3/3 209/3/3
f 211/2/3 204/2/3 210/2/3
f 212/2/3 194/2/3 204/2/3
f 212/2/3 204/2/3 211/2/3
f 212/2/3 170/2/3 194/2/3
f 213/3/3 211/3/3 209/3/3
f 213/3/3 212/3/3 211/3/3
f 214/2/3 170/2/3 212/2/3
f 214/3/3 212/3/3 213/3/3
f 215/3/3 213/3/3 209/3/3
f 215/2/3 214/2/3 213/2/3
f 216/2/3 214/2/3 215/2/3
f 217/3/3 207/3/3 183/3/3
f 217/3/3 209/3/3 207/3/3
f 217/3/3 216/3/3 215/3/3
f 217/3/3 215/3/3 209/3/3
f 218/2/3 214/2/3 216/2/3
f 218/3/3 216/3/3 217/3/3
f 219/3/3 217/3/3 183/3/3
f 219/2/3 218/2/3 217/2/3
f 220/2/3 214/2/3 218/2/3
f 220/2/3 218/2/3 219/2/3
f 221/3/3 220/3/3 219/3/3
f 222/2/3 214/2/3 220/2/3
f 222/3/3 220/3/3 221/3/3
f 223/3/3 221/3/3 219/3/3
f 223/2/3 222/2/3 221/2/3
f 224/2/3 214/2/3 222/2/3
f 224/2/3 222/2/3 223/2/3
f 225/3/3 219/3/3 183/3/3
f 225/3/3 223/3/3 219/3/3
f 225/3/3 224/3/3 223/3/3
f 226/2/3 214/2/3 224/2/3
f 226/3/3 224/3/3 225/3/3
f 227/3/3 183/3/3 173/3/3
f 227/3/3 173/3/3 168/3/3
f 227/3/3 225/3/3 183/3/3
f 228/2/3 226/2/3 225/2/3
f 228/3/3 225/3/3 227/3/3
f 229/2/3 214/2/3 226/2/3
f 229/2/3 226/2/3 228/2/3
f 229/2/3 170/2/3 214/2/3
f 232/1/3 231/1/3 230/1/3
f 233/1/3 231/1/3 232/1/3
f 236/1/3 235/1/3 234/1/3
f 237/1/3 235/1/3 236/1/3
f 240/1/3 239/1/3 238/1/3
f 241/1/3 239/1/3 240/1/3
f 244/1/3 243/1/3 242/1/3
f 245/1/3 243/1/3 244/1/3
f 248/1/3 247/1/3 246/1/3
f 249/1/3 247/1/3 248/1/3
f 250/1/3 247/1/3 249/1/3
f 251/1/4 252/1/4 253/1/4
f 253/1/4 252/1/4 254/1/4
f 255/1/4 256/1/4 257/1/4
f 257/1/4 256/1/4 258/1/4
f 259/1/4 260/1/4 261/1/4
f 261/1/4 260/1/4 262/1/4
f 263/1/4 264/1/4 265/1/4
f 265/1/4 264/1/4 266/1/4
f 267/1/4 268/1/4 269/1/4
f 269/1/4 268/1/4 270/1/4
f 271/3/4 272/3/4 274/3/4
f 272/2/4 273/2/4 274/2/4
f 274/2/4 273/2/4 275/2/4
f 271/3/4 274/3/4 276/3/4
f 274/3/4 275/3/4 276/3/4
f 275/2/4 273/2/4 277/2/4
f 276/3/4 275/3/4 277/3/4
f 271/3/4 276/3/4 278/3/4
f 276/2/4 277/2/4 278/2/4
f 277/2/4 273/2/4 279/2/4
f 278/2/4 277/2/4 279/2/4
f 271/3/4 278/3/4 280/3/4
f 278/3/4 279/3/4 280/3/4
f 279/2/4 273/2/4 281/2/4
f 280/3/4 279/3/4 281/3/4
f 271/3/4 280/3/4 282/3/4
f 280/2/4 281/2/4 282/2/4
f 281/2/4 273/2/4 283/2/4
f 282/2/4 281/2/4 283/2/4
f 282/3/4 283/3/4 284/3/4
f 283/2/4 273/2/4 285/2/4
f 284/3/4 283/3/4 285/3/4
f 282/3/4 284/3/4 286/3/4
f 284/2/4 285/2/4 286/2/4
f 285/2/4 273/2/4 287/2/4
f 286/2/4 285/2/4 287/2/4
f 282/3/4 286/3/4 288/3/4
f 286/3/4 287/3/4 288/3/4
f 287/2/4 273/2/4 289/2/4
f 288/3/4 287/3/4 289/3/4
f 282/3/4 288/3/4 290/3/4
f 288/2/4 289/2/4 291/2/4
f 290/3/4 288/3/4 291/3/4
f 271/3/4 282/3/4 292/3/4
f 282/3/4 290/3/4 292/3/4
f 290/2/4 291/2/4 293/2/4
f 292/3/4 290/3/4 293/3/4
f 271/3/4 292/3/4 294/3/4
f 292/2/4 293/2/4 294/2/4
f 291/2/4 289/2/4 295/2/4
f 294/2/4 293/2/4 295/2/4
f 293/2/4 291/2/4 295/2/4
f 294/3/4 295/3/4 296/3/4
f 295/2/4 289/2/4 296/2/4
f 296/2/4 289/2/4 297/2/4
f 294/3/4 296/3/4 298/3/4
f 296/3/4 297/3/4 298/3/4
f 297/2/4 289/2/4 299/2/4
f 298/3/4 297/3/4 299/3/4
f 294/3/4 298/3/4 300/3/4
f 298/2/4 299/2/4 300/2/4
f 300/2/4 299/2/4 301/2/4
f 294/3/4 300/3/4 302/3/4
f 300/3/4 301/3/4 302/3/4
f 301/2/4 299/2/4 303/2/4
f 302/3/4 301/3/4 303/3/4
f 294/3/4 302/3/4 304/3/4
f 302/2/4 303/2/4 304/2/4
f 299/2/4 289/2/4 305/2/4
f 304/2/4 303/2/4 305/2/4
f 303/2/4 299/2/4 305/2/4
f 304/3/4 305/3/4 306/3/4
f 305/2/4 289/2/4 306/2/4
f 289/2/4 273/2/4 307/2/4
f 306/2/4 289/2/4 307/2/4
f 304/3/4 306/3/4 308/3/4
f 306/3/4 307/3/4 308/3/4
f 307/2/4 273/2/4 309/2/4
f 308/3/4 307/3/4 309/3/4
f 304/3/4 308/3/4 310/3/4
f 308/2/4 309/2/4 310/2/4
f 310/2/4 309/2/4 311/2/4
f 271/3/4 294/3/4 312/3/4
f 294/3/4 304/3/4 312/3/4
f 310/3/4 311/3/4 312/3/4
f 304/3/4 310/3/4 312/3/4
f 311/2/4 309/2/4 313/2/4
f 312/3/4 311/3/4 313/3/4
f 271/3/4 312/3/4 314/3/4
f 312/2/4 313/2/4 314/2/4
f 314/2/4 313/2/4 315/2/4
f 271/3/4 314/3/4 316/3/4
f 314/3/4 315/3/4 316/3/4
f 315/2/4 313/2/4 317/2/4
f 316/3/4 315/3/4 317/3/4
f 271/3/4 316/3/4 318/3/4
f 316/2/4 317/2/4 318/2/4
f 318/2/4 317/2/4 319/2/4
f 318/3/4 319/3/4 320/3/4
f 319/2/4 317/2/4 321/2/4
f 320/3/4 319/3/4 321/3/4
f 318/3/4 320/3/4 322/3/4
f 320/2/4 321/2/4 322/2/4
f 317/2/4 313/2/4 323/2/4
f 322/2/4 321/2/4 323/2/4
f 321/2/4 317/2/4 323/2/4
f 318/3/4 322/3/4 324/3/4
f 271/3/4 318/3/4 324/3/4
f 322/3/4 323/3/4 324/3/4
f 323/2/4 313/2/4 325/2/4
f 324/3/4 323/3/4 325/3/4
f 271/3/4 324/3/4 326/3/4
f 324/2/4 325/2/4 327/2/4
f 326/3/4 324/3/4 327/3/4
f 271/3/4 326/3/4 328/3/4
f 326/2/4 327/2/4 328/2/4
f 327/2/4 325/2/4 329/2/4
f 328/2/4 327/2/4 329/2/4
f 271/3/4 328/3/4 330/3/4
f 328/3/4 329/3/4 330/3/4
f 329/2/4 325/2/4 331/2/4
f 330/3/4 329/3/4 331/3/4
f 313/2/4 309/2/4 332/2/4
f 331/2/4 325/2/4 332/2/4
f 309/2/4 273/2/4 332/2/4
f 325/2/4 313/2/4 332/2/4
f 337/1/5 334/1/5 333/1/5
f 338/1/5 334/1/5 337/1/5
f 339/1/5 336/1/5 335/1/5
f 340/1/5 336/1/5 339/1/5
f 345/1/5 342/1/5 341/1/5
f 346/1/5 342/1/5 345/1/5
f 347/1/5 344/1/5 343/1/5
f 348/1/5 344/1/5 347/1/5
f 351/3/5 350/3/5 349/3/5
f 352/3/5 350/3/5 351/3/5
f 353/2/5 352/2/5 351/2/5
f 354/2/5 352/2/5 353/2/5
f 355/2/5 352/2/5 354/2/5
f 356/2/5 352/2/5 355/2/5
f 357/2/5 353/2/5 351/2/5
f 358/2/5 355/2/5 354/2/5
f 359/2/5 355/2/5 358/2/5
f 360/2/5 352/2/5 356/2/5
f 361/2/5 359/2/5 358/2/5
f 361/2/5 360/2/5 359/2/5
f 361/2/5 357/2/5 351/2/5
f 361/2/5 358/2/5 357/2/5
f 362/2/5 360/2/5 361/2/5
f 363/2/5 360/2/5 362/2/5
f 364/2/5 352/2/5 360/2/5
f 364/2/5 360/2/5 363/2/5
f 365/2/5 361/2/5 351/2/5
f 366/2/5 363/2/5 362/2/5
f 367/2/5 363/2/5 366/2/5
f 368/2/5 352/2/5 364/2/5
f 369/3/5 351/3/5 349/3/5
f 369/2/5 368/2/5 367/2/5
f 369/2/5 365/2/5 351/2/5
f 369/2/5 367/2/5 366/2/5
f 369/2/5 366/2/5 365/2/5
f 370/2/5 352/2/5 368/2/5
f 370/2/5 368/2/5 369/2/5
f 370/3/5 350/3/5 352/3/5
f 371/3/5 369/3/5 349/3/5
f 371/3/5 370/3/5 369/3/5
f 372/3/5 350/3/5 370/3/5
f 372/3/5 370/3/5 371/3/5
f 373/1/6 374/1/6 375/1/6
f 373/1/6 375/1/6 376/1/6
f 376/1/6 375/1/6 377/1/6
f 378/2/6 379/2/6 380/2/6
f 380/2/6 379/2/6 381/2/6
f 380/1/6 381/1/6 382/1/6
f 382/1/6 381/1/6 383/1/6
f 380/1/6 382/1/6 384/1/6
f 383/1/6 381/1/6 385/1/6
f 378/2/6 380/2/6 386/2/6
f 384/1/6 385/1/6 386/1/6
f 380/1/6 384/1/6 386/1/6
f 385/1/6 381/1/6 387/1/6
f 386/1/6 385/1/6 387/1/6
f 381/2/6 379/2/6 387/2/6
f 378/2/6 386/2/6 388/2/6
f 386/2/6 387/2/6 388/2/6
f 387/2/6 379/2/6 389/2/6
f 388/2/6 387/2/6 389/2/6
