# MagicaVoxel @ Ephtracy

# group
o 

# material
mtllib karmackih_VR_arbuz.mtl
usemtl palette

# normals
vn -1 0 0
vn 1 0 0
vn 0 0 1
vn 0 0 -1
vn 0 -1 0
vn 0 1 0

# texcoords
vt 0.279297 0.5
vt 0.654297 0.5
vt 0.994141 0.5

# verts
v -1 0.5 0.3
v -1 0.5 -2.98023e-08
v -1 0.7 0.3
v -1 0.7 -2.98023e-08
v -0.9 0.2 0.3
v -0.9 0.2 -2.98023e-08
v -0.9 0.5 0.3
v -0.9 0.5 -2.98023e-08
v -0.9 0.7 0.3
v -0.9 0.7 -2.98023e-08
v -0.9 0.9 0.3
v -0.9 0.9 -2.98023e-08
v -0.8 0.1 0.3
v -0.8 0.1 -2.98023e-08
v -0.8 0.2 0.3
v -0.8 0.2 -2.98023e-08
v -0.8 0.9 0.3
v -0.8 0.9 -2.98023e-08
v -0.8 1.1 0.3
v -0.8 1.1 -2.98023e-08
v -0.7 0 0.3
v -0.7 0 -2.98023e-08
v -0.7 0.1 0.3
v -0.7 0.1 -2.98023e-08
v -0.7 1.1 0.3
v -0.7 1.1 -2.98023e-08
v -0.7 1.3 0.3
v -0.7 1.3 -2.98023e-08
v -0.6 1.3 0.3
v -0.6 1.3 -2.98023e-08
v -0.6 1.5 0.3
v -0.6 1.5 -2.98023e-08
v -0.5 1.5 0.3
v -0.5 1.5 -2.98023e-08
v -0.5 1.7 0.3
v -0.5 1.7 -2.98023e-08
v -0.4 1.7 0.3
v -0.4 1.7 -2.98023e-08
v -0.4 1.9 0.3
v -0.4 1.9 -2.98023e-08
v -0.3 1.9 0.3
v -0.3 1.9 -2.98023e-08
v -0.3 2.1 0.3
v -0.3 2.1 -2.98023e-08
v 0.3 1.9 0.3
v 0.3 1.9 -2.98023e-08
v 0.3 2.1 0.3
v 0.3 2.1 -2.98023e-08
v 0.4 1.7 0.3
v 0.4 1.7 -2.98023e-08
v 0.4 1.9 0.3
v 0.4 1.9 -2.98023e-08
v 0.5 1.5 0.3
v 0.5 1.5 -2.98023e-08
v 0.5 1.7 0.3
v 0.5 1.7 -2.98023e-08
v 0.6 1.3 0.3
v 0.6 1.3 -2.98023e-08
v 0.6 1.5 0.3
v 0.6 1.5 -2.98023e-08
v 0.7 0 0.3
v 0.7 0 -2.98023e-08
v 0.7 0.1 0.3
v 0.7 0.1 -2.98023e-08
v 0.7 1.1 0.3
v 0.7 1.1 -2.98023e-08
v 0.7 1.3 0.3
v 0.7 1.3 -2.98023e-08
v 0.8 0.1 0.3
v 0.8 0.1 -2.98023e-08
v 0.8 0.2 0.3
v 0.8 0.2 -2.98023e-08
v 0.8 0.9 0.3
v 0.8 0.9 -2.98023e-08
v 0.8 1.1 0.3
v 0.8 1.1 -2.98023e-08
v 0.9 0.2 0.3
v 0.9 0.2 -2.98023e-08
v 0.9 0.5 0.3
v 0.9 0.5 -2.98023e-08
v 0.9 0.7 0.3
v 0.9 0.7 -2.98023e-08
v 0.9 0.9 0.3
v 0.9 0.9 -2.98023e-08
v 1 0.5 0.3
v 1 0.5 -2.98023e-08
v 1 0.7 0.3
v 1 0.7 -2.98023e-08
v -1 0.5 0.3
v -1 0.7 0.3
v -0.9 0.2 0.3
v -0.9 0.5 0.3
v -0.9 0.6 0.3
v -0.9 0.7 0.3
v -0.9 0.9 0.3
v -0.8 0.1 0.3
v -0.8 0.2 0.3
v -0.8 0.3 0.3
v -0.8 0.6 0.3
v -0.8 0.9 0.3
v -0.8 1.1 0.3
v -0.7 0 0.3
v -0.7 0.1 0.3
v -0.7 0.2 0.3
v -0.7 0.3 0.3
v -0.7 1.1 0.3
v -0.7 1.3 0.3
v -0.6 1.3 0.3
v -0.6 1.5 0.3
v -0.5 0.5 0.3
v -0.5 0.6 0.3
v -0.5 1.5 0.3
v -0.5 1.7 0.3
v -0.4 0.5 0.3
v -0.4 0.6 0.3
v -0.4 1.7 0.3
v -0.4 1.9 0.3
v -0.3 0.7 0.3
v -0.3 0.8 0.3
v -0.3 1.3 0.3
v -0.3 1.4 0.3
v -0.3 1.9 0.3
v -0.3 2.1 0.3
v -0.2 0.7 0.3
v -0.2 0.8 0.3
v -0.2 1.3 0.3
v -0.2 1.4 0.3
v 1.19209e-07 0.4 0.3
v 1.19209e-07 0.5 0.3
v 0.1 0.4 0.3
v 0.1 0.5 0.3
v 0.1 1.5 0.3
v 0.1 1.6 0.3
v 0.2 1.5 0.3
v 0.2 1.6 0.3
v 0.3 0.9 0.3
v 0.3 1 0.3
v 0.3 1.9 0.3
v 0.3 2.1 0.3
v 0.4 0.9 0.3
v 0.4 1 0.3
v 0.4 1.7 0.3
v 0.4 1.9 0.3
v 0.5 1.5 0.3
v 0.5 1.7 0.3
v 0.6 1.3 0.3
v 0.6 1.5 0.3
v 0.7 0 0.3
v 0.7 0.1 0.3
v 0.7 0.2 0.3
v 0.7 0.3 0.3
v 0.7 1.1 0.3
v 0.7 1.3 0.3
v 0.8 0.1 0.3
v 0.8 0.2 0.3
v 0.8 0.3 0.3
v 0.8 0.6 0.3
v 0.8 0.9 0.3
v 0.8 1.1 0.3
v 0.9 0.2 0.3
v 0.9 0.5 0.3
v 0.9 0.6 0.3
v 0.9 0.7 0.3
v 0.9 0.9 0.3
v 1 0.5 0.3
v 1 0.7 0.3
v -1 0.5 -2.98023e-08
v -1 0.7 -2.98023e-08
v -0.9 0.2 -2.98023e-08
v -0.9 0.5 -2.98023e-08
v -0.9 0.6 -2.98023e-08
v -0.9 0.7 -2.98023e-08
v -0.9 0.9 -2.98023e-08
v -0.8 0.1 -2.98023e-08
v -0.8 0.2 -2.98023e-08
v -0.8 0.3 -2.98023e-08
v -0.8 0.6 -2.98023e-08
v -0.8 0.9 -2.98023e-08
v -0.8 1.1 -2.98023e-08
v -0.7 0 -2.98023e-08
v -0.7 0.1 -2.98023e-08
v -0.7 0.2 -2.98023e-08
v -0.7 0.3 -2.98023e-08
v -0.7 1.1 -2.98023e-08
v -0.7 1.3 -2.98023e-08
v -0.6 1.3 -2.98023e-08
v -0.6 1.5 -2.98023e-08
v -0.5 0.5 -2.98023e-08
v -0.5 0.6 -2.98023e-08
v -0.5 1.5 -2.98023e-08
v -0.5 1.7 -2.98023e-08
v -0.4 0.5 -2.98023e-08
v -0.4 0.6 -2.98023e-08
v -0.4 1.7 -2.98023e-08
v -0.4 1.9 -2.98023e-08
v -0.3 0.7 -2.98023e-08
v -0.3 0.8 -2.98023e-08
v -0.3 1.3 -2.98023e-08
v -0.3 1.4 -2.98023e-08
v -0.3 1.9 -2.98023e-08
v -0.3 2.1 -2.98023e-08
v -0.2 0.7 -2.98023e-08
v -0.2 0.8 -2.98023e-08
v -0.2 1.3 -2.98023e-08
v -0.2 1.4 -2.98023e-08
v 1.19209e-07 0.4 -2.98023e-08
v 1.19209e-07 0.5 -2.98023e-08
v 0.1 0.4 -2.98023e-08
v 0.1 0.5 -2.98023e-08
v 0.1 1.5 -2.98023e-08
v 0.1 1.6 -2.98023e-08
v 0.2 1.5 -2.98023e-08
v 0.2 1.6 -2.98023e-08
v 0.3 0.9 -2.98023e-08
v 0.3 1 -2.98023e-08
v 0.3 1.9 -2.98023e-08
v 0.3 2.1 -2.98023e-08
v 0.4 0.9 -2.98023e-08
v 0.4 1 -2.98023e-08
v 0.4 1.7 -2.98023e-08
v 0.4 1.9 -2.98023e-08
v 0.5 1.5 -2.98023e-08
v 0.5 1.7 -2.98023e-08
v 0.6 1.3 -2.98023e-08
v 0.6 1.5 -2.98023e-08
v 0.7 0 -2.98023e-08
v 0.7 0.1 -2.98023e-08
v 0.7 0.2 -2.98023e-08
v 0.7 0.3 -2.98023e-08
v 0.7 1.1 -2.98023e-08
v 0.7 1.3 -2.98023e-08
v 0.8 0.1 -2.98023e-08
v 0.8 0.2 -2.98023e-08
v 0.8 0.3 -2.98023e-08
v 0.8 0.6 -2.98023e-08
v 0.8 0.9 -2.98023e-08
v 0.8 1.1 -2.98023e-08
v 0.9 0.2 -2.98023e-08
v 0.9 0.5 -2.98023e-08
v 0.9 0.6 -2.98023e-08
v 0.9 0.7 -2.98023e-08
v 0.9 0.9 -2.98023e-08
v 1 0.5 -2.98023e-08
v 1 0.7 -2.98023e-08
v -0.7 0 0.3
v 0.7 0 0.3
v -0.7 0 -2.98023e-08
v 0.7 0 -2.98023e-08
v -0.8 0.1 0.3
v -0.7 0.1 0.3
v 0.7 0.1 0.3
v 0.8 0.1 0.3
v -0.8 0.1 -2.98023e-08
v -0.7 0.1 -2.98023e-08
v 0.7 0.1 -2.98023e-08
v 0.8 0.1 -2.98023e-08
v -0.9 0.2 0.3
v -0.8 0.2 0.3
v 0.8 0.2 0.3
v 0.9 0.2 0.3
v -0.9 0.2 -2.98023e-08
v -0.8 0.2 -2.98023e-08
v 0.8 0.2 -2.98023e-08
v 0.9 0.2 -2.98023e-08
v -1 0.5 0.3
v -0.9 0.5 0.3
v 0.9 0.5 0.3
v 1 0.5 0.3
v -1 0.5 -2.98023e-08
v -0.9 0.5 -2.98023e-08
v 0.9 0.5 -2.98023e-08
v 1 0.5 -2.98023e-08
v -1 0.7 0.3
v -0.9 0.7 0.3
v 0.9 0.7 0.3
v 1 0.7 0.3
v -1 0.7 -2.98023e-08
v -0.9 0.7 -2.98023e-08
v 0.9 0.7 -2.98023e-08
v 1 0.7 -2.98023e-08
v -0.9 0.9 0.3
v -0.8 0.9 0.3
v 0.8 0.9 0.3
v 0.9 0.9 0.3
v -0.9 0.9 -2.98023e-08
v -0.8 0.9 -2.98023e-08
v 0.8 0.9 -2.98023e-08
v 0.9 0.9 -2.98023e-08
v -0.8 1.1 0.3
v -0.7 1.1 0.3
v 0.7 1.1 0.3
v 0.8 1.1 0.3
v -0.8 1.1 -2.98023e-08
v -0.7 1.1 -2.98023e-08
v 0.7 1.1 -2.98023e-08
v 0.8 1.1 -2.98023e-08
v -0.7 1.3 0.3
v -0.6 1.3 0.3
v 0.6 1.3 0.3
v 0.7 1.3 0.3
v -0.7 1.3 -2.98023e-08
v -0.6 1.3 -2.98023e-08
v 0.6 1.3 -2.98023e-08
v 0.7 1.3 -2.98023e-08
v -0.6 1.5 0.3
v -0.5 1.5 0.3
v 0.5 1.5 0.3
v 0.6 1.5 0.3
v -0.6 1.5 -2.98023e-08
v -0.5 1.5 -2.98023e-08
v 0.5 1.5 -2.98023e-08
v 0.6 1.5 -2.98023e-08
v -0.5 1.7 0.3
v -0.4 1.7 0.3
v 0.4 1.7 0.3
v 0.5 1.7 0.3
v -0.5 1.7 -2.98023e-08
v -0.4 1.7 -2.98023e-08
v 0.4 1.7 -2.98023e-08
v 0.5 1.7 -2.98023e-08
v -0.4 1.9 0.3
v -0.3 1.9 0.3
v 0.3 1.9 0.3
v 0.4 1.9 0.3
v -0.4 1.9 -2.98023e-08
v -0.3 1.9 -2.98023e-08
v 0.3 1.9 -2.98023e-08
v 0.4 1.9 -2.98023e-08
v -0.3 2.1 0.3
v 0.3 2.1 0.3
v -0.3 2.1 -2.98023e-08
v 0.3 2.1 -2.98023e-08

# faces
f 3/2/1 2/2/1 1/2/1
f 4/2/1 2/2/1 3/2/1
f 7/2/1 6/2/1 5/2/1
f 8/2/1 6/2/1 7/2/1
f 11/1/1 10/1/1 9/1/1
f 12/1/1 10/1/1 11/1/1
f 15/2/1 14/2/1 13/2/1
f 16/2/1 14/2/1 15/2/1
f 19/1/1 18/1/1 17/1/1
f 20/1/1 18/1/1 19/1/1
f 23/2/1 22/2/1 21/2/1
f 24/2/1 22/2/1 23/2/1
f 27/1/1 26/1/1 25/1/1
f 28/1/1 26/1/1 27/1/1
f 31/1/1 30/1/1 29/1/1
f 32/1/1 30/1/1 31/1/1
f 35/1/1 34/1/1 33/1/1
f 36/1/1 34/1/1 35/1/1
f 39/1/1 38/1/1 37/1/1
f 40/1/1 38/1/1 39/1/1
f 43/1/1 42/1/1 41/1/1
f 44/1/1 42/1/1 43/1/1
f 45/1/2 46/1/2 47/1/2
f 47/1/2 46/1/2 48/1/2
f 49/1/2 50/1/2 51/1/2
f 51/1/2 50/1/2 52/1/2
f 53/1/2 54/1/2 55/1/2
f 55/1/2 54/1/2 56/1/2
f 57/1/2 58/1/2 59/1/2
f 59/1/2 58/1/2 60/1/2
f 61/2/2 62/2/2 63/2/2
f 63/2/2 62/2/2 64/2/2
f 65/1/2 66/1/2 67/1/2
f 67/1/2 66/1/2 68/1/2
f 69/2/2 70/2/2 71/2/2
f 71/2/2 70/2/2 72/2/2
f 73/1/2 74/1/2 75/1/2
f 75/1/2 74/1/2 76/1/2
f 77/2/2 78/2/2 79/2/2
f 79/2/2 78/2/2 80/2/2
f 81/1/2 82/1/2 83/1/2
f 83/1/2 82/1/2 84/1/2
f 85/2/2 86/2/2 87/2/2
f 87/2/2 86/2/2 88/2/2
f 92/2/3 90/2/3 89/2/3
f 93/2/3 90/2/3 92/2/3
f 94/2/3 90/2/3 93/2/3
f 97/2/3 92/2/3 91/2/3
f 97/2/3 93/2/3 92/2/3
f 98/2/3 93/2/3 97/2/3
f 99/1/3 95/1/3 94/1/3
f 99/2/3 93/2/3 98/2/3
f 99/1/3 94/1/3 93/1/3
f 100/1/3 95/1/3 99/1/3
f 103/2/3 98/2/3 97/2/3
f 103/2/3 97/2/3 96/2/3
f 104/2/3 98/2/3 103/2/3
f 105/1/3 101/1/3 100/1/3
f 105/2/3 98/2/3 104/2/3
f 105/1/3 100/1/3 99/1/3
f 105/1/3 99/1/3 98/1/3
f 106/1/3 101/1/3 105/1/3
f 108/1/3 105/1/3 104/1/3
f 108/1/3 107/1/3 106/1/3
f 108/1/3 106/1/3 105/1/3
f 110/1/3 108/1/3 104/1/3
f 110/1/3 109/1/3 108/1/3
f 111/1/3 109/1/3 110/1/3
f 112/1/3 109/1/3 111/1/3
f 114/1/3 110/1/3 104/1/3
f 114/3/3 111/3/3 110/3/3
f 115/1/3 113/1/3 112/1/3
f 115/3/3 111/3/3 114/3/3
f 115/1/3 112/1/3 111/1/3
f 116/1/3 113/1/3 115/1/3
f 118/1/3 115/1/3 114/1/3
f 118/1/3 117/1/3 116/1/3
f 118/1/3 116/1/3 115/1/3
f 119/1/3 117/1/3 118/1/3
f 120/1/3 117/1/3 119/1/3
f 121/1/3 117/1/3 120/1/3
f 122/1/3 117/1/3 121/1/3
f 124/1/3 118/1/3 114/1/3
f 124/3/3 119/3/3 118/3/3
f 125/1/3 120/1/3 119/1/3
f 125/3/3 119/3/3 124/3/3
f 126/3/3 121/3/3 120/3/3
f 126/1/3 120/1/3 125/1/3
f 127/1/3 123/1/3 122/1/3
f 127/3/3 121/3/3 126/3/3
f 127/1/3 122/1/3 121/1/3
f 128/1/3 114/1/3 104/1/3
f 128/1/3 126/1/3 125/1/3
f 128/1/3 127/1/3 126/1/3
f 128/1/3 124/1/3 114/1/3
f 128/1/3 125/1/3 124/1/3
f 129/1/3 127/1/3 128/1/3
f 130/1/3 128/1/3 104/1/3
f 130/3/3 129/3/3 128/3/3
f 131/1/3 127/1/3 129/1/3
f 131/3/3 129/3/3 130/3/3
f 132/1/3 123/1/3 127/1/3
f 132/1/3 127/1/3 131/1/3
f 133/1/3 123/1/3 132/1/3
f 134/1/3 131/1/3 130/1/3
f 134/1/3 132/1/3 131/1/3
f 134/3/3 133/3/3 132/3/3
f 135/1/3 123/1/3 133/1/3
f 135/3/3 133/3/3 134/3/3
f 136/1/3 134/1/3 130/1/3
f 136/1/3 135/1/3 134/1/3
f 137/1/3 135/1/3 136/1/3
f 138/1/3 123/1/3 135/1/3
f 138/1/3 135/1/3 137/1/3
f 139/1/3 123/1/3 138/1/3
f 140/3/3 137/3/3 136/3/3
f 140/1/3 136/1/3 130/1/3
f 141/1/3 138/1/3 137/1/3
f 141/3/3 137/3/3 140/3/3
f 142/1/3 138/1/3 141/1/3
f 143/1/3 138/1/3 142/1/3
f 144/1/3 141/1/3 140/1/3
f 144/1/3 142/1/3 141/1/3
f 145/1/3 142/1/3 144/1/3
f 146/1/3 144/1/3 140/1/3
f 147/1/3 144/1/3 146/1/3
f 148/2/3 104/2/3 103/2/3
f 148/2/3 103/2/3 102/2/3
f 149/2/3 104/2/3 148/2/3
f 150/1/3 146/1/3 140/1/3
f 150/2/3 104/2/3 149/2/3
f 150/1/3 130/1/3 104/1/3
f 150/1/3 140/1/3 130/1/3
f 151/1/3 146/1/3 150/1/3
f 152/1/3 146/1/3 151/1/3
f 153/1/3 146/1/3 152/1/3
f 154/2/3 150/2/3 149/2/3
f 154/2/3 151/2/3 150/2/3
f 155/2/3 151/2/3 154/2/3
f 156/1/3 152/1/3 151/1/3
f 156/2/3 151/2/3 155/2/3
f 157/1/3 152/1/3 156/1/3
f 158/1/3 152/1/3 157/1/3
f 159/1/3 152/1/3 158/1/3
f 160/2/3 156/2/3 155/2/3
f 160/2/3 157/2/3 156/2/3
f 161/2/3 157/2/3 160/2/3
f 162/1/3 158/1/3 157/1/3
f 162/2/3 157/2/3 161/2/3
f 163/1/3 158/1/3 162/1/3
f 164/1/3 158/1/3 163/1/3
f 165/2/3 162/2/3 161/2/3
f 165/2/3 163/2/3 162/2/3
f 166/2/3 163/2/3 165/2/3
f 167/2/4 168/2/4 170/2/4
f 170/2/4 168/2/4 171/2/4
f 171/2/4 168/2/4 172/2/4
f 169/2/4 170/2/4 175/2/4
f 170/2/4 171/2/4 175/2/4
f 175/2/4 171/2/4 176/2/4
f 172/1/4 173/1/4 177/1/4
f 176/2/4 171/2/4 177/2/4
f 171/1/4 172/1/4 177/1/4
f 177/1/4 173/1/4 178/1/4
f 175/2/4 176/2/4 181/2/4
f 174/2/4 175/2/4 181/2/4
f 181/2/4 176/2/4 182/2/4
f 178/1/4 179/1/4 183/1/4
f 182/2/4 176/2/4 183/2/4
f 177/1/4 178/1/4 183/1/4
f 176/1/4 177/1/4 183/1/4
f 183/1/4 179/1/4 184/1/4
f 182/1/4 183/1/4 186/1/4
f 184/1/4 185/1/4 186/1/4
f 183/1/4 184/1/4 186/1/4
f 182/1/4 186/1/4 188/1/4
f 186/1/4 187/1/4 188/1/4
f 188/1/4 187/1/4 189/1/4
f 189/1/4 187/1/4 190/1/4
f 182/1/4 188/1/4 192/1/4
f 188/3/4 189/3/4 192/3/4
f 190/1/4 191/1/4 193/1/4
f 192/3/4 189/3/4 193/3/4
f 189/1/4 190/1/4 193/1/4
f 193/1/4 191/1/4 194/1/4
f 192/1/4 193/1/4 196/1/4
f 194/1/4 195/1/4 196/1/4
f 193/1/4 194/1/4 196/1/4
f 196/1/4 195/1/4 197/1/4
f 197/1/4 195/1/4 198/1/4
f 198/1/4 195/1/4 199/1/4
f 199/1/4 195/1/4 200/1/4
f 192/1/4 196/1/4 202/1/4
f 196/3/4 197/3/4 202/3/4
f 197/1/4 198/1/4 203/1/4
f 202/3/4 197/3/4 203/3/4
f 198/3/4 199/3/4 204/3/4
f 203/1/4 198/1/4 204/1/4
f 200/1/4 201/1/4 205/1/4
f 204/3/4 199/3/4 205/3/4
f 199/1/4 200/1/4 205/1/4
f 182/1/4 192/1/4 206/1/4
f 203/1/4 204/1/4 206/1/4
f 204/1/4 205/1/4 206/1/4
f 192/1/4 202/1/4 206/1/4
f 202/1/4 203/1/4 206/1/4
f 206/1/4 205/1/4 207/1/4
f 182/1/4 206/1/4 208/1/4
f 206/3/4 207/3/4 208/3/4
f 207/1/4 205/1/4 209/1/4
f 208/3/4 207/3/4 209/3/4
f 205/1/4 201/1/4 210/1/4
f 209/1/4 205/1/4 210/1/4
f 210/1/4 201/1/4 211/1/4
f 208/1/4 209/1/4 212/1/4
f 209/1/4 210/1/4 212/1/4
f 210/3/4 211/3/4 212/3/4
f 211/1/4 201/1/4 213/1/4
f 212/3/4 211/3/4 213/3/4
f 208/1/4 212/1/4 214/1/4
f 212/1/4 213/1/4 214/1/4
f 214/1/4 213/1/4 215/1/4
f 213/1/4 201/1/4 216/1/4
f 215/1/4 213/1/4 216/1/4
f 216/1/4 201/1/4 217/1/4
f 214/3/4 215/3/4 218/3/4
f 208/1/4 214/1/4 218/1/4
f 215/1/4 216/1/4 219/1/4
f 218/3/4 215/3/4 219/3/4
f 219/1/4 216/1/4 220/1/4
f 220/1/4 216/1/4 221/1/4
f 218/1/4 219/1/4 222/1/4
f 219/1/4 220/1/4 222/1/4
f 222/1/4 220/1/4 223/1/4
f 218/1/4 222/1/4 224/1/4
f 224/1/4 222/1/4 225/1/4
f 181/2/4 182/2/4 226/2/4
f 180/2/4 181/2/4 226/2/4
f 226/2/4 182/2/4 227/2/4
f 218/1/4 224/1/4 228/1/4
f 227/2/4 182/2/4 228/2/4
f 182/1/4 208/1/4 228/1/4
f 208/1/4 218/1/4 228/1/4
f 228/1/4 224/1/4 229/1/4
f 229/1/4 224/1/4 230/1/4
f 230/1/4 224/1/4 231/1/4
f 227/2/4 228/2/4 232/2/4
f 228/2/4 229/2/4 232/2/4
f 232/2/4 229/2/4 233/2/4
f 229/1/4 230/1/4 234/1/4
f 233/2/4 229/2/4 234/2/4
f 234/1/4 230/1/4 235/1/4
f 235/1/4 230/1/4 236/1/4
f 236/1/4 230/1/4 237/1/4
f 233/2/4 234/2/4 238/2/4
f 234/2/4 235/2/4 238/2/4
f 238/2/4 235/2/4 239/2/4
f 235/1/4 236/1/4 240/1/4
f 239/2/4 235/2/4 240/2/4
f 240/1/4 236/1/4 241/1/4
f 241/1/4 236/1/4 242/1/4
f 239/2/4 240/2/4 243/2/4
f 240/2/4 241/2/4 243/2/4
f 243/2/4 241/2/4 244/2/4
f 247/2/5 246/2/5 245/2/5
f 248/2/5 246/2/5 247/2/5
f 253/2/5 250/2/5 249/2/5
f 254/2/5 250/2/5 253/2/5
f 255/2/5 252/2/5 251/2/5
f 256/2/5 252/2/5 255/2/5
f 261/2/5 258/2/5 257/2/5
f 262/2/5 258/2/5 261/2/5
f 263/2/5 260/2/5 259/2/5
f 264/2/5 260/2/5 263/2/5
f 269/2/5 266/2/5 265/2/5
f 270/2/5 266/2/5 269/2/5
f 271/2/5 268/2/5 267/2/5
f 272/2/5 268/2/5 271/2/5
f 273/2/6 274/2/6 277/2/6
f 277/2/6 274/2/6 278/2/6
f 275/2/6 276/2/6 279/2/6
f 279/2/6 276/2/6 280/2/6
f 281/1/6 282/1/6 285/1/6
f 285/1/6 282/1/6 286/1/6
f 283/1/6 284/1/6 287/1/6
f 287/1/6 284/1/6 288/1/6
f 289/1/6 290/1/6 293/1/6
f 293/1/6 290/1/6 294/1/6
f 291/1/6 292/1/6 295/1/6
f 295/1/6 292/1/6 296/1/6
f 297/1/6 298/1/6 301/1/6
f 301/1/6 298/1/6 302/1/6
f 299/1/6 300/1/6 303/1/6
f 303/1/6 300/1/6 304/1/6
f 305/1/6 306/1/6 309/1/6
f 309/1/6 306/1/6 310/1/6
f 307/1/6 308/1/6 311/1/6
f 311/1/6 308/1/6 312/1/6
f 313/1/6 314/1/6 317/1/6
f 317/1/6 314/1/6 318/1/6
f 315/1/6 316/1/6 319/1/6
f 319/1/6 316/1/6 320/1/6
f 321/1/6 322/1/6 325/1/6
f 325/1/6 322/1/6 326/1/6
f 323/1/6 324/1/6 327/1/6
f 327/1/6 324/1/6 328/1/6
f 329/1/6 330/1/6 331/1/6
f 331/1/6 330/1/6 332/1/6
