# MagicaVoxel @ Ephtracy

# group
o 

# material
mtllib karmackih_VR_FONAR.mtl
usemtl palette

# normals
vn -1 0 0
vn 1 0 0
vn 0 0 1
vn 0 0 -1
vn 0 -1 0
vn 0 1 0

# texcoords
vt 0.560547 0.5
vt 0.982422 0.5
vt 0.986328 0.5

# verts
v -0.5 0.1 0
v -0.5 0.1 -0.1
v -0.5 0.7 0
v -0.5 0.7 -0.1
v -0.4 0.2 0.3
v -0.4 0.2 0.2
v -0.4 0.8 0.2
v -0.4 0.8 0.1
v -0.4 0.9 0.3
v -0.4 0.9 0.2
v -0.4 1 0.2
v -0.4 1 0.1
v -0.3 0 0.3
v -0.3 0 0.2
v -0.3 0 -0.2
v -0.3 0 -0.3
v -0.3 0.1 0.2
v -0.3 0.1 0
v -0.3 0.1 -0.1
v -0.3 0.1 -0.2
v -0.3 0.2 0.3
v -0.3 0.2 0.2
v -0.3 0.2 0
v -0.3 0.2 -0.1
v -0.3 0.2 -0.3
v -0.3 0.3 0.2
v -0.3 0.3 -0.3
v -0.2 0.1 -0.3
v -0.2 0.1 -0.4
v -0.2 0.2 -0.3
v -0.2 0.3 0.2
v -0.2 0.3 -0.2
v -0.2 0.3 -0.3
v -0.2 0.4 0.2
v -0.2 0.4 -0.2
v -0.2 0.4 -0.4
v -0.2 0.4 -0.5
v -0.2 0.5 -0.3
v -0.2 0.5 -0.4
v -0.2 0.8 -0.4
v -0.2 0.8 -0.5
v -0.1 0.2 0.4
v -0.1 0.2 0.3
v -0.1 0.3 0.3
v -0.1 0.5 0.5
v -0.1 0.5 0.4
v -0.1 0.6 0.4
v -0.1 0.6 0.3
v -0.1 0.9 0.5
v -0.1 0.9 0.4
v 0.1 0.3 0.1
v 0.1 0.3 -0.1
v 0.1 0.4 0.1
v 0.1 0.4 -0.1
v 0.2 0 0.3
v 0.2 0 0.2
v 0.2 0 -0.2
v 0.2 0 -0.3
v 0.2 0.1 0.3
v 0.2 0.1 0.2
v 0.2 0.1 -0.2
v 0.2 0.1 -0.3
v 0.2 0.2 0.4
v 0.2 0.2 0.3
v 0.2 0.2 -0.3
v 0.2 0.2 -0.4
v 0.2 0.3 0.4
v 0.2 0.3 0.3
v 0.2 0.3 -0.3
v 0.2 0.4 -0.3
v 0.2 0.4 -0.4
v 0.3 0.3 0.4
v 0.3 0.3 0.3
v 0.3 0.4 -0.3
v 0.3 0.4 -0.4
v 0.3 0.5 -0.4
v 0.3 0.5 -0.5
v 0.3 0.6 0.4
v 0.3 0.6 0.3
v 0.3 0.6 -0.3
v 0.3 0.6 -0.4
v 0.3 0.8 -0.4
v 0.3 0.8 -0.5
v 0.4 0.3 0.1
v 0.4 0.3 0
v 0.4 0.4 0.1
v 0.4 0.4 0
v 0.5 0.4 0.1
v 0.5 0.4 0
v 0.5 0.7 0.1
v 0.5 0.7 0
v -0.4 0.2 0
v -0.4 0.2 -0.1
v -0.4 0.6 0
v -0.4 0.6 -0.1
v -0.3 0.3 0.3
v -0.3 0.3 0.2
v -0.3 0.6 0
v -0.3 0.6 -0.1
v -0.3 0.7 0
v -0.3 0.7 -0.1
v -0.3 0.8 0.2
v -0.3 0.8 0.1
v -0.3 0.9 0.3
v -0.3 0.9 0.2
v -0.3 0.9 0.1
v -0.2 0 0.3
v -0.2 0 0.2
v -0.2 0 -0.2
v -0.2 0 -0.3
v -0.2 0.1 0.3
v -0.2 0.1 0.2
v -0.2 0.1 -0.2
v -0.2 0.1 -0.3
v -0.2 0.9 0.2
v -0.2 0.9 0.1
v -0.2 1 0.2
v -0.2 1 0.1
v -0.1 0.1 -0.3
v -0.1 0.1 -0.4
v -0.1 0.2 -0.3
v -0.1 0.3 0.1
v -0.1 0.3 -0.1
v -0.1 0.3 -0.3
v -0.1 0.4 0.1
v -0.1 0.4 -0.1
v -0.1 0.4 -0.4
v -0.1 0.4 -0.5
v -0.1 0.5 -0.3
v -0.1 0.5 -0.4
v -0.1 0.8 -0.4
v -0.1 0.8 -0.5
v 0 0.2 0.4
v 0 0.2 0.3
v 0 0.3 0.3
v 0 0.5 0.5
v 0 0.5 0.4
v 0 0.6 0.4
v 0 0.6 0.3
v 0 0.9 0.5
v 0 0.9 0.4
v 0.2 0.3 0.2
v 0.2 0.3 -0.2
v 0.2 0.4 0.2
v 0.2 0.4 -0.2
v 0.3 0 0.3
v 0.3 0 0.2
v 0.3 0 -0.2
v 0.3 0 -0.3
v 0.3 0.1 0.2
v 0.3 0.1 0.1
v 0.3 0.1 0
v 0.3 0.1 -0.2
v 0.3 0.2 0.3
v 0.3 0.2 0.2
v 0.3 0.2 0.1
v 0.3 0.2 0
v 0.3 0.2 -0.2
v 0.3 0.2 -0.3
v 0.3 0.2 -0.4
v 0.3 0.3 0.3
v 0.3 0.3 0.2
v 0.3 0.3 0.1
v 0.3 0.3 0
v 0.3 0.3 -0.2
v 0.3 0.3 -0.3
v 0.3 0.3 -0.4
v 0.4 0.1 0.1
v 0.4 0.1 0
v 0.4 0.2 0.4
v 0.4 0.2 0.3
v 0.4 0.2 0.1
v 0.4 0.2 0
v 0.4 0.3 -0.3
v 0.4 0.3 -0.4
v 0.4 0.5 -0.4
v 0.4 0.5 -0.5
v 0.4 0.6 0.4
v 0.4 0.6 0.3
v 0.4 0.6 -0.3
v 0.4 0.6 -0.4
v 0.4 0.8 -0.4
v 0.4 0.8 -0.5
v 0.6 0.2 0.1
v 0.6 0.2 0
v 0.6 0.7 0.1
v 0.6 0.7 0
v -0.1 0.5 0.5
v -0.1 0.9 0.5
v 0 0.5 0.5
v 0 0.9 0.5
v -0.1 0.2 0.4
v -0.1 0.5 0.4
v 0 0.2 0.4
v 0 0.5 0.4
v 0.2 0.2 0.4
v 0.2 0.3 0.4
v 0.3 0.3 0.4
v 0.3 0.6 0.4
v 0.4 0.2 0.4
v 0.4 0.6 0.4
v -0.4 0.2 0.3
v -0.4 0.9 0.3
v -0.3 0 0.3
v -0.3 0.2 0.3
v -0.3 0.3 0.3
v -0.3 0.9 0.3
v -0.2 0 0.3
v -0.2 0.1 0.3
v -0.2 0.2 0.3
v -0.2 0.3 0.3
v -0.1 0.2 0.3
v -0.1 0.3 0.3
v 0 0.2 0.3
v 0 0.3 0.3
v 0.2 0 0.3
v 0.2 0.1 0.3
v 0.2 0.2 0.3
v 0.2 0.3 0.3
v 0.3 0 0.3
v 0.3 0.2 0.3
v -0.4 0.9 0.2
v -0.4 1 0.2
v -0.3 0.9 0.2
v -0.2 0.3 0.2
v -0.2 0.4 0.2
v -0.2 0.9 0.2
v -0.2 1 0.2
v -0.1 0.3 0.2
v 0 0.3 0.2
v 0.2 0.3 0.2
v 0.2 0.4 0.2
v 0.3 0.1 0.1
v 0.3 0.2 0.1
v 0.3 0.3 0.1
v 0.4 0.1 0.1
v 0.4 0.2 0.1
v 0.4 0.3 0.1
v 0.4 0.4 0.1
v 0.5 0.4 0.1
v 0.5 0.7 0.1
v 0.6 0.2 0.1
v 0.6 0.7 0.1
v -0.5 0.1 0
v -0.5 0.7 0
v -0.4 0.2 0
v -0.4 0.6 0
v -0.3 0.1 0
v -0.3 0.2 0
v -0.3 0.6 0
v -0.3 0.7 0
v -0.1 0.3 -0.1
v -0.1 0.4 -0.1
v 0.1 0.3 -0.1
v 0.1 0.4 -0.1
v -0.3 0 -0.2
v -0.3 0.1 -0.2
v -0.2 0 -0.2
v -0.2 0.1 -0.2
v 0.2 0 -0.2
v 0.2 0.1 -0.2
v 0.3 0 -0.2
v 0.3 0.1 -0.2
v -0.2 0.3 -0.3
v -0.2 0.5 -0.3
v -0.1 0.3 -0.3
v -0.1 0.5 -0.3
v 0.2 0.3 -0.3
v 0.2 0.4 -0.3
v 0.3 0.3 -0.3
v 0.3 0.4 -0.3
v 0.3 0.6 -0.3
v 0.4 0.3 -0.3
v 0.4 0.6 -0.3
v -0.2 0.5 -0.4
v -0.2 0.8 -0.4
v -0.1 0.5 -0.4
v -0.1 0.8 -0.4
v 0.3 0.6 -0.4
v 0.3 0.8 -0.4
v 0.4 0.6 -0.4
v 0.4 0.8 -0.4
v -0.1 0.6 0.4
v -0.1 0.9 0.4
v 0 0.6 0.4
v 0 0.9 0.4
v -0.1 0.3 0.3
v -0.1 0.6 0.3
v 0 0.3 0.3
v 0 0.6 0.3
v 0.3 0.2 0.3
v 0.3 0.3 0.3
v 0.3 0.6 0.3
v 0.4 0.2 0.3
v 0.4 0.6 0.3
v -0.4 0.2 0.2
v -0.4 0.8 0.2
v -0.3 0 0.2
v -0.3 0.1 0.2
v -0.3 0.2 0.2
v -0.3 0.3 0.2
v -0.3 0.8 0.2
v -0.2 0 0.2
v -0.2 0.1 0.2
v 0.2 0 0.2
v 0.2 0.1 0.2
v 0.3 0 0.2
v 0.3 0.1 0.2
v -0.4 0.8 0.1
v -0.4 1 0.1
v -0.3 0.8 0.1
v -0.3 0.9 0.1
v -0.2 0.9 0.1
v -0.2 1 0.1
v -0.1 0.3 0.1
v -0.1 0.4 0.1
v 0.1 0.3 0.1
v 0.1 0.4 0.1
v 0.3 0.1 0
v 0.3 0.2 0
v 0.3 0.3 0
v 0.4 0.1 0
v 0.4 0.2 0
v 0.4 0.3 0
v 0.4 0.4 0
v 0.5 0.4 0
v 0.5 0.7 0
v 0.6 0.2 0
v 0.6 0.7 0
v -0.5 0.1 -0.1
v -0.5 0.7 -0.1
v -0.4 0.2 -0.1
v -0.4 0.6 -0.1
v -0.3 0.1 -0.1
v -0.3 0.2 -0.1
v -0.3 0.6 -0.1
v -0.3 0.7 -0.1
v -0.2 0.3 -0.2
v -0.2 0.4 -0.2
v 0.2 0.3 -0.2
v 0.2 0.4 -0.2
v -0.3 0 -0.3
v -0.3 0.2 -0.3
v -0.3 0.3 -0.3
v -0.2 0 -0.3
v -0.2 0.1 -0.3
v -0.2 0.2 -0.3
v -0.2 0.3 -0.3
v -0.1 0.1 -0.3
v -0.1 0.2 -0.3
v -0.1 0.3 -0.3
v 0.2 0 -0.3
v 0.2 0.1 -0.3
v 0.2 0.2 -0.3
v 0.2 0.3 -0.3
v 0.3 0 -0.3
v 0.3 0.2 -0.3
v -0.2 0.1 -0.4
v -0.2 0.4 -0.4
v -0.1 0.1 -0.4
v -0.1 0.4 -0.4
v 0.2 0.2 -0.4
v 0.2 0.4 -0.4
v 0.3 0.2 -0.4
v 0.3 0.3 -0.4
v 0.3 0.4 -0.4
v 0.3 0.5 -0.4
v 0.4 0.3 -0.4
v 0.4 0.5 -0.4
v -0.2 0.4 -0.5
v -0.2 0.8 -0.5
v -0.1 0.4 -0.5
v -0.1 0.8 -0.5
v 0.3 0.5 -0.5
v 0.3 0.8 -0.5
v 0.4 0.5 -0.5
v 0.4 0.8 -0.5
v -0.3 0 0.3
v -0.2 0 0.3
v 0.2 0 0.3
v 0.3 0 0.3
v -0.3 0 0.2
v -0.2 0 0.2
v 0.2 0 0.2
v 0.3 0 0.2
v -0.3 0 -0.2
v -0.2 0 -0.2
v 0.2 0 -0.2
v 0.3 0 -0.2
v -0.3 0 -0.3
v -0.2 0 -0.3
v 0.2 0 -0.3
v 0.3 0 -0.3
v -0.2 0.1 0.3
v 0.2 0.1 0.3
v -0.3 0.1 0.2
v -0.2 0.1 0.2
v 0.2 0.1 0.2
v 0.3 0.1 0.2
v 0.3 0.1 0.1
v 0.4 0.1 0.1
v -0.5 0.1 0
v -0.3 0.1 0
v 0.3 0.1 0
v 0.4 0.1 0
v -0.5 0.1 -0.1
v -0.3 0.1 -0.1
v -0.3 0.1 -0.2
v -0.2 0.1 -0.2
v 0.2 0.1 -0.2
v 0.3 0.1 -0.2
v -0.2 0.1 -0.3
v -0.1 0.1 -0.3
v 0.2 0.1 -0.3
v -0.2 0.1 -0.4
v -0.1 0.1 -0.4
v -0.1 0.2 0.4
v 0 0.2 0.4
v 0.2 0.2 0.4
v 0.4 0.2 0.4
v -0.4 0.2 0.3
v -0.3 0.2 0.3
v -0.1 0.2 0.3
v 0 0.2 0.3
v 0.2 0.2 0.3
v 0.3 0.2 0.3
v 0.4 0.2 0.3
v -0.4 0.2 0.2
v -0.3 0.2 0.2
v 0.4 0.2 0.1
v 0.6 0.2 0.1
v 0.4 0.2 0
v 0.6 0.2 0
v 0.2 0.2 -0.3
v 0.3 0.2 -0.3
v 0.2 0.2 -0.4
v 0.3 0.2 -0.4
v 0.3 0.3 -0.3
v 0.4 0.3 -0.3
v 0.3 0.3 -0.4
v 0.4 0.3 -0.4
v -0.2 0.4 -0.4
v -0.1 0.4 -0.4
v -0.2 0.4 -0.5
v -0.1 0.4 -0.5
v -0.1 0.5 0.5
v 0 0.5 0.5
v -0.1 0.5 0.4
v 0 0.5 0.4
v 0.3 0.5 -0.4
v 0.4 0.5 -0.4
v 0.3 0.5 -0.5
v 0.4 0.5 -0.5
v -0.4 0.6 0
v -0.3 0.6 0
v -0.4 0.6 -0.1
v -0.3 0.6 -0.1
v -0.4 0.8 0.2
v -0.3 0.8 0.2
v -0.4 0.8 0.1
v -0.3 0.8 0.1
v -0.3 0.9 0.2
v -0.2 0.9 0.2
v -0.3 0.9 0.1
v -0.2 0.9 0.1
v -0.4 0.2 0
v -0.3 0.2 0
v -0.4 0.2 -0.1
v -0.3 0.2 -0.1
v 0.2 0.3 0.4
v 0.3 0.3 0.4
v -0.3 0.3 0.3
v -0.2 0.3 0.3
v -0.1 0.3 0.3
v 0 0.3 0.3
v 0.2 0.3 0.3
v 0.3 0.3 0.3
v -0.3 0.3 0.2
v -0.2 0.3 0.2
v -0.1 0.3 0.2
v 0 0.3 0.2
v 0.2 0.3 0.2
v 0.3 0.3 0.2
v -0.1 0.3 0.1
v 0.1 0.3 0.1
v 0.3 0.3 0.1
v 0.4 0.3 0.1
v 0.3 0.3 0
v 0.4 0.3 0
v -0.1 0.3 -0.1
v 0.1 0.3 -0.1
v -0.2 0.3 -0.2
v 0.2 0.3 -0.2
v 0.3 0.3 -0.2
v -0.3 0.3 -0.3
v -0.2 0.3 -0.3
v -0.1 0.3 -0.3
v 0.2 0.3 -0.3
v 0.3 0.3 -0.3
v -0.2 0.4 0.2
v 0.2 0.4 0.2
v -0.1 0.4 0.1
v 0.1 0.4 0.1
v 0.4 0.4 0.1
v 0.5 0.4 0.1
v 0.4 0.4 0
v 0.5 0.4 0
v -0.1 0.4 -0.1
v 0.1 0.4 -0.1
v -0.2 0.4 -0.2
v 0.2 0.4 -0.2
v 0.2 0.4 -0.3
v 0.3 0.4 -0.3
v 0.2 0.4 -0.4
v 0.3 0.4 -0.4
v -0.2 0.5 -0.3
v -0.1 0.5 -0.3
v -0.2 0.5 -0.4
v -0.1 0.5 -0.4
v -0.1 0.6 0.4
v 0 0.6 0.4
v 0.3 0.6 0.4
v 0.4 0.6 0.4
v -0.1 0.6 0.3
v 0 0.6 0.3
v 0.3 0.6 0.3
v 0.4 0.6 0.3
v 0.3 0.6 -0.3
v 0.4 0.6 -0.3
v 0.3 0.6 -0.4
v 0.4 0.6 -0.4
v 0.5 0.7 0.1
v 0.6 0.7 0.1
v -0.5 0.7 0
v -0.3 0.7 0
v 0.5 0.7 0
v 0.6 0.7 0
v -0.5 0.7 -0.1
v -0.3 0.7 -0.1
v -0.2 0.8 -0.4
v -0.1 0.8 -0.4
v 0.3 0.8 -0.4
v 0.4 0.8 -0.4
v -0.2 0.8 -0.5
v -0.1 0.8 -0.5
v 0.3 0.8 -0.5
v 0.4 0.8 -0.5
v -0.1 0.9 0.5
v 0 0.9 0.5
v -0.1 0.9 0.4
v 0 0.9 0.4
v -0.4 0.9 0.3
v -0.3 0.9 0.3
v -0.4 0.9 0.2
v -0.3 0.9 0.2
v -0.4 1 0.2
v -0.2 1 0.2
v -0.4 1 0.1
v -0.2 1 0.1

# faces
f 3/3/1 2/3/1 1/3/1
f 4/3/1 2/3/1 3/3/1
f 7/3/1 6/3/1 5/3/1
f 9/3/1 7/3/1 5/3/1
f 9/3/1 8/3/1 7/3/1
f 10/3/1 8/3/1 9/3/1
f 11/3/1 8/3/1 10/3/1
f 12/3/1 8/3/1 11/3/1
f 17/3/1 14/3/1 13/3/1
f 20/3/1 16/3/1 15/3/1
f 21/3/1 18/3/1 17/3/1
f 21/3/1 17/3/1 13/3/1
f 22/3/1 18/3/1 21/3/1
f 23/3/1 18/3/1 22/3/1
f 24/3/1 20/3/1 19/3/1
f 25/3/1 16/3/1 20/3/1
f 25/3/1 20/3/1 24/3/1
f 26/2/1 23/2/1 22/2/1
f 26/2/1 24/2/1 23/2/1
f 26/2/1 25/2/1 24/2/1
f 27/2/1 25/2/1 26/2/1
f 30/3/1 29/3/1 28/3/1
f 33/3/1 29/3/1 30/3/1
f 34/2/1 32/2/1 31/2/1
f 35/2/1 32/2/1 34/2/1
f 36/3/1 29/3/1 33/3/1
f 38/3/1 37/3/1 36/3/1
f 38/3/1 36/3/1 33/3/1
f 39/3/1 37/3/1 38/3/1
f 40/3/1 37/3/1 39/3/1
f 41/3/1 37/3/1 40/3/1
f 44/3/1 43/3/1 42/3/1
f 46/3/1 44/3/1 42/3/1
f 47/3/1 44/3/1 46/3/1
f 47/3/1 46/3/1 45/3/1
f 48/3/1 44/3/1 47/3/1
f 49/3/1 47/3/1 45/3/1
f 50/3/1 47/3/1 49/3/1
f 53/2/1 52/2/1 51/2/1
f 54/2/1 52/2/1 53/2/1
f 59/3/1 56/3/1 55/3/1
f 60/3/1 56/3/1 59/3/1
f 61/3/1 58/3/1 57/3/1
f 62/3/1 58/3/1 61/3/1
f 67/3/1 64/3/1 63/3/1
f 68/3/1 64/3/1 67/3/1
f 69/3/1 66/3/1 65/3/1
f 70/3/1 66/3/1 69/3/1
f 71/3/1 66/3/1 70/3/1
f 76/3/1 75/3/1 74/3/1
f 78/3/1 73/3/1 72/3/1
f 79/3/1 73/3/1 78/3/1
f 80/3/1 77/3/1 76/3/1
f 80/3/1 76/3/1 74/3/1
f 81/3/1 77/3/1 80/3/1
f 82/3/1 77/3/1 81/3/1
f 83/3/1 77/3/1 82/3/1
f 86/3/1 85/3/1 84/3/1
f 87/3/1 85/3/1 86/3/1
f 90/3/1 89/3/1 88/3/1
f 91/3/1 89/3/1 90/3/1
f 92/3/2 93/3/2 94/3/2
f 94/3/2 93/3/2 95/3/2
f 98/3/2 99/3/2 100/3/2
f 100/3/2 99/3/2 101/3/2
f 96/3/2 97/3/2 102/3/2
f 96/3/2 102/3/2 104/3/2
f 102/3/2 103/3/2 104/3/2
f 104/3/2 103/3/2 105/3/2
f 105/3/2 103/3/2 106/3/2
f 107/3/2 108/3/2 111/3/2
f 111/3/2 108/3/2 112/3/2
f 109/3/2 110/3/2 113/3/2
f 113/3/2 110/3/2 114/3/2
f 115/3/2 116/3/2 117/3/2
f 117/3/2 116/3/2 118/3/2
f 119/3/2 120/3/2 121/3/2
f 121/3/2 120/3/2 124/3/2
f 122/2/2 123/2/2 125/2/2
f 125/2/2 123/2/2 126/2/2
f 124/3/2 120/3/2 127/3/2
f 127/3/2 128/3/2 129/3/2
f 124/3/2 127/3/2 129/3/2
f 129/3/2 128/3/2 130/3/2
f 130/3/2 128/3/2 131/3/2
f 131/3/2 128/3/2 132/3/2
f 133/3/2 134/3/2 135/3/2
f 133/3/2 135/3/2 137/3/2
f 137/3/2 135/3/2 138/3/2
f 136/3/2 137/3/2 138/3/2
f 138/3/2 135/3/2 139/3/2
f 136/3/2 138/3/2 140/3/2
f 140/3/2 138/3/2 141/3/2
f 142/2/2 143/2/2 144/2/2
f 144/2/2 143/2/2 145/2/2
f 146/3/2 147/3/2 150/3/2
f 148/3/2 149/3/2 153/3/2
f 150/3/2 151/3/2 154/3/2
f 146/3/2 150/3/2 154/3/2
f 154/3/2 151/3/2 155/3/2
f 155/3/2 151/3/2 156/3/2
f 152/3/2 153/3/2 157/3/2
f 153/3/2 149/3/2 158/3/2
f 157/3/2 153/3/2 158/3/2
f 158/3/2 149/3/2 159/3/2
f 154/3/2 155/3/2 161/3/2
f 155/2/2 156/2/2 162/2/2
f 161/3/2 155/3/2 162/3/2
f 162/2/2 156/2/2 163/2/2
f 157/2/2 158/2/2 164/2/2
f 159/3/2 160/3/2 165/3/2
f 164/2/2 158/2/2 165/2/2
f 158/3/2 159/3/2 165/3/2
f 165/3/2 160/3/2 166/3/2
f 166/3/2 160/3/2 167/3/2
f 168/3/2 169/3/2 172/3/2
f 172/3/2 169/3/2 173/3/2
f 174/3/2 175/3/2 176/3/2
f 170/3/2 171/3/2 178/3/2
f 178/3/2 171/3/2 179/3/2
f 176/3/2 177/3/2 180/3/2
f 174/3/2 176/3/2 180/3/2
f 180/3/2 177/3/2 181/3/2
f 181/3/2 177/3/2 182/3/2
f 182/3/2 177/3/2 183/3/2
f 184/3/2 185/3/2 186/3/2
f 186/3/2 185/3/2 187/3/2
f 190/3/3 189/3/3 188/3/3
f 191/3/3 189/3/3 190/3/3
f 194/3/3 193/3/3 192/3/3
f 195/3/3 193/3/3 194/3/3
f 198/3/3 197/3/3 196/3/3
f 200/3/3 198/3/3 196/3/3
f 200/3/3 199/3/3 198/3/3
f 201/3/3 199/3/3 200/3/3
f 205/3/3 203/3/3 202/3/3
f 206/3/3 203/3/3 205/3/3
f 207/3/3 203/3/3 206/3/3
f 208/3/3 205/3/3 204/3/3
f 208/3/3 206/3/3 205/3/3
f 209/3/3 206/3/3 208/3/3
f 210/3/3 206/3/3 209/3/3
f 211/3/3 206/3/3 210/3/3
f 212/3/3 210/3/3 209/3/3
f 212/2/3 211/2/3 210/2/3
f 213/2/3 211/2/3 212/2/3
f 214/3/3 212/3/3 209/3/3
f 217/3/3 214/3/3 209/3/3
f 218/2/3 215/2/3 214/2/3
f 218/3/3 214/3/3 217/3/3
f 219/2/3 215/2/3 218/2/3
f 220/3/3 217/3/3 216/3/3
f 220/3/3 218/3/3 217/3/3
f 221/3/3 218/3/3 220/3/3
f 224/3/3 223/3/3 222/3/3
f 227/3/3 223/3/3 224/3/3
f 228/3/3 223/3/3 227/3/3
f 229/2/3 226/2/3 225/2/3
f 230/2/3 226/2/3 229/2/3
f 231/2/3 226/2/3 230/2/3
f 232/2/3 226/2/3 231/2/3
f 236/3/3 234/3/3 233/3/3
f 236/3/3 235/3/3 234/3/3
f 237/3/3 235/3/3 236/3/3
f 238/3/3 235/3/3 237/3/3
f 240/3/3 239/3/3 238/3/3
f 240/3/3 238/3/3 237/3/3
f 242/3/3 240/3/3 237/3/3
f 242/3/3 241/3/3 240/3/3
f 243/3/3 241/3/3 242/3/3
f 246/3/3 245/3/3 244/3/3
f 247/3/3 245/3/3 246/3/3
f 248/3/3 246/3/3 244/3/3
f 249/3/3 246/3/3 248/3/3
f 250/3/3 245/3/3 247/3/3
f 251/3/3 245/3/3 250/3/3
f 254/2/3 253/2/3 252/2/3
f 255/2/3 253/2/3 254/2/3
f 258/3/3 257/3/3 256/3/3
f 259/3/3 257/3/3 258/3/3
f 262/3/3 261/3/3 260/3/3
f 263/3/3 261/3/3 262/3/3
f 266/3/3 265/3/3 264/3/3
f 267/3/3 265/3/3 266/3/3
f 270/3/3 269/3/3 268/3/3
f 271/3/3 269/3/3 270/3/3
f 273/3/3 271/3/3 270/3/3
f 273/3/3 272/3/3 271/3/3
f 274/3/3 272/3/3 273/3/3
f 277/3/3 276/3/3 275/3/3
f 278/3/3 276/3/3 277/3/3
f 281/3/3 280/3/3 279/3/3
f 282/3/3 280/3/3 281/3/3
f 283/3/4 284/3/4 285/3/4
f 285/3/4 284/3/4 286/3/4
f 287/3/4 288/3/4 289/3/4
f 289/3/4 288/3/4 290/3/4
f 291/3/4 292/3/4 294/3/4
f 292/3/4 293/3/4 294/3/4
f 294/3/4 293/3/4 295/3/4
f 296/3/4 297/3/4 300/3/4
f 300/3/4 297/3/4 301/3/4
f 301/3/4 297/3/4 302/3/4
f 298/3/4 299/3/4 303/3/4
f 303/3/4 299/3/4 304/3/4
f 305/3/4 306/3/4 307/3/4
f 307/3/4 306/3/4 308/3/4
f 309/3/4 310/3/4 311/3/4
f 311/3/4 310/3/4 312/3/4
f 312/3/4 310/3/4 313/3/4
f 313/3/4 310/3/4 314/3/4
f 315/2/4 316/2/4 317/2/4
f 317/2/4 316/2/4 318/2/4
f 319/3/4 320/3/4 322/3/4
f 320/3/4 321/3/4 322/3/4
f 322/3/4 321/3/4 323/3/4
f 323/3/4 321/3/4 324/3/4
f 324/3/4 325/3/4 326/3/4
f 323/3/4 324/3/4 326/3/4
f 323/3/4 326/3/4 328/3/4
f 326/3/4 327/3/4 328/3/4
f 328/3/4 327/3/4 329/3/4
f 330/3/4 331/3/4 332/3/4
f 332/3/4 331/3/4 333/3/4
f 330/3/4 332/3/4 334/3/4
f 334/3/4 332/3/4 335/3/4
f 333/3/4 331/3/4 336/3/4
f 336/3/4 331/3/4 337/3/4
f 338/2/4 339/2/4 340/2/4
f 340/2/4 339/2/4 341/2/4
f 342/3/4 343/3/4 345/3/4
f 345/3/4 343/3/4 346/3/4
f 343/2/4 344/2/4 347/2/4
f 346/3/4 343/3/4 347/3/4
f 347/2/4 344/2/4 348/2/4
f 349/3/4 350/3/4 353/3/4
f 350/2/4 351/2/4 354/2/4
f 353/3/4 350/3/4 354/3/4
f 354/2/4 351/2/4 355/2/4
f 352/3/4 353/3/4 356/3/4
f 353/3/4 354/3/4 356/3/4
f 356/3/4 354/3/4 357/3/4
f 358/3/4 359/3/4 360/3/4
f 360/3/4 359/3/4 361/3/4
f 362/3/4 363/3/4 364/3/4
f 364/3/4 363/3/4 365/3/4
f 365/3/4 363/3/4 366/3/4
f 365/3/4 366/3/4 368/3/4
f 366/3/4 367/3/4 368/3/4
f 368/3/4 367/3/4 369/3/4
f 370/3/4 371/3/4 372/3/4
f 372/3/4 371/3/4 373/3/4
f 374/3/4 375/3/4 376/3/4
f 376/3/4 375/3/4 377/3/4
f 382/3/5 379/3/5 378/3/5
f 383/3/5 379/3/5 382/3/5
f 384/3/5 381/3/5 380/3/5
f 385/3/5 381/3/5 384/3/5
f 390/3/5 387/3/5 386/3/5
f 391/3/5 387/3/5 390/3/5
f 392/3/5 389/3/5 388/3/5
f 393/3/5 389/3/5 392/3/5
f 397/3/5 395/3/5 394/3/5
f 398/3/5 395/3/5 397/3/5
f 400/3/5 397/3/5 396/3/5
f 400/3/5 399/3/5 398/3/5
f 400/3/5 398/3/5 397/3/5
f 403/3/5 400/3/5 396/3/5
f 403/3/5 401/3/5 400/3/5
f 404/3/5 401/3/5 403/3/5
f 405/3/5 401/3/5 404/3/5
f 406/3/5 403/3/5 402/3/5
f 406/3/5 404/3/5 403/3/5
f 407/3/5 404/3/5 406/3/5
f 408/3/5 404/3/5 407/3/5
f 409/3/5 404/3/5 408/3/5
f 410/3/5 404/3/5 409/3/5
f 411/3/5 404/3/5 410/3/5
f 412/3/5 410/3/5 409/3/5
f 413/3/5 410/3/5 412/3/5
f 414/3/5 410/3/5 413/3/5
f 415/3/5 413/3/5 412/3/5
f 416/3/5 413/3/5 415/3/5
f 423/3/5 418/3/5 417/3/5
f 424/3/5 418/3/5 423/3/5
f 425/3/5 420/3/5 419/3/5
f 426/3/5 420/3/5 425/3/5
f 427/3/5 420/3/5 426/3/5
f 428/3/5 422/3/5 421/3/5
f 429/3/5 422/3/5 428/3/5
f 432/3/5 431/3/5 430/3/5
f 433/3/5 431/3/5 432/3/5
f 436/3/5 435/3/5 434/3/5
f 437/3/5 435/3/5 436/3/5
f 440/3/5 439/3/5 438/3/5
f 441/3/5 439/3/5 440/3/5
f 444/3/5 443/3/5 442/3/5
f 445/3/5 443/3/5 444/3/5
f 448/3/5 447/3/5 446/3/5
f 449/3/5 447/3/5 448/3/5
f 452/3/5 451/3/5 450/3/5
f 453/3/5 451/3/5 452/3/5
f 456/3/5 455/3/5 454/3/5
f 457/3/5 455/3/5 456/3/5
f 460/3/5 459/3/5 458/3/5
f 461/3/5 459/3/5 460/3/5
f 464/3/5 463/3/5 462/3/5
f 465/3/5 463/3/5 464/3/5
f 466/3/6 467/3/6 468/3/6
f 468/3/6 467/3/6 469/3/6
f 470/3/6 471/3/6 476/3/6
f 476/3/6 471/3/6 477/3/6
f 472/3/6 473/3/6 478/3/6
f 473/2/6 474/2/6 479/2/6
f 478/3/6 473/3/6 479/3/6
f 474/3/6 475/3/6 480/3/6
f 479/2/6 474/2/6 480/2/6
f 475/2/6 476/2/6 481/2/6
f 480/3/6 475/3/6 481/3/6
f 476/3/6 477/3/6 482/3/6
f 481/2/6 476/2/6 482/2/6
f 482/3/6 477/3/6 483/3/6
f 482/2/6 483/2/6 486/2/6
f 482/2/6 486/2/6 488/2/6
f 486/3/6 487/3/6 488/3/6
f 488/3/6 487/3/6 489/3/6
f 484/1/6 485/1/6 490/1/6
f 490/1/6 485/1/6 491/1/6
f 478/2/6 479/2/6 492/2/6
f 482/2/6 488/2/6 493/2/6
f 493/2/6 488/2/6 494/2/6
f 478/2/6 492/2/6 495/2/6
f 492/2/6 493/2/6 495/2/6
f 495/2/6 493/2/6 496/2/6
f 496/2/6 493/2/6 497/2/6
f 493/3/6 494/3/6 498/3/6
f 497/2/6 493/2/6 498/2/6
f 498/3/6 494/3/6 499/3/6
f 500/2/6 501/2/6 502/2/6
f 502/2/6 501/2/6 503/2/6
f 504/3/6 505/3/6 506/3/6
f 506/3/6 505/3/6 507/3/6
f 500/2/6 502/2/6 508/2/6
f 503/2/6 501/2/6 509/2/6
f 500/2/6 508/2/6 510/2/6
f 508/2/6 509/2/6 510/2/6
f 509/2/6 501/2/6 511/2/6
f 510/2/6 509/2/6 511/2/6
f 512/3/6 513/3/6 514/3/6
f 514/3/6 513/3/6 515/3/6
f 516/3/6 517/3/6 518/3/6
f 518/3/6 517/3/6 519/3/6
f 520/3/6 521/3/6 524/3/6
f 524/3/6 521/3/6 525/3/6
f 522/3/6 523/3/6 526/3/6
f 526/3/6 523/3/6 527/3/6
f 528/3/6 529/3/6 530/3/6
f 530/3/6 529/3/6 531/3/6
f 532/3/6 533/3/6 536/3/6
f 536/3/6 533/3/6 537/3/6
f 534/3/6 535/3/6 538/3/6
f 538/3/6 535/3/6 539/3/6
f 540/3/6 541/3/6 544/3/6
f 544/3/6 541/3/6 545/3/6
f 542/3/6 543/3/6 546/3/6
f 546/3/6 543/3/6 547/3/6
f 548/3/6 549/3/6 550/3/6
f 550/3/6 549/3/6 551/3/6
f 552/3/6 553/3/6 554/3/6
f 554/3/6 553/3/6 555/3/6
f 556/3/6 557/3/6 558/3/6
f 558/3/6 557/3/6 559/3/6
