# MagicaVoxel @ Ephtracy

# group
o 

# material
mtllib KOL.mtl
usemtl palette

# normals
vn -1 0 0
vn 1 0 0
vn 0 0 1
vn 0 0 -1
vn 0 -1 0
vn 0 1 0

# texcoords
vt 0.306641 0.5
vt 0.958984 0.5
vt 0.978516 0.5
vt 0.986328 0.5

# verts
v -0.8 0 0.8
v -0.8 0 -0.8
v -0.8 0.1 0.7
v -0.8 0.1 -0.7
v -0.8 2.1 0.7
v -0.8 2.1 -0.7
v -0.8 2.2 0.8
v -0.8 2.2 -0.8
v -0.4 2.2 0.3
v -0.4 2.2 -0.3
v -0.4 2.3 0.3
v -0.4 2.3 -0.3
v -0.3 2.3 0.3
v -0.3 2.3 -0.3
v -0.3 2.4 0.3
v -0.3 2.4 -0.3
v -0.2 2.4 0.3
v -0.2 2.4 -0.3
v -0.2 2.7 0.3
v -0.2 2.7 0.1
v -0.2 2.7 -0.1
v -0.2 2.7 -0.3
v -0.2 3 0.1
v -0.2 3 -0.1
v 0.1 2.4 0.3
v 0.1 2.4 -0.3
v 0.1 2.5 0.3
v 0.1 2.5 -0.3
v 0.1 2.6 0.2
v 0.1 2.6 -0.2
v 0.1 2.7 0.2
v 0.1 2.7 0.1
v 0.1 2.7 -0.1
v 0.1 2.7 -0.2
v 0.1 2.9 0.1
v 0.1 2.9 -0.1
v 0.2 2.3 0.3
v 0.2 2.3 -0.3
v 0.2 2.4 0.3
v 0.2 2.4 -0.3
v 0.3 2.2 0.3
v 0.3 2.2 -0.3
v 0.3 2.3 0.3
v 0.3 2.3 -0.3
v 0.7 0.1 0.8
v 0.7 0.1 0.7
v 0.7 0.1 -0.7
v 0.7 0.1 -0.8
v 0.7 2.1 0.8
v 0.7 2.1 0.7
v 0.7 2.1 -0.7
v 0.7 2.1 -0.8
v -0.7 0.1 0.8
v -0.7 0.1 0.7
v -0.7 0.1 -0.7
v -0.7 0.1 -0.8
v -0.7 2.1 0.8
v -0.7 2.1 0.7
v -0.7 2.1 -0.7
v -0.7 2.1 -0.8
v -0.3 2.2 0.3
v -0.3 2.2 -0.3
v -0.3 2.3 0.3
v -0.3 2.3 -0.3
v -0.2 2.3 0.3
v -0.2 2.3 -0.3
v -0.2 2.4 0.3
v -0.2 2.4 -0.3
v -0.1 2.4 0.3
v -0.1 2.4 -0.3
v -0.1 2.5 0.3
v -0.1 2.5 -0.3
v -0.1 2.6 0.2
v -0.1 2.6 -0.2
v -0.1 2.7 0.2
v -0.1 2.7 0.1
v -0.1 2.7 -0.1
v -0.1 2.7 -0.2
v -0.1 2.9 0.1
v -0.1 2.9 -0.1
v 0.2 2.4 0.3
v 0.2 2.4 -0.3
v 0.2 2.7 0.3
v 0.2 2.7 0.1
v 0.2 2.7 -0.1
v 0.2 2.7 -0.3
v 0.2 3 0.1
v 0.2 3 -0.1
v 0.3 2.3 0.3
v 0.3 2.3 -0.3
v 0.3 2.4 0.3
v 0.3 2.4 -0.3
v 0.4 2.2 0.3
v 0.4 2.2 -0.3
v 0.4 2.3 0.3
v 0.4 2.3 -0.3
v 0.8 0 0.8
v 0.8 0 -0.8
v 0.8 0.1 0.7
v 0.8 0.1 -0.7
v 0.8 2.1 0.7
v 0.8 2.1 -0.7
v 0.8 2.2 0.8
v 0.8 2.2 -0.8
v -0.8 0 0.8
v -0.8 2.2 0.8
v -0.7 0.1 0.8
v -0.7 2.1 0.8
v 0.7 0.1 0.8
v 0.7 2.1 0.8
v 0.8 0 0.8
v 0.8 2.2 0.8
v -0.4 2.2 0.3
v -0.4 2.3 0.3
v -0.3 2.2 0.3
v -0.3 2.3 0.3
v -0.3 2.4 0.3
v -0.2 2.3 0.3
v -0.2 2.4 0.3
v -0.2 2.7 0.3
v -0.1 2.4 0.3
v -0.1 2.5 0.3
v 0.1 2.4 0.3
v 0.1 2.5 0.3
v 0.2 2.3 0.3
v 0.2 2.4 0.3
v 0.2 2.7 0.3
v 0.3 2.2 0.3
v 0.3 2.3 0.3
v 0.3 2.4 0.3
v 0.4 2.2 0.3
v 0.4 2.3 0.3
v -0.2 2.7 0.1
v -0.2 3 0.1
v -0.1 2.7 0.1
v -0.1 2.9 0.1
v 0.1 2.7 0.1
v 0.1 2.9 0.1
v 0.2 2.7 0.1
v 0.2 3 0.1
v -0.1 2.6 -0.2
v -0.1 2.7 -0.2
v 0.1 2.6 -0.2
v 0.1 2.7 -0.2
v -0.8 0.1 -0.7
v -0.8 2.1 -0.7
v -0.7 0.1 -0.7
v -0.7 2.1 -0.7
v 0.7 0.1 -0.7
v 0.7 2.1 -0.7
v 0.8 0.1 -0.7
v 0.8 2.1 -0.7
v -0.8 0.1 0.7
v -0.8 2.1 0.7
v -0.7 0.1 0.7
v -0.7 2.1 0.7
v 0.7 0.1 0.7
v 0.7 2.1 0.7
v 0.8 0.1 0.7
v 0.8 2.1 0.7
v -0.1 2.6 0.2
v -0.1 2.7 0.2
v 0.1 2.6 0.2
v 0.1 2.7 0.2
v -0.2 2.7 -0.1
v -0.2 3 -0.1
v -0.1 2.7 -0.1
v -0.1 2.9 -0.1
v 0.1 2.7 -0.1
v 0.1 2.9 -0.1
v 0.2 2.7 -0.1
v 0.2 3 -0.1
v -0.4 2.2 -0.3
v -0.4 2.3 -0.3
v -0.3 2.2 -0.3
v -0.3 2.3 -0.3
v -0.3 2.4 -0.3
v -0.2 2.3 -0.3
v -0.2 2.4 -0.3
v -0.2 2.7 -0.3
v -0.1 2.4 -0.3
v -0.1 2.5 -0.3
v 0.1 2.4 -0.3
v 0.1 2.5 -0.3
v 0.2 2.3 -0.3
v 0.2 2.4 -0.3
v 0.2 2.7 -0.3
v 0.3 2.2 -0.3
v 0.3 2.3 -0.3
v 0.3 2.4 -0.3
v 0.4 2.2 -0.3
v 0.4 2.3 -0.3
v -0.8 0 -0.8
v -0.8 2.2 -0.8
v -0.7 0.1 -0.8
v -0.7 2.1 -0.8
v 0.7 0.1 -0.8
v 0.7 2.1 -0.8
v 0.8 0 -0.8
v 0.8 2.2 -0.8
v -0.8 0 0.8
v 0.8 0 0.8
v -0.7 0 0.7
v 0.7 0 0.7
v -0.7 0 -0.7
v 0.7 0 -0.7
v -0.8 0 -0.8
v 0.8 0 -0.8
v -0.7 2.1 0.8
v 0.7 2.1 0.8
v -0.8 2.1 0.7
v -0.7 2.1 0.7
v 0.7 2.1 0.7
v 0.8 2.1 0.7
v -0.8 2.1 -0.7
v -0.7 2.1 -0.7
v 0.7 2.1 -0.7
v 0.8 2.1 -0.7
v -0.7 2.1 -0.8
v 0.7 2.1 -0.8
v -0.3 2.3 0.3
v -0.2 2.3 0.3
v 0.2 2.3 0.3
v 0.3 2.3 0.3
v -0.3 2.3 -0.3
v -0.2 2.3 -0.3
v 0.2 2.3 -0.3
v 0.3 2.3 -0.3
v -0.2 2.4 0.3
v -0.1 2.4 0.3
v 0.1 2.4 0.3
v 0.2 2.4 0.3
v -0.2 2.4 -0.3
v -0.1 2.4 -0.3
v 0.1 2.4 -0.3
v 0.2 2.4 -0.3
v -0.1 2.5 0.3
v 0.1 2.5 0.3
v -0.1 2.5 -0.3
v 0.1 2.5 -0.3
v -0.1 2.9 0.1
v 0.1 2.9 0.1
v -0.1 2.9 -0.1
v 0.1 2.9 -0.1
v -0.7 0.1 0.8
v 0.7 0.1 0.8
v -0.8 0.1 0.7
v -0.7 0.1 0.7
v 0.7 0.1 0.7
v 0.8 0.1 0.7
v -0.8 0.1 -0.7
v -0.7 0.1 -0.7
v 0.7 0.1 -0.7
v 0.8 0.1 -0.7
v -0.7 0.1 -0.8
v 0.7 0.1 -0.8
v -0.8 2.2 0.8
v 0.8 2.2 0.8
v -0.7 2.2 0.7
v 0.7 2.2 0.7
v -0.4 2.2 0.3
v -0.3 2.2 0.3
v 0.3 2.2 0.3
v 0.4 2.2 0.3
v -0.4 2.2 -0.3
v -0.3 2.2 -0.3
v 0.3 2.2 -0.3
v 0.4 2.2 -0.3
v -0.7 2.2 -0.7
v 0.7 2.2 -0.7
v -0.8 2.2 -0.8
v 0.8 2.2 -0.8
v -0.4 2.3 0.3
v -0.3 2.3 0.3
v 0.3 2.3 0.3
v 0.4 2.3 0.3
v -0.4 2.3 -0.3
v -0.3 2.3 -0.3
v 0.3 2.3 -0.3
v 0.4 2.3 -0.3
v -0.3 2.4 0.3
v -0.2 2.4 0.3
v 0.2 2.4 0.3
v 0.3 2.4 0.3
v -0.3 2.4 -0.3
v -0.2 2.4 -0.3
v 0.2 2.4 -0.3
v 0.3 2.4 -0.3
v -0.1 2.6 0.2
v 0.1 2.6 0.2
v -0.1 2.6 -0.2
v 0.1 2.6 -0.2
v -0.2 2.7 0.3
v 0.2 2.7 0.3
v -0.1 2.7 0.2
v 0.1 2.7 0.2
v -0.2 2.7 0.1
v -0.1 2.7 0.1
v 0.1 2.7 0.1
v 0.2 2.7 0.1
v -0.2 2.7 -0.1
v -0.1 2.7 -0.1
v 0.1 2.7 -0.1
v 0.2 2.7 -0.1
v -0.1 2.7 -0.2
v 0.1 2.7 -0.2
v -0.2 2.7 -0.3
v 0.2 2.7 -0.3
v -0.2 3 0.1
v 0.2 3 0.1
v -0.2 3 -0.1
v 0.2 3 -0.1

# faces
f 3/2/1 2/2/1 1/2/1
f 4/2/1 2/2/1 3/2/1
f 5/2/1 3/2/1 1/2/1
f 6/2/1 2/2/1 4/2/1
f 7/2/1 5/2/1 1/2/1
f 7/2/1 6/2/1 5/2/1
f 8/2/1 2/2/1 6/2/1
f 8/2/1 6/2/1 7/2/1
f 11/4/1 10/4/1 9/4/1
f 12/4/1 10/4/1 11/4/1
f 15/4/1 14/4/1 13/4/1
f 16/4/1 14/4/1 15/4/1
f 19/4/1 18/4/1 17/4/1
f 20/4/1 18/4/1 19/4/1
f 21/4/1 18/4/1 20/4/1
f 22/4/1 18/4/1 21/4/1
f 23/4/1 21/4/1 20/4/1
f 24/4/1 21/4/1 23/4/1
f 27/4/1 26/4/1 25/4/1
f 28/4/1 26/4/1 27/4/1
f 31/4/1 30/4/1 29/4/1
f 32/4/1 30/4/1 31/4/1
f 33/4/1 30/4/1 32/4/1
f 34/4/1 30/4/1 33/4/1
f 35/4/1 33/4/1 32/4/1
f 36/4/1 33/4/1 35/4/1
f 39/4/1 38/4/1 37/4/1
f 40/4/1 38/4/1 39/4/1
f 43/4/1 42/4/1 41/4/1
f 44/4/1 42/4/1 43/4/1
f 49/2/1 46/2/1 45/2/1
f 50/2/1 46/2/1 49/2/1
f 51/2/1 48/2/1 47/2/1
f 52/2/1 48/2/1 51/2/1
f 53/2/2 54/2/2 57/2/2
f 57/2/2 54/2/2 58/2/2
f 55/2/2 56/2/2 59/2/2
f 59/2/2 56/2/2 60/2/2
f 61/4/2 62/4/2 63/4/2
f 63/4/2 62/4/2 64/4/2
f 65/4/2 66/4/2 67/4/2
f 67/4/2 66/4/2 68/4/2
f 69/4/2 70/4/2 71/4/2
f 71/4/2 70/4/2 72/4/2
f 73/4/2 74/4/2 75/4/2
f 75/4/2 74/4/2 76/4/2
f 76/4/2 74/4/2 77/4/2
f 77/4/2 74/4/2 78/4/2
f 76/4/2 77/4/2 79/4/2
f 79/4/2 77/4/2 80/4/2
f 81/4/2 82/4/2 83/4/2
f 83/4/2 82/4/2 84/4/2
f 84/4/2 82/4/2 85/4/2
f 85/4/2 82/4/2 86/4/2
f 84/4/2 85/4/2 87/4/2
f 87/4/2 85/4/2 88/4/2
f 89/4/2 90/4/2 91/4/2
f 91/4/2 90/4/2 92/4/2
f 93/4/2 94/4/2 95/4/2
f 95/4/2 94/4/2 96/4/2
f 97/2/2 98/2/2 99/2/2
f 99/2/2 98/2/2 100/2/2
f 97/2/2 99/2/2 101/2/2
f 100/2/2 98/2/2 102/2/2
f 97/2/2 101/2/2 103/2/2
f 101/2/2 102/2/2 103/2/2
f 102/2/2 98/2/2 104/2/2
f 103/2/2 102/2/2 104/2/2
f 107/2/3 106/2/3 105/2/3
f 108/2/3 106/2/3 107/2/3
f 109/2/3 107/2/3 105/2/3
f 110/2/3 106/2/3 108/2/3
f 111/2/3 109/2/3 105/2/3
f 111/2/3 110/2/3 109/2/3
f 112/2/3 106/2/3 110/2/3
f 112/2/3 110/2/3 111/2/3
f 115/4/3 114/4/3 113/4/3
f 116/4/3 114/4/3 115/4/3
f 118/4/3 117/4/3 116/4/3
f 119/4/3 117/4/3 118/4/3
f 121/4/3 120/4/3 119/4/3
f 122/4/3 120/4/3 121/4/3
f 124/4/3 120/4/3 122/4/3
f 126/4/3 124/4/3 123/4/3
f 127/4/3 120/4/3 124/4/3
f 127/4/3 124/4/3 126/4/3
f 129/4/3 126/4/3 125/4/3
f 130/4/3 126/4/3 129/4/3
f 131/4/3 129/4/3 128/4/3
f 132/4/3 129/4/3 131/4/3
f 135/4/3 134/4/3 133/4/3
f 136/4/3 134/4/3 135/4/3
f 138/4/3 134/4/3 136/4/3
f 139/4/3 138/4/3 137/4/3
f 140/4/3 134/4/3 138/4/3
f 140/4/3 138/4/3 139/4/3
f 143/4/3 142/4/3 141/4/3
f 144/4/3 142/4/3 143/4/3
f 147/2/3 146/2/3 145/2/3
f 148/2/3 146/2/3 147/2/3
f 151/2/3 150/2/3 149/2/3
f 152/2/3 150/2/3 151/2/3
f 153/2/4 154/2/4 155/2/4
f 155/2/4 154/2/4 156/2/4
f 157/2/4 158/2/4 159/2/4
f 159/2/4 158/2/4 160/2/4
f 161/4/4 162/4/4 163/4/4
f 163/4/4 162/4/4 164/4/4
f 165/4/4 166/4/4 167/4/4
f 167/4/4 166/4/4 168/4/4
f 168/4/4 166/4/4 170/4/4
f 169/4/4 170/4/4 171/4/4
f 170/4/4 166/4/4 172/4/4
f 171/4/4 170/4/4 172/4/4
f 173/4/4 174/4/4 175/4/4
f 175/4/4 174/4/4 176/4/4
f 176/4/4 177/4/4 178/4/4
f 178/4/4 177/4/4 179/4/4
f 179/4/4 180/4/4 181/4/4
f 181/4/4 180/4/4 182/4/4
f 182/4/4 180/4/4 184/4/4
f 183/4/4 184/4/4 186/4/4
f 184/4/4 180/4/4 187/4/4
f 186/4/4 184/4/4 187/4/4
f 185/4/4 186/4/4 189/4/4
f 189/4/4 186/4/4 190/4/4
f 188/4/4 189/4/4 191/4/4
f 191/4/4 189/4/4 192/4/4
f 193/2/4 194/2/4 195/2/4
f 195/2/4 194/2/4 196/2/4
f 193/2/4 195/2/4 197/2/4
f 196/2/4 194/2/4 198/2/4
f 193/2/4 197/2/4 199/2/4
f 197/2/4 198/2/4 199/2/4
f 198/2/4 194/2/4 200/2/4
f 199/2/4 198/2/4 200/2/4
f 203/2/5 202/2/5 201/2/5
f 204/2/5 202/2/5 203/2/5
f 205/2/5 203/2/5 201/2/5
f 205/1/5 204/1/5 203/1/5
f 206/2/5 202/2/5 204/2/5
f 206/1/5 204/1/5 205/1/5
f 207/2/5 205/2/5 201/2/5
f 207/2/5 206/2/5 205/2/5
f 208/2/5 202/2/5 206/2/5
f 208/2/5 206/2/5 207/2/5
f 212/2/5 210/2/5 209/2/5
f 213/2/5 210/2/5 212/2/5
f 215/2/5 212/2/5 211/2/5
f 216/3/5 213/3/5 212/3/5
f 216/2/5 212/2/5 215/2/5
f 217/2/5 214/2/5 213/2/5
f 217/3/5 213/3/5 216/3/5
f 218/2/5 214/2/5 217/2/5
f 219/2/5 217/2/5 216/2/5
f 220/2/5 217/2/5 219/2/5
f 225/4/5 222/4/5 221/4/5
f 226/4/5 222/4/5 225/4/5
f 227/4/5 224/4/5 223/4/5
f 228/4/5 224/4/5 227/4/5
f 233/4/5 230/4/5 229/4/5
f 234/4/5 230/4/5 233/4/5
f 235/4/5 232/4/5 231/4/5
f 236/4/5 232/4/5 235/4/5
f 239/4/5 238/4/5 237/4/5
f 240/4/5 238/4/5 239/4/5
f 243/4/5 242/4/5 241/4/5
f 244/4/5 242/4/5 243/4/5
f 245/2/6 246/2/6 248/2/6
f 248/2/6 246/2/6 249/2/6
f 247/2/6 248/2/6 251/2/6
f 248/1/6 249/1/6 252/1/6
f 251/2/6 248/2/6 252/2/6
f 249/2/6 250/2/6 253/2/6
f 252/1/6 249/1/6 253/1/6
f 253/2/6 250/2/6 254/2/6
f 252/2/6 253/2/6 255/2/6
f 255/2/6 253/2/6 256/2/6
f 257/2/6 258/2/6 259/2/6
f 259/2/6 258/2/6 260/2/6
f 259/3/6 260/3/6 261/3/6
f 261/3/6 260/3/6 262/3/6
f 262/3/6 260/3/6 263/3/6
f 263/3/6 260/3/6 264/3/6
f 259/3/6 261/3/6 265/3/6
f 262/3/6 263/3/6 266/3/6
f 266/3/6 263/3/6 267/3/6
f 264/3/6 260/3/6 268/3/6
f 257/2/6 259/2/6 269/2/6
f 267/3/6 268/3/6 269/3/6
f 266/3/6 267/3/6 269/3/6
f 259/3/6 265/3/6 269/3/6
f 265/3/6 266/3/6 269/3/6
f 268/3/6 260/3/6 270/3/6
f 269/3/6 268/3/6 270/3/6
f 260/2/6 258/2/6 270/2/6
f 257/2/6 269/2/6 271/2/6
f 269/2/6 270/2/6 271/2/6
f 270/2/6 258/2/6 272/2/6
f 271/2/6 270/2/6 272/2/6
f 273/4/6 274/4/6 277/4/6
f 277/4/6 274/4/6 278/4/6
f 275/4/6 276/4/6 279/4/6
f 279/4/6 276/4/6 280/4/6
f 281/4/6 282/4/6 285/4/6
f 285/4/6 282/4/6 286/4/6
f 283/4/6 284/4/6 287/4/6
f 287/4/6 284/4/6 288/4/6
f 289/4/6 290/4/6 291/4/6
f 291/4/6 290/4/6 292/4/6
f 293/4/6 294/4/6 295/4/6
f 295/4/6 294/4/6 296/4/6
f 293/4/6 295/4/6 297/4/6
f 297/4/6 295/4/6 298/4/6
f 296/4/6 294/4/6 299/4/6
f 299/4/6 294/4/6 300/4/6
f 301/4/6 302/4/6 305/4/6
f 303/4/6 304/4/6 306/4/6
f 301/4/6 305/4/6 307/4/6
f 305/4/6 306/4/6 307/4/6
f 306/4/6 304/4/6 308/4/6
f 307/4/6 306/4/6 308/4/6
f 309/4/6 310/4/6 311/4/6
f 311/4/6 310/4/6 312/4/6
