# MagicaVoxel @ Ephtracy

# group
o 

# material
mtllib untitled2.mtl
usemtl palette

# normals
vn -1 0 0
vn 1 0 0
vn 0 0 1
vn 0 0 -1
vn 0 -1 0
vn 0 1 0

# texcoords
vt 0.0214844 0.5
vt 0.400391 0.5
vt 0.404297 0.5
vt 0.560547 0.5
vt 0.798828 0.5
vt 0.841797 0.5
vt 0.900391 0.5
vt 0.958984 0.5
vt 0.994141 0.5

# verts
v -2 0 -1.9
v -2 0 -2
v -2 4 -1.9
v -2 4 -2
v 2 0 -1.9
v 2 0 -2
v 2 4 -1.9
v 2 4 -2
v -2 0 -1.9
v -2 4 -1.9
v -1.8 2.6 -1.9
v -1.8 3 -1.9
v -1.7 2.4 -1.9
v -1.7 2.6 -1.9
v -1.7 3 -1.9
v -1.7 3.4 -1.9
v -1.6 2 -1.9
v -1.6 2.3 -1.9
v -1.6 2.4 -1.9
v -1.6 3.4 -1.9
v -1.6 3.6 -1.9
v -1.5 2.1 -1.9
v -1.5 2.2 -1.9
v -1.5 2.3 -1.9
v -1.5 2.8 -1.9
v -1.5 3.1 -1.9
v -1.5 3.6 -1.9
v -1.5 3.7 -1.9
v -1.4 2 -1.9
v -1.4 2.1 -1.9
v -1.4 2.2 -1.9
v -1.4 2.3 -1.9
v -1.4 2.7 -1.9
v -1.4 2.8 -1.9
v -1.4 3.1 -1.9
v -1.4 3.2 -1.9
v -1.3 1.9 -1.9
v -1.3 2.1 -1.9
v -1.3 2.2 -1.9
v -1.3 2.3 -1.9
v -1.3 2.6 -1.9
v -1.3 2.7 -1.9
v -1.3 2.8 -1.9
v -1.3 3 -1.9
v -1.2 1.9 -1.9
v -1.2 2.1 -1.9
v -1.2 2.2 -1.9
v -1.2 2.4 -1.9
v -1.2 2.8 -1.9
v -1.2 3 -1.9
v -1.1 2 -1.9
v -1.1 2.1 -1.9
v -1.1 2.6 -1.9
v -1.1 2.7 -1.9
v -1.1 3.1 -1.9
v -1.1 3.2 -1.9
v -1.1 3.6 -1.9
v -1.1 3.7 -1.9
v -1 2 -1.9
v -1 2.1 -1.9
v -1 2.7 -1.9
v -1 3.1 -1.9
v -1 3.5 -1.9
v -1 3.6 -1.9
v -0.9 2.2 -1.9
v -0.9 2.3 -1.9
v -0.9 2.4 -1.9
v -0.9 3.4 -1.9
v -0.9 3.5 -1.9
v -0.8 2.1 -1.9
v -0.8 2.2 -1.9
v -0.8 2.3 -1.9
v -0.8 2.4 -1.9
v -0.7 2.4 -1.9
v -0.7 3.4 -1.9
v -0.5 1.8 -1.9
v -0.5 2 -1.9
v -0.0999999 1.4 -1.9
v -0.0999999 1.8 -1.9
v -0.0999999 2 -1.9
v -0.0999999 2.4 -1.9
v 0.1 1.4 -1.9
v 0.1 1.8 -1.9
v 0.1 2 -1.9
v 0.1 2.4 -1.9
v 0.4 0.6 -1.9
v 0.4 0.9 -1.9
v 0.5 0.5 -1.9
v 0.5 0.6 -1.9
v 0.5 1.8 -1.9
v 0.5 2 -1.9
v 0.6 0.8 -1.9
v 0.6 0.9 -1.9
v 0.8 0.4 -1.9
v 0.8 0.5 -1.9
v 0.8 0.7 -1.9
v 0.8 0.8 -1.9
v 0.9 0 -1.9
v 0.9 0.4 -1.9
v 0.9 0.7 -1.9
v 0.9 0.9 -1.9
v 0.9 1.7 -1.9
v 0.9 1.9 -1.9
v 1 0.9 -1.9
v 1 1.1 -1.9
v 1 1.4 -1.9
v 1 1.7 -1.9
v 1 1.8 -1.9
v 1 1.9 -1.9
v 1 2 -1.9
v 1.1 0 -1.9
v 1.1 0.9 -1.9
v 1.1 1.1 -1.9
v 1.1 1.3 -1.9
v 1.1 1.4 -1.9
v 1.1 1.5 -1.9
v 1.2 0.9 -1.9
v 1.2 1.2 -1.9
v 1.2 1.3 -1.9
v 1.2 1.4 -1.9
v 1.2 1.5 -1.9
v 1.2 1.6 -1.9
v 1.3 1.2 -1.9
v 1.3 1.3 -1.9
v 1.3 1.4 -1.9
v 1.3 1.5 -1.9
v 1.3 1.6 -1.9
v 1.3 1.7 -1.9
v 1.3 1.8 -1.9
v 1.3 1.9 -1.9
v 1.3 2 -1.9
v 1.4 1.2 -1.9
v 1.4 1.3 -1.9
v 1.4 1.5 -1.9
v 1.4 1.7 -1.9
v 1.4 1.9 -1.9
v 1.5 1.2 -1.9
v 1.5 1.3 -1.9
v 1.5 1.5 -1.9
v 1.5 1.6 -1.9
v 1.5 1.7 -1.9
v 1.5 1.8 -1.9
v 1.6 1.3 -1.9
v 1.6 1.4 -1.9
v 1.6 1.8 -1.9
v 1.6 1.9 -1.9
v 1.7 1.7 -1.9
v 1.7 1.8 -1.9
v 1.8 1.4 -1.9
v 1.8 1.5 -1.9
v 1.8 1.6 -1.9
v 1.8 1.7 -1.9
v 1.9 1.5 -1.9
v 1.9 1.6 -1.9
v 2 0 -1.9
v 2 4 -1.9
v -2 0 -2
v -2 4 -2
v -1.8 2.6 -2
v -1.8 3 -2
v -1.7 2.4 -2
v -1.7 2.6 -2
v -1.7 3 -2
v -1.7 3.4 -2
v -1.6 2 -2
v -1.6 2.3 -2
v -1.6 2.4 -2
v -1.6 3.4 -2
v -1.6 3.6 -2
v -1.5 2.1 -2
v -1.5 2.2 -2
v -1.5 2.3 -2
v -1.5 2.8 -2
v -1.5 3.1 -2
v -1.5 3.6 -2
v -1.5 3.7 -2
v -1.4 2 -2
v -1.4 2.1 -2
v -1.4 2.2 -2
v -1.4 2.3 -2
v -1.4 2.7 -2
v -1.4 2.8 -2
v -1.4 3.1 -2
v -1.4 3.2 -2
v -1.3 1.9 -2
v -1.3 2.1 -2
v -1.3 2.2 -2
v -1.3 2.3 -2
v -1.3 2.6 -2
v -1.3 2.7 -2
v -1.3 2.8 -2
v -1.3 3 -2
v -1.2 1.9 -2
v -1.2 2.1 -2
v -1.2 2.2 -2
v -1.2 2.4 -2
v -1.2 2.8 -2
v -1.2 3 -2
v -1.1 2 -2
v -1.1 2.1 -2
v -1.1 2.6 -2
v -1.1 2.7 -2
v -1.1 3.1 -2
v -1.1 3.2 -2
v -1.1 3.6 -2
v -1.1 3.7 -2
v -1 2 -2
v -1 2.1 -2
v -1 2.7 -2
v -1 3.1 -2
v -1 3.5 -2
v -1 3.6 -2
v -0.9 2.2 -2
v -0.9 2.3 -2
v -0.9 2.4 -2
v -0.9 3.4 -2
v -0.9 3.5 -2
v -0.8 2.1 -2
v -0.8 2.2 -2
v -0.8 2.3 -2
v -0.8 2.4 -2
v -0.7 2.4 -2
v -0.7 3.4 -2
v -0.5 1.8 -2
v -0.5 2 -2
v -0.0999999 1.4 -2
v -0.0999999 1.8 -2
v -0.0999999 2 -2
v -0.0999999 2.4 -2
v 0.1 1.4 -2
v 0.1 1.8 -2
v 0.1 2 -2
v 0.1 2.4 -2
v 0.4 0.6 -2
v 0.4 0.9 -2
v 0.5 0.5 -2
v 0.5 0.6 -2
v 0.5 1.8 -2
v 0.5 2 -2
v 0.6 0.8 -2
v 0.6 0.9 -2
v 0.8 0.4 -2
v 0.8 0.5 -2
v 0.8 0.7 -2
v 0.8 0.8 -2
v 0.9 0 -2
v 0.9 0.4 -2
v 0.9 0.7 -2
v 0.9 0.9 -2
v 0.9 1.7 -2
v 0.9 1.9 -2
v 1 0.9 -2
v 1 1.1 -2
v 1 1.4 -2
v 1 1.7 -2
v 1 1.8 -2
v 1 1.9 -2
v 1 2 -2
v 1.1 0 -2
v 1.1 0.9 -2
v 1.1 1.1 -2
v 1.1 1.3 -2
v 1.1 1.4 -2
v 1.1 1.5 -2
v 1.2 0.9 -2
v 1.2 1.2 -2
v 1.2 1.3 -2
v 1.2 1.4 -2
v 1.2 1.5 -2
v 1.2 1.6 -2
v 1.3 1.2 -2
v 1.3 1.3 -2
v 1.3 1.4 -2
v 1.3 1.5 -2
v 1.3 1.6 -2
v 1.3 1.7 -2
v 1.3 1.8 -2
v 1.3 1.9 -2
v 1.3 2 -2
v 1.4 1.2 -2
v 1.4 1.3 -2
v 1.4 1.5 -2
v 1.4 1.7 -2
v 1.4 1.9 -2
v 1.5 1.2 -2
v 1.5 1.3 -2
v 1.5 1.5 -2
v 1.5 1.6 -2
v 1.5 1.7 -2
v 1.5 1.8 -2
v 1.6 1.3 -2
v 1.6 1.4 -2
v 1.6 1.8 -2
v 1.6 1.9 -2
v 1.7 1.7 -2
v 1.7 1.8 -2
v 1.8 1.4 -2
v 1.8 1.5 -2
v 1.8 1.6 -2
v 1.8 1.7 -2
v 1.9 1.5 -2
v 1.9 1.6 -2
v 2 0 -2
v 2 4 -2
v -2 0 -1.9
v 0.9 0 -1.9
v 1.1 0 -1.9
v 2 0 -1.9
v -2 0 -2
v 0.9 0 -2
v 1.1 0 -2
v 2 0 -2
v -2 4 -1.9
v 2 4 -1.9
v -2 4 -2
v 2 4 -2

# faces
f 3/4/1 2/4/1 1/4/1
f 4/4/1 2/4/1 3/4/1
f 5/4/2 6/4/2 7/4/2
f 7/4/2 6/4/2 8/4/2
f 11/4/3 10/4/3 9/4/3
f 12/4/3 10/4/3 11/4/3
f 13/4/3 11/4/3 9/4/3
f 14/8/3 12/8/3 11/8/3
f 14/4/3 11/4/3 13/4/3
f 15/4/3 10/4/3 12/4/3
f 15/8/3 12/8/3 14/8/3
f 16/4/3 10/4/3 15/4/3
f 17/4/3 13/4/3 9/4/3
f 18/4/3 13/4/3 17/4/3
f 19/8/3 14/8/3 13/8/3
f 19/4/3 13/4/3 18/4/3
f 19/8/3 15/8/3 14/8/3
f 19/8/3 16/8/3 15/8/3
f 20/4/3 10/4/3 16/4/3
f 20/8/3 16/8/3 19/8/3
f 21/4/3 10/4/3 20/4/3
f 22/6/3 18/6/3 17/6/3
f 23/6/3 18/6/3 22/6/3
f 24/8/3 19/8/3 18/8/3
f 24/6/3 18/6/3 23/6/3
f 24/8/3 20/8/3 19/8/3
f 24/8/3 21/8/3 20/8/3
f 25/8/3 21/8/3 24/8/3
f 26/8/3 21/8/3 25/8/3
f 27/4/3 10/4/3 21/4/3
f 27/8/3 21/8/3 26/8/3
f 28/4/3 10/4/3 27/4/3
f 29/4/3 17/4/3 9/4/3
f 29/6/3 22/6/3 17/6/3
f 30/4/3 23/4/3 22/4/3
f 30/6/3 22/6/3 29/6/3
f 31/8/3 24/8/3 23/8/3
f 31/4/3 23/4/3 30/4/3
f 31/8/3 25/8/3 24/8/3
f 32/8/3 25/8/3 31/8/3
f 33/8/3 25/8/3 32/8/3
f 34/5/3 26/5/3 25/5/3
f 34/8/3 25/8/3 33/8/3
f 35/8/3 28/8/3 27/8/3
f 35/5/3 26/5/3 34/5/3
f 35/8/3 27/8/3 26/8/3
f 36/8/3 28/8/3 35/8/3
f 37/4/3 29/4/3 9/4/3
f 37/4/3 30/4/3 29/4/3
f 38/6/3 32/6/3 31/6/3
f 38/4/3 30/4/3 37/4/3
f 38/6/3 31/6/3 30/6/3
f 39/6/3 32/6/3 38/6/3
f 40/8/3 33/8/3 32/8/3
f 40/6/3 32/6/3 39/6/3
f 41/8/3 33/8/3 40/8/3
f 42/5/3 34/5/3 33/5/3
f 42/8/3 33/8/3 41/8/3
f 42/5/3 36/5/3 35/5/3
f 42/5/3 35/5/3 34/5/3
f 43/5/3 36/5/3 42/5/3
f 44/5/3 36/5/3 43/5/3
f 45/6/3 39/6/3 38/6/3
f 45/4/3 37/4/3 9/4/3
f 45/6/3 38/6/3 37/6/3
f 46/6/3 39/6/3 45/6/3
f 47/8/3 41/8/3 40/8/3
f 47/6/3 39/6/3 46/6/3
f 47/8/3 40/8/3 39/8/3
f 48/8/3 41/8/3 47/8/3
f 49/9/3 44/9/3 43/9/3
f 49/5/3 43/5/3 42/5/3
f 49/5/3 42/5/3 41/5/3
f 50/5/3 36/5/3 44/5/3
f 50/9/3 44/9/3 49/9/3
f 51/4/3 46/4/3 45/4/3
f 52/6/3 48/6/3 47/6/3
f 52/4/3 46/4/3 51/4/3
f 52/6/3 47/6/3 46/6/3
f 53/5/3 49/5/3 41/5/3
f 53/8/3 41/8/3 48/8/3
f 53/5/3 50/5/3 49/5/3
f 54/5/3 50/5/3 53/5/3
f 55/5/3 36/5/3 50/5/3
f 55/5/3 50/5/3 54/5/3
f 56/8/3 28/8/3 36/8/3
f 56/5/3 36/5/3 55/5/3
f 57/8/3 28/8/3 56/8/3
f 58/4/3 10/4/3 28/4/3
f 58/8/3 28/8/3 57/8/3
f 59/6/3 52/6/3 51/6/3
f 59/4/3 51/4/3 45/4/3
f 60/6/3 48/6/3 52/6/3
f 60/6/3 52/6/3 59/6/3
f 61/5/3 55/5/3 54/5/3
f 61/8/3 54/8/3 53/8/3
f 62/8/3 57/8/3 56/8/3
f 62/5/3 55/5/3 61/5/3
f 62/8/3 56/8/3 55/8/3
f 63/8/3 57/8/3 62/8/3
f 64/4/3 58/4/3 57/4/3
f 64/8/3 57/8/3 63/8/3
f 65/6/3 48/6/3 60/6/3
f 66/6/3 48/6/3 65/6/3
f 67/8/3 61/8/3 53/8/3
f 67/6/3 48/6/3 66/6/3
f 67/8/3 63/8/3 62/8/3
f 67/8/3 53/8/3 48/8/3
f 67/8/3 62/8/3 61/8/3
f 68/8/3 63/8/3 67/8/3
f 69/4/3 64/4/3 63/4/3
f 69/8/3 63/8/3 68/8/3
f 70/4/3 60/4/3 59/4/3
f 70/6/3 65/6/3 60/6/3
f 71/4/3 66/4/3 65/4/3
f 71/6/3 65/6/3 70/6/3
f 72/8/3 68/8/3 67/8/3
f 72/4/3 66/4/3 71/4/3
f 72/8/3 67/8/3 66/8/3
f 73/8/3 68/8/3 72/8/3
f 74/4/3 71/4/3 70/4/3
f 74/8/3 68/8/3 73/8/3
f 74/4/3 73/4/3 72/4/3
f 74/4/3 72/4/3 71/4/3
f 75/4/3 69/4/3 68/4/3
f 75/8/3 68/8/3 74/8/3
f 76/4/3 59/4/3 45/4/3
f 76/4/3 70/4/3 59/4/3
f 76/4/3 75/4/3 74/4/3
f 76/4/3 74/4/3 70/4/3
f 76/4/3 45/4/3 9/4/3
f 77/4/3 75/4/3 76/4/3
f 78/4/3 76/4/3 9/4/3
f 79/9/3 77/9/3 76/9/3
f 79/4/3 76/4/3 78/4/3
f 80/4/3 75/4/3 77/4/3
f 80/9/3 77/9/3 79/9/3
f 81/4/3 75/4/3 80/4/3
f 82/9/3 79/9/3 78/9/3
f 82/4/3 78/4/3 9/4/3
f 82/9/3 81/9/3 80/9/3
f 82/9/3 80/9/3 79/9/3
f 83/9/3 81/9/3 82/9/3
f 84/9/3 81/9/3 83/9/3
f 85/4/3 75/4/3 81/4/3
f 85/9/3 81/9/3 84/9/3
f 86/4/3 82/4/3 9/4/3
f 86/4/3 83/4/3 82/4/3
f 87/4/3 83/4/3 86/4/3
f 88/4/3 86/4/3 9/4/3
f 89/7/3 87/7/3 86/7/3
f 89/4/3 86/4/3 88/4/3
f 90/9/3 84/9/3 83/9/3
f 90/4/3 83/4/3 87/4/3
f 91/4/3 85/4/3 84/4/3
f 91/9/3 84/9/3 90/9/3
f 92/7/3 87/7/3 89/7/3
f 92/7/3 89/7/3 88/7/3
f 93/4/3 90/4/3 87/4/3
f 93/7/3 87/7/3 92/7/3
f 93/4/3 91/4/3 90/4/3
f 94/4/3 88/4/3 9/4/3
f 95/7/3 92/7/3 88/7/3
f 95/4/3 88/4/3 94/4/3
f 96/7/3 92/7/3 95/7/3
f 97/4/3 93/4/3 92/4/3
f 97/7/3 92/7/3 96/7/3
f 98/4/3 94/4/3 9/4/3
f 99/7/3 96/7/3 95/7/3
f 99/4/3 94/4/3 98/4/3
f 99/7/3 95/7/3 94/7/3
f 100/4/3 97/4/3 96/4/3
f 100/7/3 96/7/3 99/7/3
f 101/4/3 93/4/3 97/4/3
f 101/4/3 97/4/3 100/4/3
f 101/4/3 91/4/3 93/4/3
f 102/4/3 91/4/3 101/4/3
f 103/4/3 91/4/3 102/4/3
f 104/7/3 100/7/3 99/7/3
f 104/7/3 99/7/3 98/7/3
f 104/7/3 101/7/3 100/7/3
f 104/4/3 102/4/3 101/4/3
f 105/4/3 102/4/3 104/4/3
f 106/4/3 102/4/3 105/4/3
f 107/3/3 103/3/3 102/3/3
f 107/4/3 102/4/3 106/4/3
f 108/3/3 103/3/3 107/3/3
f 109/4/3 91/4/3 103/4/3
f 109/3/3 103/3/3 108/3/3
f 110/4/3 85/4/3 91/4/3
f 110/4/3 91/4/3 109/4/3
f 111/7/3 104/7/3 98/7/3
f 111/7/3 105/7/3 104/7/3
f 112/7/3 105/7/3 111/7/3
f 113/4/3 106/4/3 105/4/3
f 113/7/3 105/7/3 112/7/3
f 114/4/3 106/4/3 113/4/3
f 115/2/3 107/2/3 106/2/3
f 115/4/3 106/4/3 114/4/3
f 116/2/3 107/2/3 115/2/3
f 117/4/3 112/4/3 111/4/3
f 117/7/3 114/7/3 113/7/3
f 117/7/3 113/7/3 112/7/3
f 118/7/3 114/7/3 117/7/3
f 119/3/3 116/3/3 115/3/3
f 119/7/3 114/7/3 118/7/3
f 119/3/3 115/3/3 114/3/3
f 120/3/3 116/3/3 119/3/3
f 121/2/3 107/2/3 116/2/3
f 121/3/3 116/3/3 120/3/3
f 122/2/3 107/2/3 121/2/3
f 123/4/3 118/4/3 117/4/3
f 123/7/3 119/7/3 118/7/3
f 124/2/3 120/2/3 119/2/3
f 124/7/3 119/7/3 123/7/3
f 125/3/3 122/3/3 121/3/3
f 125/2/3 120/2/3 124/2/3
f 125/3/3 121/3/3 120/3/3
f 126/3/3 122/3/3 125/3/3
f 127/2/3 107/2/3 122/2/3
f 127/3/3 122/3/3 126/3/3
f 128/3/3 108/3/3 107/3/3
f 128/2/3 107/2/3 127/2/3
f 129/2/3 109/2/3 108/2/3
f 129/3/3 108/3/3 128/3/3
f 129/2/3 110/2/3 109/2/3
f 130/2/3 110/2/3 129/2/3
f 131/4/3 85/4/3 110/4/3
f 131/2/3 110/2/3 130/2/3
f 132/4/3 123/4/3 117/4/3
f 132/4/3 124/4/3 123/4/3
f 133/2/3 125/2/3 124/2/3
f 133/4/3 124/4/3 132/4/3
f 133/2/3 126/2/3 125/2/3
f 134/1/3 128/1/3 127/1/3
f 134/2/3 126/2/3 133/2/3
f 134/1/3 127/1/3 126/1/3
f 135/2/3 130/2/3 129/2/3
f 135/1/3 128/1/3 134/1/3
f 135/2/3 129/2/3 128/2/3
f 136/4/3 131/4/3 130/4/3
f 136/2/3 130/2/3 135/2/3
f 137/3/3 133/3/3 132/3/3
f 137/3/3 134/3/3 133/3/3
f 137/4/3 132/4/3 117/4/3
f 138/3/3 134/3/3 137/3/3
f 139/1/3 135/1/3 134/1/3
f 139/3/3 134/3/3 138/3/3
f 140/1/3 135/1/3 139/1/3
f 141/3/3 136/3/3 135/3/3
f 141/1/3 135/1/3 140/1/3
f 142/3/3 136/3/3 141/3/3
f 143/4/3 138/4/3 137/4/3
f 143/2/3 139/2/3 138/2/3
f 144/2/3 139/2/3 143/2/3
f 145/3/3 136/3/3 142/3/3
f 145/2/3 142/2/3 141/2/3
f 145/2/3 141/2/3 140/2/3
f 146/4/3 131/4/3 136/4/3
f 146/3/3 136/3/3 145/3/3
f 147/2/3 145/2/3 140/2/3
f 148/4/3 146/4/3 145/4/3
f 148/2/3 145/2/3 147/2/3
f 149/2/3 139/2/3 144/2/3
f 149/4/3 144/4/3 143/4/3
f 150/3/3 140/3/3 139/3/3
f 150/2/3 139/2/3 149/2/3
f 151/2/3 147/2/3 140/2/3
f 151/3/3 140/3/3 150/3/3
f 152/4/3 148/4/3 147/4/3
f 152/2/3 147/2/3 151/2/3
f 153/3/3 151/3/3 150/3/3
f 153/4/3 150/4/3 149/4/3
f 154/4/3 152/4/3 151/4/3
f 154/3/3 151/3/3 153/3/3
f 155/4/3 149/4/3 143/4/3
f 155/4/3 117/4/3 111/4/3
f 155/4/3 154/4/3 153/4/3
f 155/4/3 153/4/3 149/4/3
f 155/4/3 143/4/3 137/4/3
f 155/4/3 137/4/3 117/4/3
f 156/4/3 69/4/3 75/4/3
f 156/4/3 154/4/3 155/4/3
f 156/4/3 58/4/3 64/4/3
f 156/4/3 148/4/3 152/4/3
f 156/4/3 10/4/3 58/4/3
f 156/4/3 152/4/3 154/4/3
f 156/4/3 64/4/3 69/4/3
f 156/4/3 85/4/3 131/4/3
f 156/4/3 146/4/3 148/4/3
f 156/4/3 75/4/3 85/4/3
f 156/4/3 131/4/3 146/4/3
f 157/4/4 158/4/4 159/4/4
f 159/4/4 158/4/4 160/4/4
f 157/4/4 159/4/4 161/4/4
f 159/8/4 160/8/4 162/8/4
f 161/4/4 159/4/4 162/4/4
f 160/4/4 158/4/4 163/4/4
f 162/8/4 160/8/4 163/8/4
f 163/4/4 158/4/4 164/4/4
f 157/4/4 161/4/4 165/4/4
f 165/4/4 161/4/4 166/4/4
f 161/8/4 162/8/4 167/8/4
f 166/4/4 161/4/4 167/4/4
f 162/8/4 163/8/4 167/8/4
f 163/8/4 164/8/4 167/8/4
f 164/4/4 158/4/4 168/4/4
f 167/8/4 164/8/4 168/8/4
f 168/4/4 158/4/4 169/4/4
f 165/6/4 166/6/4 170/6/4
f 170/6/4 166/6/4 171/6/4
f 166/8/4 167/8/4 172/8/4
f 171/6/4 166/6/4 172/6/4
f 167/8/4 168/8/4 172/8/4
f 168/8/4 169/8/4 172/8/4
f 172/8/4 169/8/4 173/8/4
f 173/8/4 169/8/4 174/8/4
f 169/4/4 158/4/4 175/4/4
f 174/8/4 169/8/4 175/8/4
f 175/4/4 158/4/4 176/4/4
f 157/4/4 165/4/4 177/4/4
f 165/6/4 170/6/4 177/6/4
f 170/4/4 171/4/4 178/4/4
f 177/6/4 170/6/4 178/6/4
f 171/8/4 172/8/4 179/8/4
f 178/4/4 171/4/4 179/4/4
f 172/8/4 173/8/4 179/8/4
f 179/8/4 173/8/4 180/8/4
f 180/8/4 173/8/4 181/8/4
f 173/5/4 174/5/4 182/5/4
f 181/8/4 173/8/4 182/8/4
f 175/8/4 176/8/4 183/8/4
f 182/5/4 174/5/4 183/5/4
f 174/8/4 175/8/4 183/8/4
f 183/8/4 176/8/4 184/8/4
f 157/4/4 177/4/4 185/4/4
f 177/4/4 178/4/4 185/4/4
f 179/6/4 180/6/4 186/6/4
f 185/4/4 178/4/4 186/4/4
f 178/6/4 179/6/4 186/6/4
f 186/6/4 180/6/4 187/6/4
f 180/8/4 181/8/4 188/8/4
f 187/6/4 180/6/4 188/6/4
f 188/8/4 181/8/4 189/8/4
f 181/5/4 182/5/4 190/5/4
f 189/8/4 181/8/4 190/8/4
f 183/5/4 184/5/4 190/5/4
f 182/5/4 183/5/4 190/5/4
f 190/5/4 184/5/4 191/5/4
f 191/5/4 184/5/4 192/5/4
f 186/6/4 187/6/4 193/6/4
f 157/4/4 185/4/4 193/4/4
f 185/6/4 186/6/4 193/6/4
f 193/6/4 187/6/4 194/6/4
f 188/8/4 189/8/4 195/8/4
f 194/6/4 187/6/4 195/6/4
f 187/8/4 188/8/4 195/8/4
f 195/8/4 189/8/4 196/8/4
f 191/9/4 192/9/4 197/9/4
f 190/5/4 191/5/4 197/5/4
f 189/5/4 190/5/4 197/5/4
f 192/5/4 184/5/4 198/5/4
f 197/9/4 192/9/4 198/9/4
f 193/4/4 194/4/4 199/4/4
f 195/6/4 196/6/4 200/6/4
f 199/4/4 194/4/4 200/4/4
f 194/6/4 195/6/4 200/6/4
f 189/5/4 197/5/4 201/5/4
f 196/8/4 189/8/4 201/8/4
f 197/5/4 198/5/4 201/5/4
f 201/5/4 198/5/4 202/5/4
f 198/5/4 184/5/4 203/5/4
f 202/5/4 198/5/4 203/5/4
f 184/8/4 176/8/4 204/8/4
f 203/5/4 184/5/4 204/5/4
f 204/8/4 176/8/4 205/8/4
f 176/4/4 158/4/4 206/4/4
f 205/8/4 176/8/4 206/8/4
f 199/6/4 200/6/4 207/6/4
f 193/4/4 199/4/4 207/4/4
f 200/6/4 196/6/4 208/6/4
f 207/6/4 200/6/4 208/6/4
f 202/5/4 203/5/4 209/5/4
f 201/8/4 202/8/4 209/8/4
f 204/8/4 205/8/4 210/8/4
f 209/5/4 203/5/4 210/5/4
f 203/8/4 204/8/4 210/8/4
f 210/8/4 205/8/4 211/8/4
f 205/4/4 206/4/4 212/4/4
f 211/8/4 205/8/4 212/8/4
f 208/6/4 196/6/4 213/6/4
f 213/6/4 196/6/4 214/6/4
f 201/8/4 209/8/4 215/8/4
f 214/6/4 196/6/4 215/6/4
f 210/8/4 211/8/4 215/8/4
f 196/8/4 201/8/4 215/8/4
f 209/8/4 210/8/4 215/8/4
f 215/8/4 211/8/4 216/8/4
f 211/4/4 212/4/4 217/4/4
f 216/8/4 211/8/4 217/8/4
f 207/4/4 208/4/4 218/4/4
f 208/6/4 213/6/4 218/6/4
f 213/4/4 214/4/4 219/4/4
f 218/6/4 213/6/4 219/6/4
f 215/8/4 216/8/4 220/8/4
f 219/4/4 214/4/4 220/4/4
f 214/8/4 215/8/4 220/8/4
f 220/8/4 216/8/4 221/8/4
f 218/4/4 219/4/4 222/4/4
f 221/8/4 216/8/4 222/8/4
f 220/4/4 221/4/4 222/4/4
f 219/4/4 220/4/4 222/4/4
f 216/4/4 217/4/4 223/4/4
f 222/8/4 216/8/4 223/8/4
f 193/4/4 207/4/4 224/4/4
f 207/4/4 218/4/4 224/4/4
f 222/4/4 223/4/4 224/4/4
f 218/4/4 222/4/4 224/4/4
f 157/4/4 193/4/4 224/4/4
f 224/4/4 223/4/4 225/4/4
f 157/4/4 224/4/4 226/4/4
f 224/9/4 225/9/4 227/9/4
f 226/4/4 224/4/4 227/4/4
f 225/4/4 223/4/4 228/4/4
f 227/9/4 225/9/4 228/9/4
f 228/4/4 223/4/4 229/4/4
f 226/9/4 227/9/4 230/9/4
f 157/4/4 226/4/4 230/4/4
f 228/9/4 229/9/4 230/9/4
f 227/9/4 228/9/4 230/9/4
f 230/9/4 229/9/4 231/9/4
f 231/9/4 229/9/4 232/9/4
f 229/4/4 223/4/4 233/4/4
f 232/9/4 229/9/4 233/9/4
f 157/4/4 230/4/4 234/4/4
f 230/4/4 231/4/4 234/4/4
f 234/4/4 231/4/4 235/4/4
f 157/4/4 234/4/4 236/4/4
f 234/7/4 235/7/4 237/7/4
f 236/4/4 234/4/4 237/4/4
f 231/9/4 232/9/4 238/9/4
f 235/4/4 231/4/4 238/4/4
f 232/4/4 233/4/4 239/4/4
f 238/9/4 232/9/4 239/9/4
f 237/7/4 235/7/4 240/7/4
f 236/7/4 237/7/4 240/7/4
f 235/4/4 238/4/4 241/4/4
f 240/7/4 235/7/4 241/7/4
f 238/4/4 239/4/4 241/4/4
f 157/4/4 236/4/4 242/4/4
f 236/7/4 240/7/4 243/7/4
f 242/4/4 236/4/4 243/4/4
f 243/7/4 240/7/4 244/7/4
f 240/4/4 241/4/4 245/4/4
f 244/7/4 240/7/4 245/7/4
f 157/4/4 242/4/4 246/4/4
f 243/7/4 244/7/4 247/7/4
f 246/4/4 242/4/4 247/4/4
f 242/7/4 243/7/4 247/7/4
f 244/4/4 245/4/4 248/4/4
f 247/7/4 244/7/4 248/7/4
f 245/4/4 241/4/4 249/4/4
f 248/4/4 245/4/4 249/4/4
f 241/4/4 239/4/4 249/4/4
f 249/4/4 239/4/4 250/4/4
f 250/4/4 239/4/4 251/4/4
f 247/7/4 248/7/4 252/7/4
f 246/7/4 247/7/4 252/7/4
f 248/7/4 249/7/4 252/7/4
f 249/4/4 250/4/4 252/4/4
f 252/4/4 250/4/4 253/4/4
f 253/4/4 250/4/4 254/4/4
f 250/3/4 251/3/4 255/3/4
f 254/4/4 250/4/4 255/4/4
f 255/3/4 251/3/4 256/3/4
f 251/4/4 239/4/4 257/4/4
f 256/3/4 251/3/4 257/3/4
f 239/4/4 233/4/4 258/4/4
f 257/4/4 239/4/4 258/4/4
f 246/7/4 252/7/4 259/7/4
f 252/7/4 253/7/4 259/7/4
f 259/7/4 253/7/4 260/7/4
f 253/4/4 254/4/4 261/4/4
f 260/7/4 253/7/4 261/7/4
f 261/4/4 254/4/4 262/4/4
f 254/2/4 255/2/4 263/2/4
f 262/4/4 254/4/4 263/4/4
f 263/2/4 255/2/4 264/2/4
f 259/4/4 260/4/4 265/4/4
f 261/7/4 262/7/4 265/7/4
f 260/7/4 261/7/4 265/7/4
f 265/7/4 262/7/4 266/7/4
f 263/3/4 264/3/4 267/3/4
f 266/7/4 262/7/4 267/7/4
f 262/3/4 263/3/4 267/3/4
f 267/3/4 264/3/4 268/3/4
f 264/2/4 255/2/4 269/2/4
f 268/3/4 264/3/4 269/3/4
f 269/2/4 255/2/4 270/2/4
f 265/4/4 266/4/4 271/4/4
f 266/7/4 267/7/4 271/7/4
f 267/2/4 268/2/4 272/2/4
f 271/7/4 267/7/4 272/7/4
f 269/3/4 270/3/4 273/3/4
f 272/2/4 268/2/4 273/2/4
f 268/3/4 269/3/4 273/3/4
f 273/3/4 270/3/4 274/3/4
f 270/2/4 255/2/4 275/2/4
f 274/3/4 270/3/4 275/3/4
f 255/3/4 256/3/4 276/3/4
f 275/2/4 255/2/4 276/2/4
f 256/2/4 257/2/4 277/2/4
f 276/3/4 256/3/4 277/3/4
f 257/2/4 258/2/4 277/2/4
f 277/2/4 258/2/4 278/2/4
f 258/4/4 233/4/4 279/4/4
f 278/2/4 258/2/4 279/2/4
f 265/4/4 271/4/4 280/4/4
f 271/4/4 272/4/4 280/4/4
f 272/2/4 273/2/4 281/2/4
f 280/4/4 272/4/4 281/4/4
f 273/2/4 274/2/4 281/2/4
f 275/1/4 276/1/4 282/1/4
f 281/2/4 274/2/4 282/2/4
f 274/1/4 275/1/4 282/1/4
f 277/2/4 278/2/4 283/2/4
f 282/1/4 276/1/4 283/1/4
f 276/2/4 277/2/4 283/2/4
f 278/4/4 279/4/4 284/4/4
f 283/2/4 278/2/4 284/2/4
f 280/3/4 281/3/4 285/3/4
f 281/3/4 282/3/4 285/3/4
f 265/4/4 280/4/4 285/4/4
f 285/3/4 282/3/4 286/3/4
f 282/1/4 283/1/4 287/1/4
f 286/3/4 282/3/4 287/3/4
f 287/1/4 283/1/4 288/1/4
f 283/3/4 284/3/4 289/3/4
f 288/1/4 283/1/4 289/1/4
f 289/3/4 284/3/4 290/3/4
f 285/4/4 286/4/4 291/4/4
f 286/2/4 287/2/4 291/2/4
f 291/2/4 287/2/4 292/2/4
f 290/3/4 284/3/4 293/3/4
f 289/2/4 290/2/4 293/2/4
f 288/2/4 289/2/4 293/2/4
f 284/4/4 279/4/4 294/4/4
f 293/3/4 284/3/4 294/3/4
f 288/2/4 293/2/4 295/2/4
f 293/4/4 294/4/4 296/4/4
f 295/2/4 293/2/4 296/2/4
f 292/2/4 287/2/4 297/2/4
f 291/4/4 292/4/4 297/4/4
f 287/3/4 288/3/4 298/3/4
f 297/2/4 287/2/4 298/2/4
f 288/2/4 295/2/4 299/2/4
f 298/3/4 288/3/4 299/3/4
f 295/4/4 296/4/4 300/4/4
f 299/2/4 295/2/4 300/2/4
f 298/3/4 299/3/4 301/3/4
f 297/4/4 298/4/4 301/4/4
f 299/4/4 300/4/4 302/4/4
f 301/3/4 299/3/4 302/3/4
f 291/4/4 297/4/4 303/4/4
f 259/4/4 265/4/4 303/4/4
f 301/4/4 302/4/4 303/4/4
f 297/4/4 301/4/4 303/4/4
f 285/4/4 291/4/4 303/4/4
f 265/4/4 285/4/4 303/4/4
f 223/4/4 217/4/4 304/4/4
f 303/4/4 302/4/4 304/4/4
f 212/4/4 206/4/4 304/4/4
f 300/4/4 296/4/4 304/4/4
f 206/4/4 158/4/4 304/4/4
f 302/4/4 300/4/4 304/4/4
f 217/4/4 212/4/4 304/4/4
f 279/4/4 233/4/4 304/4/4
f 296/4/4 294/4/4 304/4/4
f 233/4/4 223/4/4 304/4/4
f 294/4/4 279/4/4 304/4/4
f 309/4/5 306/4/5 305/4/5
f 310/7/5 307/7/5 306/7/5
f 310/4/5 306/4/5 309/4/5
f 311/4/5 308/4/5 307/4/5
f 311/7/5 307/7/5 310/7/5
f 312/4/5 308/4/5 311/4/5
f 313/4/6 314/4/6 315/4/6
f 315/4/6 314/4/6 316/4/6
