# MagicaVoxel @ Ephtracy

# group
o 

# material
mtllib untitled4.mtl
usemtl palette

# normals
vn -1 0 0
vn 1 0 0
vn 0 0 1
vn 0 0 -1
vn 0 -1 0
vn 0 1 0

# texcoords
vt 0.400391 0.5
vt 0.423828 0.5
vt 0.560547 0.5
vt 0.775391 0.5
vt 0.802734 0.5
vt 0.958984 0.5
vt 0.982422 0.5
vt 0.994141 0.5

# verts
v -2 0 -1.9
v -2 0 -2
v -2 4 -1.9
v -2 4 -2
v 2 0 -1.9
v 2 0 -2
v 2 4 -1.9
v 2 4 -2
v -2 0 -1.9
v -2 4 -1.9
v -1.6 2.4 -1.9
v -1.6 2.5 -1.9
v -1.5 0.1 -1.9
v -1.5 0.7 -1.9
v -1.5 0.9 -1.9
v -1.5 1.8 -1.9
v -1.5 2.3 -1.9
v -1.5 2.4 -1.9
v -1.5 2.5 -1.9
v -1.5 2.6 -1.9
v -1.4 0.1 -1.9
v -1.4 0.7 -1.9
v -1.4 0.8 -1.9
v -1.4 0.9 -1.9
v -1.4 2.6 -1.9
v -1.4 3 -1.9
v -1.4 3.2 -1.9
v -1.4 3.7 -1.9
v -1.3 1.1 -1.9
v -1.3 1.6 -1.9
v -1.3 1.8 -1.9
v -1.3 1.9 -1.9
v -1.3 2.9 -1.9
v -1.3 3 -1.9
v -1.3 3.2 -1.9
v -1.3 3.7 -1.9
v -1.2 0.3 -1.9
v -1.2 0.7 -1.9
v -1.2 0.8 -1.9
v -1.2 1 -1.9
v -1.2 1.1 -1.9
v -1.2 1.2 -1.9
v -1.2 1.5 -1.9
v -1.2 2.7 -1.9
v -1.2 2.9 -1.9
v -1.1 0.1 -1.9
v -1.1 0.3 -1.9
v -1.1 0.7 -1.9
v -1.1 0.8 -1.9
v -1.1 1 -1.9
v -1.1 1.1 -1.9
v -1.1 1.2 -1.9
v -1.1 1.5 -1.9
v -1.1 1.8 -1.9
v -1.1 1.9 -1.9
v -1.1 2.7 -1.9
v -1.1 2.8 -1.9
v -1 0.1 -1.9
v -1 0.3 -1.9
v -1 0.7 -1.9
v -1 0.8 -1.9
v -1 0.9 -1.9
v -1 1.1 -1.9
v -1 1.6 -1.9
v -1 2.7 -1.9
v -1 2.8 -1.9
v -1 3 -1.9
v -0.9 0.3 -1.9
v -0.9 0.7 -1.9
v -0.9 0.9 -1.9
v -0.9 1 -1.9
v -0.9 1.6 -1.9
v -0.9 1.8 -1.9
v -0.9 2.3 -1.9
v -0.9 2.4 -1.9
v -0.9 2.6 -1.9
v -0.9 2.7 -1.9
v -0.8 1 -1.9
v -0.8 1.6 -1.9
v -0.8 2.4 -1.9
v -0.8 2.6 -1.9
v -0.3 2.4 -1.9
v -0.3 2.5 -1.9
v -0.2 2.3 -1.9
v -0.2 2.4 -1.9
v -0.2 2.5 -1.9
v -0.2 2.6 -1.9
v -0.0999999 2.6 -1.9
v -0.0999999 3 -1.9
v 2.38419e-07 2.9 -1.9
v 2.38419e-07 3 -1.9
v 2.38419e-07 3.1 -1.9
v 2.38419e-07 3.8 -1.9
v 0.1 2.7 -1.9
v 0.1 2.9 -1.9
v 0.1 3.1 -1.9
v 0.1 3.8 -1.9
v 0.2 2.7 -1.9
v 0.2 2.8 -1.9
v 0.2 3.1 -1.9
v 0.2 3.8 -1.9
v 0.3 2.7 -1.9
v 0.3 2.8 -1.9
v 0.3 3 -1.9
v 0.3 3.1 -1.9
v 0.3 3.8 -1.9
v 0.4 2.3 -1.9
v 0.4 2.4 -1.9
v 0.4 2.6 -1.9
v 0.4 2.7 -1.9
v 0.5 2.4 -1.9
v 0.5 2.6 -1.9
v 0.7 0.2 -1.9
v 0.7 0.6 -1.9
v 0.7 0.9 -1.9
v 0.7 1.4 -1.9
v 0.8 0 -1.9
v 0.8 0.2 -1.9
v 0.8 0.6 -1.9
v 0.8 0.8 -1.9
v 0.8 0.9 -1.9
v 0.8 1.4 -1.9
v 0.8 1.5 -1.9
v 0.9 0 -1.9
v 0.9 0.2 -1.9
v 0.9 0.6 -1.9
v 0.9 0.7 -1.9
v 0.9 0.8 -1.9
v 0.9 0.9 -1.9
v 0.9 1.4 -1.9
v 0.9 1.5 -1.9
v 0.9 1.6 -1.9
v 0.9 2.4 -1.9
v 0.9 2.5 -1.9
v 1 0.2 -1.9
v 1 0.6 -1.9
v 1 0.7 -1.9
v 1 0.8 -1.9
v 1 0.9 -1.9
v 1 1.6 -1.9
v 1 1.8 -1.9
v 1 2.3 -1.9
v 1 2.4 -1.9
v 1 2.5 -1.9
v 1 2.6 -1.9
v 1.1 1 -1.9
v 1.1 1.2 -1.9
v 1.1 2.6 -1.9
v 1.1 3 -1.9
v 1.1 3.2 -1.9
v 1.1 3.8 -1.9
v 1.2 2.9 -1.9
v 1.2 3 -1.9
v 1.2 3.2 -1.9
v 1.2 3.8 -1.9
v 1.3 1 -1.9
v 1.3 1.2 -1.9
v 1.3 1.3 -1.9
v 1.3 1.4 -1.9
v 1.3 2.7 -1.9
v 1.3 2.9 -1.9
v 1.3 3.1 -1.9
v 1.3 3.8 -1.9
v 1.4 0.6 -1.9
v 1.4 0.7 -1.9
v 1.4 1.3 -1.9
v 1.4 1.4 -1.9
v 1.4 1.7 -1.9
v 1.4 1.8 -1.9
v 1.4 2.7 -1.9
v 1.4 2.8 -1.9
v 1.4 3.1 -1.9
v 1.4 3.8 -1.9
v 1.5 0.8 -1.9
v 1.5 1.3 -1.9
v 1.5 1.6 -1.9
v 1.5 1.7 -1.9
v 1.5 2.7 -1.9
v 1.5 2.8 -1.9
v 1.5 3 -1.9
v 1.5 3.1 -1.9
v 1.5 3.8 -1.9
v 1.6 0.7 -1.9
v 1.6 0.9 -1.9
v 1.6 1.4 -1.9
v 1.6 1.6 -1.9
v 1.6 2.3 -1.9
v 1.6 2.4 -1.9
v 1.6 2.6 -1.9
v 1.6 2.7 -1.9
v 1.6 3.1 -1.9
v 1.6 3.8 -1.9
v 1.7 0.9 -1.9
v 1.7 1.4 -1.9
v 1.7 2.4 -1.9
v 1.7 2.6 -1.9
v 2 0 -1.9
v 2 4 -1.9
v -2 0 -2
v -2 4 -2
v -1.6 2.4 -2
v -1.6 2.5 -2
v -1.5 0.1 -2
v -1.5 0.7 -2
v -1.5 0.9 -2
v -1.5 1.8 -2
v -1.5 2.3 -2
v -1.5 2.4 -2
v -1.5 2.5 -2
v -1.5 2.6 -2
v -1.4 0.1 -2
v -1.4 0.7 -2
v -1.4 0.8 -2
v -1.4 0.9 -2
v -1.4 2.6 -2
v -1.4 3 -2
v -1.4 3.2 -2
v -1.4 3.7 -2
v -1.3 1.1 -2
v -1.3 1.6 -2
v -1.3 1.8 -2
v -1.3 1.9 -2
v -1.3 2.9 -2
v -1.3 3 -2
v -1.3 3.2 -2
v -1.3 3.7 -2
v -1.2 0.3 -2
v -1.2 0.7 -2
v -1.2 0.8 -2
v -1.2 1 -2
v -1.2 1.1 -2
v -1.2 1.2 -2
v -1.2 1.5 -2
v -1.2 2.7 -2
v -1.2 2.9 -2
v -1.1 0.1 -2
v -1.1 0.3 -2
v -1.1 0.7 -2
v -1.1 0.8 -2
v -1.1 1 -2
v -1.1 1.1 -2
v -1.1 1.2 -2
v -1.1 1.5 -2
v -1.1 1.8 -2
v -1.1 1.9 -2
v -1.1 2.7 -2
v -1.1 2.8 -2
v -1 0.1 -2
v -1 0.3 -2
v -1 0.7 -2
v -1 0.8 -2
v -1 0.9 -2
v -1 1.1 -2
v -1 1.6 -2
v -1 2.7 -2
v -1 2.8 -2
v -1 3 -2
v -0.9 0.3 -2
v -0.9 0.7 -2
v -0.9 0.9 -2
v -0.9 1 -2
v -0.9 1.6 -2
v -0.9 1.8 -2
v -0.9 2.3 -2
v -0.9 2.4 -2
v -0.9 2.6 -2
v -0.9 2.7 -2
v -0.8 1 -2
v -0.8 1.6 -2
v -0.8 2.4 -2
v -0.8 2.6 -2
v -0.3 2.4 -2
v -0.3 2.5 -2
v -0.2 2.3 -2
v -0.2 2.4 -2
v -0.2 2.5 -2
v -0.2 2.6 -2
v -0.0999999 2.6 -2
v -0.0999999 3 -2
v 2.38419e-07 2.9 -2
v 2.38419e-07 3 -2
v 2.38419e-07 3.1 -2
v 2.38419e-07 3.8 -2
v 0.1 2.7 -2
v 0.1 2.9 -2
v 0.1 3.1 -2
v 0.1 3.8 -2
v 0.2 2.7 -2
v 0.2 2.8 -2
v 0.2 3.1 -2
v 0.2 3.8 -2
v 0.3 2.7 -2
v 0.3 2.8 -2
v 0.3 3 -2
v 0.3 3.1 -2
v 0.3 3.8 -2
v 0.4 2.3 -2
v 0.4 2.4 -2
v 0.4 2.6 -2
v 0.4 2.7 -2
v 0.5 2.4 -2
v 0.5 2.6 -2
v 0.7 0.2 -2
v 0.7 0.6 -2
v 0.7 0.9 -2
v 0.7 1.4 -2
v 0.8 0 -2
v 0.8 0.2 -2
v 0.8 0.6 -2
v 0.8 0.8 -2
v 0.8 0.9 -2
v 0.8 1.4 -2
v 0.8 1.5 -2
v 0.9 0 -2
v 0.9 0.2 -2
v 0.9 0.6 -2
v 0.9 0.7 -2
v 0.9 0.8 -2
v 0.9 0.9 -2
v 0.9 1.4 -2
v 0.9 1.5 -2
v 0.9 1.6 -2
v 0.9 2.4 -2
v 0.9 2.5 -2
v 1 0.2 -2
v 1 0.6 -2
v 1 0.7 -2
v 1 0.8 -2
v 1 0.9 -2
v 1 1.6 -2
v 1 1.8 -2
v 1 2.3 -2
v 1 2.4 -2
v 1 2.5 -2
v 1 2.6 -2
v 1.1 1 -2
v 1.1 1.2 -2
v 1.1 2.6 -2
v 1.1 3 -2
v 1.1 3.2 -2
v 1.1 3.8 -2
v 1.2 2.9 -2
v 1.2 3 -2
v 1.2 3.2 -2
v 1.2 3.8 -2
v 1.3 1 -2
v 1.3 1.2 -2
v 1.3 1.3 -2
v 1.3 1.4 -2
v 1.3 2.7 -2
v 1.3 2.9 -2
v 1.3 3.1 -2
v 1.3 3.8 -2
v 1.4 0.6 -2
v 1.4 0.7 -2
v 1.4 1.3 -2
v 1.4 1.4 -2
v 1.4 1.7 -2
v 1.4 1.8 -2
v 1.4 2.7 -2
v 1.4 2.8 -2
v 1.4 3.1 -2
v 1.4 3.8 -2
v 1.5 0.8 -2
v 1.5 1.3 -2
v 1.5 1.6 -2
v 1.5 1.7 -2
v 1.5 2.7 -2
v 1.5 2.8 -2
v 1.5 3 -2
v 1.5 3.1 -2
v 1.5 3.8 -2
v 1.6 0.7 -2
v 1.6 0.9 -2
v 1.6 1.4 -2
v 1.6 1.6 -2
v 1.6 2.3 -2
v 1.6 2.4 -2
v 1.6 2.6 -2
v 1.6 2.7 -2
v 1.6 3.1 -2
v 1.6 3.8 -2
v 1.7 0.9 -2
v 1.7 1.4 -2
v 1.7 2.4 -2
v 1.7 2.6 -2
v 2 0 -2
v 2 4 -2
v -2 0 -1.9
v 0.8 0 -1.9
v 0.9 0 -1.9
v 2 0 -1.9
v -2 0 -2
v 0.8 0 -2
v 0.9 0 -2
v 2 0 -2
v -2 4 -1.9
v 2 4 -1.9
v -2 4 -2
v 2 4 -2

# faces
f 3/3/1 2/3/1 1/3/1
f 4/3/1 2/3/1 3/3/1
f 5/3/2 6/3/2 7/3/2
f 7/3/2 6/3/2 8/3/2
f 11/3/3 10/3/3 9/3/3
f 12/3/3 10/3/3 11/3/3
f 13/3/3 11/3/3 9/3/3
f 14/3/3 11/3/3 13/3/3
f 15/3/3 11/3/3 14/3/3
f 16/3/3 11/3/3 15/3/3
f 17/3/3 11/3/3 16/3/3
f 18/1/3 12/1/3 11/1/3
f 18/3/3 11/3/3 17/3/3
f 19/3/3 10/3/3 12/3/3
f 19/1/3 12/1/3 18/1/3
f 20/3/3 10/3/3 19/3/3
f 21/3/3 13/3/3 9/3/3
f 21/7/3 14/7/3 13/7/3
f 22/3/3 15/3/3 14/3/3
f 22/7/3 14/7/3 21/7/3
f 23/3/3 15/3/3 22/3/3
f 24/6/3 16/6/3 15/6/3
f 24/3/3 15/3/3 23/3/3
f 25/1/3 18/1/3 17/1/3
f 25/3/3 10/3/3 20/3/3
f 25/1/3 20/1/3 19/1/3
f 25/1/3 19/1/3 18/1/3
f 26/3/3 10/3/3 25/3/3
f 27/3/3 10/3/3 26/3/3
f 28/3/3 10/3/3 27/3/3
f 29/6/3 16/6/3 24/6/3
f 29/6/3 24/6/3 23/6/3
f 30/6/3 16/6/3 29/6/3
f 31/3/3 17/3/3 16/3/3
f 31/6/3 16/6/3 30/6/3
f 32/3/3 17/3/3 31/3/3
f 33/1/3 26/1/3 25/1/3
f 34/3/3 27/3/3 26/3/3
f 34/1/3 26/1/3 33/1/3
f 35/7/3 28/7/3 27/7/3
f 35/3/3 27/3/3 34/3/3
f 36/3/3 10/3/3 28/3/3
f 36/7/3 28/7/3 35/7/3
f 37/3/3 22/3/3 21/3/3
f 37/3/3 23/3/3 22/3/3
f 38/3/3 23/3/3 37/3/3
f 39/6/3 29/6/3 23/6/3
f 39/3/3 23/3/3 38/3/3
f 40/6/3 29/6/3 39/6/3
f 41/4/3 30/4/3 29/4/3
f 41/6/3 29/6/3 40/6/3
f 42/4/3 30/4/3 41/4/3
f 43/4/3 30/4/3 42/4/3
f 44/1/3 33/1/3 25/1/3
f 45/2/3 34/2/3 33/2/3
f 45/1/3 33/1/3 44/1/3
f 46/3/3 21/3/3 9/3/3
f 46/3/3 37/3/3 21/3/3
f 47/7/3 38/7/3 37/7/3
f 47/3/3 37/3/3 46/3/3
f 48/6/3 40/6/3 39/6/3
f 48/7/3 38/7/3 47/7/3
f 48/6/3 39/6/3 38/6/3
f 49/6/3 40/6/3 48/6/3
f 50/4/3 41/4/3 40/4/3
f 50/6/3 40/6/3 49/6/3
f 50/4/3 42/4/3 41/4/3
f 51/4/3 42/4/3 50/4/3
f 52/8/3 43/8/3 42/8/3
f 52/4/3 42/4/3 51/4/3
f 53/4/3 30/4/3 43/4/3
f 53/8/3 43/8/3 52/8/3
f 54/6/3 31/6/3 30/6/3
f 54/6/3 32/6/3 31/6/3
f 55/3/3 17/3/3 32/3/3
f 55/6/3 32/6/3 54/6/3
f 56/1/3 44/1/3 25/1/3
f 56/2/3 45/2/3 44/2/3
f 57/2/3 45/2/3 56/2/3
f 58/7/3 47/7/3 46/7/3
f 58/3/3 46/3/3 9/3/3
f 59/3/3 49/3/3 48/3/3
f 59/7/3 47/7/3 58/7/3
f 59/3/3 48/3/3 47/3/3
f 60/3/3 49/3/3 59/3/3
f 61/6/3 51/6/3 50/6/3
f 61/3/3 49/3/3 60/3/3
f 61/6/3 50/6/3 49/6/3
f 62/6/3 51/6/3 61/6/3
f 63/4/3 52/4/3 51/4/3
f 63/6/3 51/6/3 62/6/3
f 63/4/3 53/4/3 52/4/3
f 64/6/3 54/6/3 30/6/3
f 64/4/3 53/4/3 63/4/3
f 64/4/3 30/4/3 53/4/3
f 65/1/3 57/1/3 56/1/3
f 65/1/3 56/1/3 25/1/3
f 66/2/3 45/2/3 57/2/3
f 66/1/3 57/1/3 65/1/3
f 67/3/3 35/3/3 34/3/3
f 67/2/3 45/2/3 66/2/3
f 67/2/3 34/2/3 45/2/3
f 67/3/3 36/3/3 35/3/3
f 68/3/3 59/3/3 58/3/3
f 68/7/3 60/7/3 59/7/3
f 69/3/3 62/3/3 61/3/3
f 69/7/3 60/7/3 68/7/3
f 69/3/3 61/3/3 60/3/3
f 70/6/3 64/6/3 63/6/3
f 70/3/3 62/3/3 69/3/3
f 70/6/3 63/6/3 62/6/3
f 71/6/3 64/6/3 70/6/3
f 72/6/3 54/6/3 64/6/3
f 72/6/3 64/6/3 71/6/3
f 73/3/3 55/3/3 54/3/3
f 73/6/3 54/6/3 72/6/3
f 74/1/3 65/1/3 25/1/3
f 74/3/3 55/3/3 73/3/3
f 74/3/3 17/3/3 55/3/3
f 74/1/3 25/1/3 17/1/3
f 75/1/3 65/1/3 74/1/3
f 76/1/3 65/1/3 75/1/3
f 77/3/3 66/3/3 65/3/3
f 77/1/3 65/1/3 76/1/3
f 77/3/3 67/3/3 66/3/3
f 78/3/3 70/3/3 69/3/3
f 78/3/3 69/3/3 68/3/3
f 78/6/3 72/6/3 71/6/3
f 78/3/3 71/3/3 70/3/3
f 79/3/3 73/3/3 72/3/3
f 79/6/3 72/6/3 78/6/3
f 79/3/3 75/3/3 74/3/3
f 79/3/3 74/3/3 73/3/3
f 80/1/3 76/1/3 75/1/3
f 80/3/3 75/3/3 79/3/3
f 81/3/3 77/3/3 76/3/3
f 81/1/3 76/1/3 80/1/3
f 82/3/3 79/3/3 78/3/3
f 82/3/3 80/3/3 79/3/3
f 82/3/3 81/3/3 80/3/3
f 83/3/3 81/3/3 82/3/3
f 84/3/3 82/3/3 78/3/3
f 85/1/3 83/1/3 82/1/3
f 85/3/3 82/3/3 84/3/3
f 86/3/3 81/3/3 83/3/3
f 86/1/3 83/1/3 85/1/3
f 87/3/3 77/3/3 81/3/3
f 87/3/3 81/3/3 86/3/3
f 88/1/3 86/1/3 85/1/3
f 88/3/3 77/3/3 87/3/3
f 88/1/3 87/1/3 86/1/3
f 88/1/3 85/1/3 84/1/3
f 89/3/3 67/3/3 77/3/3
f 89/3/3 77/3/3 88/3/3
f 89/3/3 36/3/3 67/3/3
f 90/1/3 89/1/3 88/1/3
f 91/3/3 36/3/3 89/3/3
f 91/1/3 89/1/3 90/1/3
f 92/3/3 36/3/3 91/3/3
f 93/3/3 10/3/3 36/3/3
f 93/3/3 36/3/3 92/3/3
f 94/1/3 90/1/3 88/1/3
f 95/2/3 91/2/3 90/2/3
f 95/1/3 90/1/3 94/1/3
f 96/3/3 92/3/3 91/3/3
f 96/7/3 93/7/3 92/7/3
f 97/3/3 10/3/3 93/3/3
f 97/7/3 93/7/3 96/7/3
f 98/1/3 94/1/3 88/1/3
f 98/2/3 95/2/3 94/2/3
f 99/2/3 95/2/3 98/2/3
f 100/3/3 96/3/3 91/3/3
f 100/3/3 97/3/3 96/3/3
f 101/3/3 10/3/3 97/3/3
f 101/3/3 97/3/3 100/3/3
f 102/1/3 99/1/3 98/1/3
f 102/1/3 98/1/3 88/1/3
f 103/2/3 95/2/3 99/2/3
f 103/1/3 99/1/3 102/1/3
f 104/2/3 91/2/3 95/2/3
f 104/2/3 95/2/3 103/2/3
f 104/3/3 100/3/3 91/3/3
f 105/7/3 101/7/3 100/7/3
f 105/3/3 100/3/3 104/3/3
f 106/3/3 10/3/3 101/3/3
f 106/7/3 101/7/3 105/7/3
f 107/3/3 84/3/3 78/3/3
f 107/1/3 88/1/3 84/1/3
f 107/1/3 102/1/3 88/1/3
f 108/1/3 102/1/3 107/1/3
f 109/1/3 102/1/3 108/1/3
f 110/3/3 106/3/3 105/3/3
f 110/1/3 102/1/3 109/1/3
f 110/3/3 103/3/3 102/3/3
f 110/3/3 105/3/3 104/3/3
f 110/3/3 104/3/3 103/3/3
f 111/1/3 109/1/3 108/1/3
f 111/3/3 108/3/3 107/3/3
f 112/3/3 110/3/3 109/3/3
f 112/1/3 109/1/3 111/1/3
f 113/3/3 78/3/3 68/3/3
f 113/3/3 111/3/3 107/3/3
f 113/3/3 112/3/3 111/3/3
f 113/3/3 107/3/3 78/3/3
f 113/3/3 68/3/3 58/3/3
f 114/3/3 112/3/3 113/3/3
f 115/3/3 112/3/3 114/3/3
f 116/3/3 112/3/3 115/3/3
f 117/3/3 58/3/3 9/3/3
f 117/3/3 113/3/3 58/3/3
f 118/7/3 114/7/3 113/7/3
f 118/3/3 113/3/3 117/3/3
f 119/3/3 115/3/3 114/3/3
f 119/7/3 114/7/3 118/7/3
f 120/3/3 115/3/3 119/3/3
f 121/6/3 116/6/3 115/6/3
f 121/3/3 115/3/3 120/3/3
f 122/3/3 112/3/3 116/3/3
f 122/6/3 116/6/3 121/6/3
f 123/3/3 112/3/3 122/3/3
f 124/7/3 118/7/3 117/7/3
f 125/3/3 120/3/3 119/3/3
f 125/7/3 118/7/3 124/7/3
f 125/3/3 119/3/3 118/3/3
f 126/3/3 120/3/3 125/3/3
f 127/3/3 120/3/3 126/3/3
f 128/6/3 121/6/3 120/6/3
f 128/3/3 120/3/3 127/3/3
f 128/6/3 123/6/3 122/6/3
f 128/6/3 122/6/3 121/6/3
f 129/6/3 123/6/3 128/6/3
f 130/6/3 123/6/3 129/6/3
f 131/3/3 112/3/3 123/3/3
f 131/6/3 123/6/3 130/6/3
f 132/3/3 112/3/3 131/3/3
f 133/3/3 112/3/3 132/3/3
f 134/3/3 112/3/3 133/3/3
f 135/7/3 126/7/3 125/7/3
f 135/3/3 125/3/3 124/3/3
f 136/3/3 127/3/3 126/3/3
f 136/7/3 126/7/3 135/7/3
f 137/6/3 128/6/3 127/6/3
f 137/3/3 127/3/3 136/3/3
f 137/6/3 129/6/3 128/6/3
f 138/6/3 129/6/3 137/6/3
f 139/4/3 130/4/3 129/4/3
f 139/6/3 129/6/3 138/6/3
f 140/3/3 133/3/3 132/3/3
f 140/6/3 131/6/3 130/6/3
f 140/6/3 132/6/3 131/6/3
f 141/3/3 133/3/3 140/3/3
f 142/3/3 133/3/3 141/3/3
f 143/1/3 134/1/3 133/1/3
f 143/3/3 133/3/3 142/3/3
f 144/3/3 112/3/3 134/3/3
f 144/1/3 134/1/3 143/1/3
f 145/3/3 110/3/3 112/3/3
f 145/3/3 112/3/3 144/3/3
f 146/4/3 130/4/3 139/4/3
f 146/4/3 139/4/3 138/4/3
f 147/4/3 130/4/3 146/4/3
f 148/1/3 144/1/3 143/1/3
f 148/1/3 143/1/3 142/1/3
f 148/3/3 110/3/3 145/3/3
f 148/1/3 145/1/3 144/1/3
f 149/3/3 106/3/3 110/3/3
f 149/3/3 110/3/3 148/3/3
f 150/3/3 106/3/3 149/3/3
f 151/3/3 10/3/3 106/3/3
f 151/3/3 106/3/3 150/3/3
f 152/1/3 149/1/3 148/1/3
f 153/3/3 150/3/3 149/3/3
f 153/1/3 149/1/3 152/1/3
f 154/7/3 151/7/3 150/7/3
f 154/3/3 150/3/3 153/3/3
f 155/3/3 10/3/3 151/3/3
f 155/7/3 151/7/3 154/7/3
f 156/8/3 147/8/3 146/8/3
f 156/4/3 146/4/3 138/4/3
f 157/4/3 130/4/3 147/4/3
f 157/8/3 147/8/3 156/8/3
f 158/4/3 130/4/3 157/4/3
f 159/6/3 141/6/3 140/6/3
f 159/4/3 130/4/3 158/4/3
f 159/6/3 140/6/3 130/6/3
f 160/1/3 152/1/3 148/1/3
f 161/2/3 153/2/3 152/2/3
f 161/1/3 152/1/3 160/1/3
f 162/3/3 155/3/3 154/3/3
f 162/3/3 154/3/3 153/3/3
f 163/3/3 10/3/3 155/3/3
f 163/3/3 155/3/3 162/3/3
f 164/6/3 138/6/3 137/6/3
f 164/3/3 136/3/3 135/3/3
f 164/6/3 137/6/3 136/6/3
f 165/6/3 138/6/3 164/6/3
f 166/4/3 158/4/3 157/4/3
f 166/5/3 159/5/3 158/5/3
f 166/4/3 157/4/3 156/4/3
f 167/6/3 141/6/3 159/6/3
f 167/5/3 159/5/3 166/5/3
f 168/6/3 141/6/3 167/6/3
f 169/3/3 142/3/3 141/3/3
f 169/6/3 141/6/3 168/6/3
f 170/2/3 161/2/3 160/2/3
f 170/1/3 160/1/3 148/1/3
f 171/2/3 161/2/3 170/2/3
f 172/3/3 162/3/3 153/3/3
f 172/7/3 163/7/3 162/7/3
f 173/3/3 10/3/3 163/3/3
f 173/7/3 163/7/3 172/7/3
f 174/4/3 166/4/3 156/4/3
f 174/4/3 156/4/3 138/4/3
f 174/6/3 138/6/3 165/6/3
f 175/6/3 168/6/3 167/6/3
f 175/4/3 166/4/3 174/4/3
f 175/6/3 167/6/3 166/6/3
f 176/6/3 168/6/3 175/6/3
f 177/3/3 169/3/3 168/3/3
f 177/6/3 168/6/3 176/6/3
f 178/1/3 171/1/3 170/1/3
f 178/1/3 170/1/3 148/1/3
f 179/2/3 161/2/3 171/2/3
f 179/1/3 171/1/3 178/1/3
f 180/3/3 173/3/3 172/3/3
f 180/2/3 161/2/3 179/2/3
f 180/3/3 172/3/3 153/3/3
f 180/2/3 153/2/3 161/2/3
f 181/3/3 173/3/3 180/3/3
f 182/3/3 10/3/3 173/3/3
f 182/3/3 173/3/3 181/3/3
f 183/6/3 175/6/3 174/6/3
f 183/6/3 174/6/3 165/6/3
f 183/6/3 176/6/3 175/6/3
f 183/3/3 165/3/3 164/3/3
f 184/6/3 176/6/3 183/6/3
f 185/6/3 176/6/3 184/6/3
f 186/3/3 177/3/3 176/3/3
f 186/6/3 176/6/3 185/6/3
f 187/1/3 148/1/3 142/1/3
f 187/3/3 177/3/3 186/3/3
f 187/1/3 178/1/3 148/1/3
f 187/3/3 169/3/3 177/3/3
f 187/3/3 142/3/3 169/3/3
f 188/1/3 178/1/3 187/1/3
f 189/1/3 178/1/3 188/1/3
f 190/3/3 181/3/3 180/3/3
f 190/1/3 178/1/3 189/1/3
f 190/3/3 179/3/3 178/3/3
f 190/3/3 180/3/3 179/3/3
f 191/7/3 182/7/3 181/7/3
f 191/3/3 181/3/3 190/3/3
f 192/3/3 10/3/3 182/3/3
f 192/7/3 182/7/3 191/7/3
f 193/3/3 184/3/3 183/3/3
f 193/6/3 185/6/3 184/6/3
f 194/3/3 188/3/3 187/3/3
f 194/6/3 185/6/3 193/6/3
f 194/3/3 186/3/3 185/3/3
f 194/3/3 187/3/3 186/3/3
f 195/1/3 189/1/3 188/1/3
f 195/3/3 188/3/3 194/3/3
f 196/3/3 191/3/3 190/3/3
f 196/1/3 189/1/3 195/1/3
f 196/3/3 190/3/3 189/3/3
f 196/3/3 192/3/3 191/3/3
f 197/3/3 194/3/3 193/3/3
f 197/3/3 193/3/3 183/3/3
f 197/3/3 196/3/3 195/3/3
f 197/3/3 183/3/3 164/3/3
f 197/3/3 164/3/3 135/3/3
f 197/3/3 195/3/3 194/3/3
f 197/3/3 135/3/3 124/3/3
f 198/3/3 192/3/3 196/3/3
f 198/3/3 196/3/3 197/3/3
f 198/3/3 10/3/3 192/3/3
f 199/3/4 200/3/4 201/3/4
f 201/3/4 200/3/4 202/3/4
f 199/3/4 201/3/4 203/3/4
f 203/3/4 201/3/4 204/3/4
f 204/3/4 201/3/4 205/3/4
f 205/3/4 201/3/4 206/3/4
f 206/3/4 201/3/4 207/3/4
f 201/1/4 202/1/4 208/1/4
f 207/3/4 201/3/4 208/3/4
f 202/3/4 200/3/4 209/3/4
f 208/1/4 202/1/4 209/1/4
f 209/3/4 200/3/4 210/3/4
f 199/3/4 203/3/4 211/3/4
f 203/7/4 204/7/4 211/7/4
f 204/3/4 205/3/4 212/3/4
f 211/7/4 204/7/4 212/7/4
f 212/3/4 205/3/4 213/3/4
f 205/6/4 206/6/4 214/6/4
f 213/3/4 205/3/4 214/3/4
f 207/1/4 208/1/4 215/1/4
f 210/3/4 200/3/4 215/3/4
f 209/1/4 210/1/4 215/1/4
f 208/1/4 209/1/4 215/1/4
f 215/3/4 200/3/4 216/3/4
f 216/3/4 200/3/4 217/3/4
f 217/3/4 200/3/4 218/3/4
f 214/6/4 206/6/4 219/6/4
f 213/6/4 214/6/4 219/6/4
f 219/6/4 206/6/4 220/6/4
f 206/3/4 207/3/4 221/3/4
f 220/6/4 206/6/4 221/6/4
f 221/3/4 207/3/4 222/3/4
f 215/1/4 216/1/4 223/1/4
f 216/3/4 217/3/4 224/3/4
f 223/1/4 216/1/4 224/1/4
f 217/7/4 218/7/4 225/7/4
f 224/3/4 217/3/4 225/3/4
f 218/3/4 200/3/4 226/3/4
f 225/7/4 218/7/4 226/7/4
f 211/3/4 212/3/4 227/3/4
f 212/3/4 213/3/4 227/3/4
f 227/3/4 213/3/4 228/3/4
f 213/6/4 219/6/4 229/6/4
f 228/3/4 213/3/4 229/3/4
f 229/6/4 219/6/4 230/6/4
f 219/4/4 220/4/4 231/4/4
f 230/6/4 219/6/4 231/6/4
f 231/4/4 220/4/4 232/4/4
f 232/4/4 220/4/4 233/4/4
f 215/1/4 223/1/4 234/1/4
f 223/2/4 224/2/4 235/2/4
f 234/1/4 223/1/4 235/1/4
f 199/3/4 211/3/4 236/3/4
f 211/3/4 227/3/4 236/3/4
f 227/7/4 228/7/4 237/7/4
f 236/3/4 227/3/4 237/3/4
f 229/6/4 230/6/4 238/6/4
f 237/7/4 228/7/4 238/7/4
f 228/6/4 229/6/4 238/6/4
f 238/6/4 230/6/4 239/6/4
f 230/4/4 231/4/4 240/4/4
f 239/6/4 230/6/4 240/6/4
f 231/4/4 232/4/4 240/4/4
f 240/4/4 232/4/4 241/4/4
f 232/8/4 233/8/4 242/8/4
f 241/4/4 232/4/4 242/4/4
f 233/4/4 220/4/4 243/4/4
f 242/8/4 233/8/4 243/8/4
f 220/6/4 221/6/4 244/6/4
f 221/6/4 222/6/4 244/6/4
f 222/3/4 207/3/4 245/3/4
f 244/6/4 222/6/4 245/6/4
f 215/1/4 234/1/4 246/1/4
f 234/2/4 235/2/4 246/2/4
f 246/2/4 235/2/4 247/2/4
f 236/7/4 237/7/4 248/7/4
f 199/3/4 236/3/4 248/3/4
f 238/3/4 239/3/4 249/3/4
f 248/7/4 237/7/4 249/7/4
f 237/3/4 238/3/4 249/3/4
f 249/3/4 239/3/4 250/3/4
f 240/6/4 241/6/4 251/6/4
f 250/3/4 239/3/4 251/3/4
f 239/6/4 240/6/4 251/6/4
f 251/6/4 241/6/4 252/6/4
f 241/4/4 242/4/4 253/4/4
f 252/6/4 241/6/4 253/6/4
f 242/4/4 243/4/4 253/4/4
f 220/6/4 244/6/4 254/6/4
f 253/4/4 243/4/4 254/4/4
f 243/4/4 220/4/4 254/4/4
f 246/1/4 247/1/4 255/1/4
f 215/1/4 246/1/4 255/1/4
f 247/2/4 235/2/4 256/2/4
f 255/1/4 247/1/4 256/1/4
f 224/3/4 225/3/4 257/3/4
f 256/2/4 235/2/4 257/2/4
f 235/2/4 224/2/4 257/2/4
f 225/3/4 226/3/4 257/3/4
f 248/3/4 249/3/4 258/3/4
f 249/7/4 250/7/4 258/7/4
f 251/3/4 252/3/4 259/3/4
f 258/7/4 250/7/4 259/7/4
f 250/3/4 251/3/4 259/3/4
f 253/6/4 254/6/4 260/6/4
f 259/3/4 252/3/4 260/3/4
f 252/6/4 253/6/4 260/6/4
f 260/6/4 254/6/4 261/6/4
f 254/6/4 244/6/4 262/6/4
f 261/6/4 254/6/4 262/6/4
f 244/3/4 245/3/4 263/3/4
f 262/6/4 244/6/4 263/6/4
f 215/1/4 255/1/4 264/1/4
f 263/3/4 245/3/4 264/3/4
f 245/3/4 207/3/4 264/3/4
f 207/1/4 215/1/4 264/1/4
f 264/1/4 255/1/4 265/1/4
f 265/1/4 255/1/4 266/1/4
f 255/3/4 256/3/4 267/3/4
f 266/1/4 255/1/4 267/1/4
f 256/3/4 257/3/4 267/3/4
f 259/3/4 260/3/4 268/3/4
f 258/3/4 259/3/4 268/3/4
f 261/6/4 262/6/4 268/6/4
f 260/3/4 261/3/4 268/3/4
f 262/3/4 263/3/4 269/3/4
f 268/6/4 262/6/4 269/6/4
f 264/3/4 265/3/4 269/3/4
f 263/3/4 264/3/4 269/3/4
f 265/1/4 266/1/4 270/1/4
f 269/3/4 265/3/4 270/3/4
f 266/3/4 267/3/4 271/3/4
f 270/1/4 266/1/4 271/1/4
f 268/3/4 269/3/4 272/3/4
f 269/3/4 270/3/4 272/3/4
f 270/3/4 271/3/4 272/3/4
f 272/3/4 271/3/4 273/3/4
f 268/3/4 272/3/4 274/3/4
f 272/1/4 273/1/4 275/1/4
f 274/3/4 272/3/4 275/3/4
f 273/3/4 271/3/4 276/3/4
f 275/1/4 273/1/4 276/1/4
f 271/3/4 267/3/4 277/3/4
f 276/3/4 271/3/4 277/3/4
f 275/1/4 276/1/4 278/1/4
f 277/3/4 267/3/4 278/3/4
f 276/1/4 277/1/4 278/1/4
f 274/1/4 275/1/4 278/1/4
f 267/3/4 257/3/4 279/3/4
f 278/3/4 267/3/4 279/3/4
f 257/3/4 226/3/4 279/3/4
f 278/1/4 279/1/4 280/1/4
f 279/3/4 226/3/4 281/3/4
f 280/1/4 279/1/4 281/1/4
f 281/3/4 226/3/4 282/3/4
f 226/3/4 200/3/4 283/3/4
f 282/3/4 226/3/4 283/3/4
f 278/1/4 280/1/4 284/1/4
f 280/2/4 281/2/4 285/2/4
f 284/1/4 280/1/4 285/1/4
f 281/3/4 282/3/4 286/3/4
f 282/7/4 283/7/4 286/7/4
f 283/3/4 200/3/4 287/3/4
f 286/7/4 283/7/4 287/7/4
f 278/1/4 284/1/4 288/1/4
f 284/2/4 285/2/4 288/2/4
f 288/2/4 285/2/4 289/2/4
f 281/3/4 286/3/4 290/3/4
f 286/3/4 287/3/4 290/3/4
f 287/3/4 200/3/4 291/3/4
f 290/3/4 287/3/4 291/3/4
f 288/1/4 289/1/4 292/1/4
f 278/1/4 288/1/4 292/1/4
f 289/2/4 285/2/4 293/2/4
f 292/1/4 289/1/4 293/1/4
f 285/2/4 281/2/4 294/2/4
f 293/2/4 285/2/4 294/2/4
f 281/3/4 290/3/4 294/3/4
f 290/7/4 291/7/4 295/7/4
f 294/3/4 290/3/4 295/3/4
f 291/3/4 200/3/4 296/3/4
f 295/7/4 291/7/4 296/7/4
f 268/3/4 274/3/4 297/3/4
f 274/1/4 278/1/4 297/1/4
f 278/1/4 292/1/4 297/1/4
f 297/1/4 292/1/4 298/1/4
f 298/1/4 292/1/4 299/1/4
f 295/3/4 296/3/4 300/3/4
f 299/1/4 292/1/4 300/1/4
f 292/3/4 293/3/4 300/3/4
f 294/3/4 295/3/4 300/3/4
f 293/3/4 294/3/4 300/3/4
f 298/1/4 299/1/4 301/1/4
f 297/3/4 298/3/4 301/3/4
f 299/3/4 300/3/4 302/3/4
f 301/1/4 299/1/4 302/1/4
f 258/3/4 268/3/4 303/3/4
f 297/3/4 301/3/4 303/3/4
f 301/3/4 302/3/4 303/3/4
f 268/3/4 297/3/4 303/3/4
f 248/3/4 258/3/4 303/3/4
f 303/3/4 302/3/4 304/3/4
f 304/3/4 302/3/4 305/3/4
f 305/3/4 302/3/4 306/3/4
f 199/3/4 248/3/4 307/3/4
f 248/3/4 303/3/4 307/3/4
f 303/7/4 304/7/4 308/7/4
f 307/3/4 303/3/4 308/3/4
f 304/3/4 305/3/4 309/3/4
f 308/7/4 304/7/4 309/7/4
f 309/3/4 305/3/4 310/3/4
f 305/6/4 306/6/4 311/6/4
f 310/3/4 305/3/4 311/3/4
f 306/3/4 302/3/4 312/3/4
f 311/6/4 306/6/4 312/6/4
f 312/3/4 302/3/4 313/3/4
f 307/7/4 308/7/4 314/7/4
f 309/3/4 310/3/4 315/3/4
f 314/7/4 308/7/4 315/7/4
f 308/3/4 309/3/4 315/3/4
f 315/3/4 310/3/4 316/3/4
f 316/3/4 310/3/4 317/3/4
f 310/6/4 311/6/4 318/6/4
f 317/3/4 310/3/4 318/3/4
f 312/6/4 313/6/4 318/6/4
f 311/6/4 312/6/4 318/6/4
f 318/6/4 313/6/4 319/6/4
f 319/6/4 313/6/4 320/6/4
f 313/3/4 302/3/4 321/3/4
f 320/6/4 313/6/4 321/6/4
f 321/3/4 302/3/4 322/3/4
f 322/3/4 302/3/4 323/3/4
f 323/3/4 302/3/4 324/3/4
f 315/7/4 316/7/4 325/7/4
f 314/3/4 315/3/4 325/3/4
f 316/3/4 317/3/4 326/3/4
f 325/7/4 316/7/4 326/7/4
f 317/6/4 318/6/4 327/6/4
f 326/3/4 317/3/4 327/3/4
f 318/6/4 319/6/4 327/6/4
f 327/6/4 319/6/4 328/6/4
f 319/4/4 320/4/4 329/4/4
f 328/6/4 319/6/4 329/6/4
f 322/3/4 323/3/4 330/3/4
f 320/6/4 321/6/4 330/6/4
f 321/6/4 322/6/4 330/6/4
f 330/3/4 323/3/4 331/3/4
f 331/3/4 323/3/4 332/3/4
f 323/1/4 324/1/4 333/1/4
f 332/3/4 323/3/4 333/3/4
f 324/3/4 302/3/4 334/3/4
f 333/1/4 324/1/4 334/1/4
f 302/3/4 300/3/4 335/3/4
f 334/3/4 302/3/4 335/3/4
f 329/4/4 320/4/4 336/4/4
f 328/4/4 329/4/4 336/4/4
f 336/4/4 320/4/4 337/4/4
f 333/1/4 334/1/4 338/1/4
f 332/1/4 333/1/4 338/1/4
f 335/3/4 300/3/4 338/3/4
f 334/1/4 335/1/4 338/1/4
f 300/3/4 296/3/4 339/3/4
f 338/3/4 300/3/4 339/3/4
f 339/3/4 296/3/4 340/3/4
f 296/3/4 200/3/4 341/3/4
f 340/3/4 296/3/4 341/3/4
f 338/1/4 339/1/4 342/1/4
f 339/3/4 340/3/4 343/3/4
f 342/1/4 339/1/4 343/1/4
f 340/7/4 341/7/4 344/7/4
f 343/3/4 340/3/4 344/3/4
f 341/3/4 200/3/4 345/3/4
f 344/7/4 341/7/4 345/7/4
f 336/8/4 337/8/4 346/8/4
f 328/4/4 336/4/4 346/4/4
f 337/4/4 320/4/4 347/4/4
f 346/8/4 337/8/4 347/8/4
f 347/4/4 320/4/4 348/4/4
f 330/6/4 331/6/4 349/6/4
f 348/4/4 320/4/4 349/4/4
f 320/6/4 330/6/4 349/6/4
f 338/1/4 342/1/4 350/1/4
f 342/2/4 343/2/4 351/2/4
f 350/1/4 342/1/4 351/1/4
f 344/3/4 345/3/4 352/3/4
f 343/3/4 344/3/4 352/3/4
f 345/3/4 200/3/4 353/3/4
f 352/3/4 345/3/4 353/3/4
f 327/6/4 328/6/4 354/6/4
f 325/3/4 326/3/4 354/3/4
f 326/6/4 327/6/4 354/6/4
f 354/6/4 328/6/4 355/6/4
f 347/4/4 348/4/4 356/4/4
f 348/5/4 349/5/4 356/5/4
f 346/4/4 347/4/4 356/4/4
f 349/6/4 331/6/4 357/6/4
f 356/5/4 349/5/4 357/5/4
f 357/6/4 331/6/4 358/6/4
f 331/3/4 332/3/4 359/3/4
f 358/6/4 331/6/4 359/6/4
f 350/2/4 351/2/4 360/2/4
f 338/1/4 350/1/4 360/1/4
f 360/2/4 351/2/4 361/2/4
f 343/3/4 352/3/4 362/3/4
f 352/7/4 353/7/4 362/7/4
f 353/3/4 200/3/4 363/3/4
f 362/7/4 353/7/4 363/7/4
f 346/4/4 356/4/4 364/4/4
f 328/4/4 346/4/4 364/4/4
f 355/6/4 328/6/4 364/6/4
f 357/6/4 358/6/4 365/6/4
f 364/4/4 356/4/4 365/4/4
f 356/6/4 357/6/4 365/6/4
f 365/6/4 358/6/4 366/6/4
f 358/3/4 359/3/4 367/3/4
f 366/6/4 358/6/4 367/6/4
f 360/1/4 361/1/4 368/1/4
f 338/1/4 360/1/4 368/1/4
f 361/2/4 351/2/4 369/2/4
f 368/1/4 361/1/4 369/1/4
f 362/3/4 363/3/4 370/3/4
f 369/2/4 351/2/4 370/2/4
f 343/3/4 362/3/4 370/3/4
f 351/2/4 343/2/4 370/2/4
f 370/3/4 363/3/4 371/3/4
f 363/3/4 200/3/4 372/3/4
f 371/3/4 363/3/4 372/3/4
f 364/6/4 365/6/4 373/6/4
f 355/6/4 364/6/4 373/6/4
f 365/6/4 366/6/4 373/6/4
f 354/3/4 355/3/4 373/3/4
f 373/6/4 366/6/4 374/6/4
f 374/6/4 366/6/4 375/6/4
f 366/3/4 367/3/4 376/3/4
f 375/6/4 366/6/4 376/6/4
f 332/1/4 338/1/4 377/1/4
f 376/3/4 367/3/4 377/3/4
f 338/1/4 368/1/4 377/1/4
f 367/3/4 359/3/4 377/3/4
f 359/3/4 332/3/4 377/3/4
f 377/1/4 368/1/4 378/1/4
f 378/1/4 368/1/4 379/1/4
f 370/3/4 371/3/4 380/3/4
f 379/1/4 368/1/4 380/1/4
f 368/3/4 369/3/4 380/3/4
f 369/3/4 370/3/4 380/3/4
f 371/7/4 372/7/4 381/7/4
f 380/3/4 371/3/4 381/3/4
f 372/3/4 200/3/4 382/3/4
f 381/7/4 372/7/4 382/7/4
f 373/3/4 374/3/4 383/3/4
f 374/6/4 375/6/4 383/6/4
f 377/3/4 378/3/4 384/3/4
f 383/6/4 375/6/4 384/6/4
f 375/3/4 376/3/4 384/3/4
f 376/3/4 377/3/4 384/3/4
f 378/1/4 379/1/4 385/1/4
f 384/3/4 378/3/4 385/3/4
f 380/3/4 381/3/4 386/3/4
f 385/1/4 379/1/4 386/1/4
f 379/3/4 380/3/4 386/3/4
f 381/3/4 382/3/4 386/3/4
f 383/3/4 384/3/4 387/3/4
f 373/3/4 383/3/4 387/3/4
f 385/3/4 386/3/4 387/3/4
f 354/3/4 373/3/4 387/3/4
f 325/3/4 354/3/4 387/3/4
f 384/3/4 385/3/4 387/3/4
f 314/3/4 325/3/4 387/3/4
f 386/3/4 382/3/4 388/3/4
f 387/3/4 386/3/4 388/3/4
f 382/3/4 200/3/4 388/3/4
f 393/3/5 390/3/5 389/3/5
f 394/7/5 391/7/5 390/7/5
f 394/3/5 390/3/5 393/3/5
f 395/3/5 392/3/5 391/3/5
f 395/7/5 391/7/5 394/7/5
f 396/3/5 392/3/5 395/3/5
f 397/3/6 398/3/6 399/3/6
f 399/3/6 398/3/6 400/3/6
